G04*
G04 #@! TF.GenerationSoftware,Altium Limited,Altium Designer,22.2.1 (43)*
G04*
G04 Layer_Color=255*
%FSLAX25Y25*%
%MOIN*%
G70*
G04*
G04 #@! TF.SameCoordinates,ABC598D3-5A79-416D-B659-D6E934405FF7*
G04*
G04*
G04 #@! TF.FilePolarity,Positive*
G04*
G01*
G75*
%ADD20C,0.06496*%
%ADD21C,0.07874*%
%ADD22R,0.07874X0.07874*%
%ADD23C,0.05512*%
%ADD24C,0.05906*%
%ADD25R,0.05906X0.05906*%
%ADD26R,0.05906X0.05906*%
D20*
X240000Y52000D02*
D03*
X150000D02*
D03*
X88500Y125500D02*
D03*
X178500D02*
D03*
X88500Y12500D02*
D03*
Y102500D02*
D03*
D21*
X57063Y92934D02*
D03*
X31000Y51410D02*
D03*
D22*
X57063Y51753D02*
D03*
X31000Y92590D02*
D03*
D23*
X179000Y84000D02*
D03*
Y94000D02*
D03*
X142000Y84000D02*
D03*
Y94000D02*
D03*
X56500Y122500D02*
D03*
X66500D02*
D03*
D24*
X240000Y130000D02*
D03*
Y120000D02*
D03*
Y110000D02*
D03*
X10000Y130000D02*
D03*
Y120000D02*
D03*
Y110000D02*
D03*
X110000Y10000D02*
D03*
X120000D02*
D03*
X130000D02*
D03*
D25*
X240000Y100000D02*
D03*
X10000D02*
D03*
D26*
X140000Y10000D02*
D03*
M02*
