G04*
G04 #@! TF.GenerationSoftware,Altium Limited,Altium Designer,22.2.1 (43)*
G04*
G04 Layer_Color=65535*
%FSLAX25Y25*%
%MOIN*%
G70*
G04*
G04 #@! TF.SameCoordinates,ABC598D3-5A79-416D-B659-D6E934405FF7*
G04*
G04*
G04 #@! TF.FilePolarity,Positive*
G04*
G01*
G75*
%ADD10C,0.01000*%
%ADD11C,0.00787*%
%ADD12R,0.11024X0.03150*%
G36*
X117331Y89999D02*
X118760D01*
Y89869D01*
X119409D01*
Y89739D01*
X119669D01*
Y89609D01*
X119928D01*
Y89479D01*
X120318D01*
Y89349D01*
X120448D01*
Y89219D01*
X120578D01*
Y88960D01*
X120707D01*
Y88830D01*
X120837D01*
Y88700D01*
X120967D01*
Y88440D01*
X121097D01*
Y88310D01*
X121227D01*
Y88051D01*
X121357D01*
Y87921D01*
X121487D01*
Y87661D01*
X121616D01*
Y87272D01*
X121746D01*
Y87012D01*
X121876D01*
Y86752D01*
X122006D01*
Y86363D01*
X122136D01*
Y85843D01*
X122266D01*
Y85584D01*
X122396D01*
Y85064D01*
X122655D01*
Y84934D01*
X123434D01*
Y84804D01*
X123954D01*
Y84675D01*
X124084D01*
Y84545D01*
X124343D01*
Y84415D01*
X124473D01*
Y84285D01*
X124603D01*
Y84155D01*
X124733D01*
Y84025D01*
X124863D01*
Y83895D01*
X124993D01*
Y83636D01*
X125122D01*
Y83506D01*
X125252D01*
Y83246D01*
X125382D01*
Y82987D01*
X125512D01*
Y82467D01*
X125642D01*
Y82078D01*
X125772D01*
Y81558D01*
X125901D01*
Y81039D01*
X126031D01*
Y79351D01*
X126161D01*
Y79221D01*
X126291D01*
Y78572D01*
X126421D01*
Y77273D01*
X126291D01*
Y75975D01*
X126161D01*
Y75325D01*
X126031D01*
Y74806D01*
X125901D01*
Y74416D01*
X125772D01*
Y74287D01*
X125642D01*
Y74027D01*
X125512D01*
Y73897D01*
X125382D01*
Y73767D01*
X125252D01*
Y73637D01*
X124993D01*
Y73507D01*
X124863D01*
Y73378D01*
X124603D01*
Y73248D01*
X123954D01*
Y73378D01*
X123694D01*
Y73507D01*
X123564D01*
Y73637D01*
X122915D01*
Y73507D01*
X122785D01*
Y73118D01*
X122915D01*
Y72988D01*
X123045D01*
Y72858D01*
X123175D01*
Y72728D01*
X123304D01*
Y72598D01*
X123434D01*
Y72469D01*
X123564D01*
Y72339D01*
X123694D01*
Y72209D01*
X123954D01*
Y71949D01*
X124084D01*
Y71819D01*
X124213D01*
Y71690D01*
X124343D01*
Y71560D01*
X124473D01*
Y71430D01*
X124603D01*
Y71170D01*
X124733D01*
Y70911D01*
X124863D01*
Y70521D01*
X124993D01*
Y70261D01*
X125122D01*
Y69872D01*
X125252D01*
Y69482D01*
X125382D01*
Y69222D01*
X125512D01*
Y68833D01*
X125642D01*
Y68443D01*
X125772D01*
Y68184D01*
X125901D01*
Y67794D01*
X126031D01*
Y67275D01*
X126161D01*
Y66496D01*
X126291D01*
Y65457D01*
X126421D01*
Y64548D01*
X126551D01*
Y64288D01*
X127070D01*
Y64158D01*
X128239D01*
Y64028D01*
X128888D01*
Y63898D01*
X129408D01*
Y63769D01*
X129927D01*
Y63639D01*
X130446D01*
Y63509D01*
X130706D01*
Y63379D01*
X130836D01*
Y63249D01*
X131096D01*
Y63119D01*
X131225D01*
Y62990D01*
X131355D01*
Y62860D01*
X131485D01*
Y62730D01*
X131615D01*
Y62470D01*
X131745D01*
Y62081D01*
X131875D01*
Y61691D01*
X132004D01*
Y61431D01*
X132134D01*
Y59094D01*
X132264D01*
Y57276D01*
X132394D01*
Y55978D01*
X132524D01*
Y55718D01*
X132394D01*
Y55199D01*
X132524D01*
Y53770D01*
X132654D01*
Y51952D01*
X132784D01*
Y51433D01*
X132913D01*
Y50784D01*
X133043D01*
Y50134D01*
X133173D01*
Y50005D01*
X133952D01*
Y49875D01*
X134342D01*
Y49745D01*
X134991D01*
Y49615D01*
X135251D01*
Y49485D01*
X135381D01*
Y49355D01*
X135510D01*
Y49225D01*
X135640D01*
Y49095D01*
X135770D01*
Y48836D01*
X135900D01*
Y48446D01*
X136030D01*
Y48057D01*
X136160D01*
Y47667D01*
X136290D01*
Y46628D01*
X136419D01*
Y46239D01*
X136549D01*
Y44940D01*
X136679D01*
Y44551D01*
X136549D01*
Y43902D01*
X136679D01*
Y43512D01*
X136549D01*
Y43382D01*
X136679D01*
Y42473D01*
X136809D01*
Y40915D01*
X136679D01*
Y40655D01*
X136549D01*
Y40396D01*
X136419D01*
Y40136D01*
X136290D01*
Y39876D01*
X136030D01*
Y39746D01*
X135900D01*
Y39616D01*
X135770D01*
Y39487D01*
X135510D01*
Y39357D01*
X135381D01*
Y39227D01*
X135121D01*
Y39097D01*
X134861D01*
Y38967D01*
X133952D01*
Y38837D01*
X133563D01*
Y38578D01*
X133433D01*
Y36630D01*
X133303D01*
Y36240D01*
X133173D01*
Y35981D01*
X133043D01*
Y35851D01*
X132913D01*
Y35721D01*
X132784D01*
Y35591D01*
X132654D01*
Y35461D01*
X132524D01*
Y35201D01*
X132264D01*
Y35072D01*
X132134D01*
Y34942D01*
X132004D01*
Y34812D01*
X131875D01*
Y34682D01*
X131485D01*
Y34552D01*
X130057D01*
Y34682D01*
X129408D01*
Y34812D01*
X129148D01*
Y34942D01*
X128888D01*
Y35072D01*
X128758D01*
Y35201D01*
X128628D01*
Y35331D01*
X128369D01*
Y35591D01*
X128239D01*
Y35721D01*
X128109D01*
Y35981D01*
X127979D01*
Y36240D01*
X127849D01*
Y36630D01*
X127719D01*
Y37149D01*
X127590D01*
Y38837D01*
X127460D01*
Y38967D01*
X127070D01*
Y38837D01*
X126940D01*
Y38708D01*
X126810D01*
Y38578D01*
X126681D01*
Y37539D01*
X126810D01*
Y36630D01*
X126681D01*
Y36240D01*
X126551D01*
Y36110D01*
X126421D01*
Y35981D01*
X126291D01*
Y35851D01*
X126031D01*
Y35721D01*
X125772D01*
Y35591D01*
X125512D01*
Y35461D01*
X123954D01*
Y35591D01*
X123694D01*
Y35721D01*
X123564D01*
Y35851D01*
X123304D01*
Y35981D01*
X123175D01*
Y36110D01*
X123045D01*
Y36370D01*
X122915D01*
Y36500D01*
X122785D01*
Y36630D01*
X122006D01*
Y36500D01*
X120318D01*
Y36630D01*
X119928D01*
Y36760D01*
X119409D01*
Y36890D01*
X119019D01*
Y37019D01*
X118760D01*
Y37149D01*
X118500D01*
Y37279D01*
X118370D01*
Y37409D01*
X118110D01*
Y37539D01*
X117981D01*
Y37669D01*
X117851D01*
Y37799D01*
X117721D01*
Y37928D01*
X117591D01*
Y38058D01*
X117461D01*
Y38188D01*
X117331D01*
Y38448D01*
X117201D01*
Y38708D01*
X117072D01*
Y38967D01*
X116942D01*
Y39357D01*
X116812D01*
Y41304D01*
X116682D01*
Y41954D01*
X116552D01*
Y43772D01*
X116422D01*
Y43902D01*
X116033D01*
Y44031D01*
X114475D01*
Y43902D01*
X114345D01*
Y43122D01*
X114475D01*
Y41564D01*
X114345D01*
Y40785D01*
X114215D01*
Y40525D01*
X114085D01*
Y40136D01*
X113955D01*
Y39876D01*
X113825D01*
Y39616D01*
X113696D01*
Y39357D01*
X113566D01*
Y39227D01*
X113436D01*
Y39097D01*
X113306D01*
Y38837D01*
X113046D01*
Y38708D01*
X112916D01*
Y38578D01*
X112787D01*
Y38448D01*
X112397D01*
Y38318D01*
X111748D01*
Y38188D01*
X110190D01*
Y38058D01*
X109800D01*
Y38188D01*
X108372D01*
Y38318D01*
X108112D01*
Y38448D01*
X107852D01*
Y38578D01*
X107592D01*
Y38708D01*
X107463D01*
Y38837D01*
X107333D01*
Y38967D01*
X107073D01*
Y39227D01*
X106943D01*
Y39357D01*
X106813D01*
Y39487D01*
X106684D01*
Y39876D01*
X106554D01*
Y40266D01*
X106424D01*
Y40655D01*
X106294D01*
Y41304D01*
X106164D01*
Y42084D01*
X106034D01*
Y42863D01*
X105904D01*
Y43382D01*
X105775D01*
Y43902D01*
X105645D01*
Y44810D01*
X105515D01*
Y45590D01*
X105385D01*
Y45979D01*
X105255D01*
Y46758D01*
X105125D01*
Y47537D01*
X104996D01*
Y48576D01*
X104866D01*
Y49355D01*
X104736D01*
Y50005D01*
X104606D01*
Y51173D01*
X104476D01*
Y51692D01*
X104346D01*
Y51822D01*
X104476D01*
Y52082D01*
X104346D01*
Y52601D01*
X104476D01*
Y53121D01*
X104346D01*
Y54290D01*
X104476D01*
Y54939D01*
X104606D01*
Y55718D01*
X104736D01*
Y56237D01*
X104866D01*
Y56887D01*
X104736D01*
Y59094D01*
X104606D01*
Y59224D01*
X104476D01*
Y59354D01*
X104346D01*
Y59484D01*
X104087D01*
Y59613D01*
X103957D01*
Y59873D01*
X103827D01*
Y60003D01*
X103697D01*
Y60263D01*
X103567D01*
Y60782D01*
X103437D01*
Y61301D01*
X103307D01*
Y61821D01*
X103178D01*
Y63509D01*
X103307D01*
Y64028D01*
X103437D01*
Y64288D01*
X103567D01*
Y64678D01*
X103697D01*
Y64937D01*
X103827D01*
Y65197D01*
X103957D01*
Y65457D01*
X104087D01*
Y65846D01*
X104216D01*
Y65976D01*
X104346D01*
Y66106D01*
X104476D01*
Y66366D01*
X104606D01*
Y66496D01*
X104736D01*
Y66625D01*
X104866D01*
Y66885D01*
X104996D01*
Y67015D01*
X105125D01*
Y67145D01*
X105255D01*
Y67275D01*
X105515D01*
Y67405D01*
X105645D01*
Y67534D01*
X105904D01*
Y67664D01*
X106034D01*
Y67794D01*
X106164D01*
Y67924D01*
X106294D01*
Y68054D01*
X106424D01*
Y68184D01*
X106554D01*
Y68573D01*
X106684D01*
Y69352D01*
X106813D01*
Y69742D01*
X106943D01*
Y69872D01*
X107073D01*
Y70002D01*
X107203D01*
Y70261D01*
X107333D01*
Y70391D01*
X107463D01*
Y70521D01*
X107592D01*
Y70651D01*
X107722D01*
Y70781D01*
X107852D01*
Y70911D01*
X107982D01*
Y71040D01*
X108112D01*
Y71300D01*
X108242D01*
Y71430D01*
X108372D01*
Y71560D01*
X108631D01*
Y71690D01*
X109021D01*
Y71819D01*
X109151D01*
Y71949D01*
X109281D01*
Y72079D01*
X109410D01*
Y72209D01*
X109540D01*
Y72469D01*
X109410D01*
Y72598D01*
X109281D01*
Y72728D01*
X109151D01*
Y72988D01*
X109021D01*
Y73507D01*
X108891D01*
Y74287D01*
X109021D01*
Y75325D01*
X109151D01*
Y75845D01*
X109281D01*
Y76104D01*
X109410D01*
Y76234D01*
X109540D01*
Y76364D01*
X109670D01*
Y76494D01*
X109800D01*
Y76624D01*
X109930D01*
Y76754D01*
X110190D01*
Y76884D01*
X110579D01*
Y77013D01*
X110709D01*
Y77533D01*
X110839D01*
Y77663D01*
X110709D01*
Y78182D01*
X110839D01*
Y78312D01*
X110709D01*
Y78702D01*
X110839D01*
Y78961D01*
X110709D01*
Y79611D01*
X110579D01*
Y79870D01*
X110449D01*
Y80130D01*
X110319D01*
Y80260D01*
X110190D01*
Y80390D01*
X110060D01*
Y80519D01*
X109930D01*
Y80779D01*
X109800D01*
Y80909D01*
X109670D01*
Y81169D01*
X109540D01*
Y81558D01*
X109410D01*
Y84285D01*
X109540D01*
Y84934D01*
X109670D01*
Y85324D01*
X109800D01*
Y85713D01*
X109930D01*
Y85973D01*
X110060D01*
Y86233D01*
X110190D01*
Y86622D01*
X110319D01*
Y86882D01*
X110449D01*
Y87142D01*
X110579D01*
Y87272D01*
X110709D01*
Y87401D01*
X110839D01*
Y87531D01*
X110969D01*
Y87661D01*
X111099D01*
Y87791D01*
X111228D01*
Y87921D01*
X111358D01*
Y88051D01*
X111488D01*
Y88181D01*
X111748D01*
Y88310D01*
X111878D01*
Y88440D01*
X112137D01*
Y88570D01*
X112267D01*
Y88700D01*
X112527D01*
Y88830D01*
X112787D01*
Y88960D01*
X113176D01*
Y89090D01*
X113566D01*
Y89219D01*
X113825D01*
Y89349D01*
X113955D01*
Y89479D01*
X114085D01*
Y89609D01*
X114215D01*
Y89739D01*
X114475D01*
Y89869D01*
X114864D01*
Y89999D01*
X115903D01*
Y90128D01*
X117331D01*
Y89999D01*
D02*
G37*
%LPC*%
G36*
X116293Y87142D02*
X115513D01*
Y87012D01*
X115643D01*
Y86882D01*
X115773D01*
Y86622D01*
X115903D01*
Y86233D01*
X116033D01*
Y85454D01*
X115903D01*
Y85194D01*
X115773D01*
Y85584D01*
X115903D01*
Y85713D01*
X115773D01*
Y85843D01*
X115903D01*
Y86103D01*
X115773D01*
Y86493D01*
X115643D01*
Y86752D01*
X115513D01*
Y86882D01*
X115384D01*
Y87012D01*
X115254D01*
Y87142D01*
X112657D01*
Y87012D01*
X112267D01*
Y86882D01*
X112007D01*
Y86752D01*
X111878D01*
Y86622D01*
X111748D01*
Y86493D01*
X111618D01*
Y85194D01*
X111748D01*
Y85064D01*
X111878D01*
Y84934D01*
X112527D01*
Y84804D01*
X113566D01*
Y84675D01*
X115254D01*
Y84804D01*
X115384D01*
Y84934D01*
X115513D01*
Y85064D01*
X115643D01*
Y85194D01*
X115773D01*
Y84934D01*
X115643D01*
Y84804D01*
X115513D01*
Y84675D01*
X115384D01*
Y84545D01*
X113436D01*
Y84675D01*
X112397D01*
Y84804D01*
X111748D01*
Y84934D01*
X111618D01*
Y85064D01*
X111488D01*
Y86103D01*
X111358D01*
Y85973D01*
X111228D01*
Y85584D01*
X111099D01*
Y85454D01*
X110969D01*
Y85064D01*
X110839D01*
Y84285D01*
X110709D01*
Y82987D01*
X110839D01*
Y82208D01*
X110969D01*
Y81948D01*
X111099D01*
Y81818D01*
X111228D01*
Y81688D01*
X111358D01*
Y81428D01*
X111488D01*
Y81299D01*
X111618D01*
Y81169D01*
X111748D01*
Y81039D01*
X112007D01*
Y80909D01*
X112137D01*
Y80779D01*
X112397D01*
Y80649D01*
X113046D01*
Y80519D01*
X113176D01*
Y80390D01*
X113696D01*
Y80260D01*
X116163D01*
Y80390D01*
X116293D01*
Y80519D01*
X116422D01*
Y80649D01*
X116682D01*
Y80779D01*
X116812D01*
Y80909D01*
X117072D01*
Y81039D01*
X117201D01*
Y81169D01*
X117331D01*
Y81299D01*
X117461D01*
Y81428D01*
X117591D01*
Y81948D01*
X117721D01*
Y82337D01*
X117851D01*
Y85324D01*
X117721D01*
Y85584D01*
X117591D01*
Y85713D01*
X117461D01*
Y85973D01*
X117331D01*
Y86233D01*
X117201D01*
Y86363D01*
X117072D01*
Y86622D01*
X116942D01*
Y86752D01*
X116682D01*
Y86882D01*
X116552D01*
Y87012D01*
X116293D01*
Y87142D01*
D02*
G37*
G36*
X117851Y88440D02*
X117591D01*
Y88310D01*
X117721D01*
Y88051D01*
X117851D01*
Y87921D01*
X117981D01*
Y87791D01*
X118110D01*
Y87661D01*
X118240D01*
Y87401D01*
X118370D01*
Y87272D01*
X118500D01*
Y87142D01*
X118630D01*
Y86882D01*
X118760D01*
Y86752D01*
X118890D01*
Y86493D01*
X119019D01*
Y86233D01*
X119149D01*
Y85973D01*
X119279D01*
Y85584D01*
X119409D01*
Y85194D01*
X119539D01*
Y84545D01*
X119669D01*
Y82337D01*
X119539D01*
Y81818D01*
X119409D01*
Y81428D01*
X119279D01*
Y81169D01*
X119149D01*
Y80779D01*
X119019D01*
Y80519D01*
X118890D01*
Y80260D01*
X118760D01*
Y80130D01*
X118630D01*
Y80000D01*
X118500D01*
Y79740D01*
X118370D01*
Y79611D01*
X118240D01*
Y79481D01*
X118110D01*
Y79351D01*
X117981D01*
Y79221D01*
X117851D01*
Y79091D01*
X117591D01*
Y78961D01*
X117331D01*
Y78831D01*
X117201D01*
Y78702D01*
X116942D01*
Y78572D01*
X116552D01*
Y78442D01*
X114734D01*
Y78572D01*
X113436D01*
Y78702D01*
X112267D01*
Y78572D01*
X112137D01*
Y76494D01*
X112267D01*
Y76364D01*
X112137D01*
Y75845D01*
X111878D01*
Y75715D01*
X111618D01*
Y75585D01*
X111358D01*
Y75455D01*
X111099D01*
Y75325D01*
X110839D01*
Y75195D01*
X110579D01*
Y75066D01*
X110449D01*
Y74936D01*
X110319D01*
Y74546D01*
X110449D01*
Y74416D01*
X110319D01*
Y73507D01*
X110449D01*
Y73248D01*
X110579D01*
Y73118D01*
X110709D01*
Y72988D01*
X111099D01*
Y72858D01*
X112527D01*
Y72728D01*
X113436D01*
Y72858D01*
X113825D01*
Y72988D01*
X113955D01*
Y73118D01*
X114085D01*
Y73637D01*
X114215D01*
Y74676D01*
X114345D01*
Y74806D01*
X114475D01*
Y75066D01*
X114604D01*
Y75195D01*
X114864D01*
Y75325D01*
X115124D01*
Y75455D01*
X115384D01*
Y75715D01*
X116682D01*
Y75585D01*
X116812D01*
Y75325D01*
X116942D01*
Y75066D01*
X116812D01*
Y74806D01*
X116552D01*
Y74676D01*
X116293D01*
Y74546D01*
X116163D01*
Y74416D01*
X116033D01*
Y74157D01*
X115903D01*
Y74027D01*
X115773D01*
Y73767D01*
X115643D01*
Y73248D01*
X115513D01*
Y72988D01*
X115643D01*
Y72339D01*
X115773D01*
Y72209D01*
X115903D01*
Y72079D01*
X116033D01*
Y71949D01*
X116163D01*
Y71819D01*
X116422D01*
Y71690D01*
X117591D01*
Y71819D01*
X118240D01*
Y71949D01*
X118760D01*
Y72079D01*
X119149D01*
Y72209D01*
X119409D01*
Y72339D01*
X119799D01*
Y72469D01*
X120058D01*
Y72598D01*
X120318D01*
Y72728D01*
X120448D01*
Y72858D01*
X120578D01*
Y72988D01*
X120707D01*
Y73118D01*
X120837D01*
Y73378D01*
X120967D01*
Y73637D01*
X121097D01*
Y74287D01*
X121227D01*
Y76364D01*
X121357D01*
Y77922D01*
X121227D01*
Y78572D01*
X121097D01*
Y79870D01*
X121227D01*
Y80000D01*
X121097D01*
Y83636D01*
X120967D01*
Y84285D01*
X121097D01*
Y84415D01*
X120967D01*
Y84545D01*
X121097D01*
Y84675D01*
X120967D01*
Y84804D01*
X121097D01*
Y85064D01*
X120967D01*
Y85454D01*
X120837D01*
Y85713D01*
X120707D01*
Y85973D01*
X120578D01*
Y86103D01*
X120448D01*
Y86363D01*
X120318D01*
Y86622D01*
X120188D01*
Y86752D01*
X120058D01*
Y86882D01*
X119928D01*
Y87142D01*
X119799D01*
Y87272D01*
X119669D01*
Y87401D01*
X119539D01*
Y87531D01*
X119409D01*
Y87661D01*
X119279D01*
Y87791D01*
X119019D01*
Y87921D01*
X118890D01*
Y88051D01*
X118630D01*
Y88181D01*
X118240D01*
Y88310D01*
X117851D01*
Y88440D01*
D02*
G37*
G36*
X123304Y82987D02*
X123045D01*
Y82857D01*
X122785D01*
Y81948D01*
X122915D01*
Y80260D01*
X123045D01*
Y75195D01*
X123175D01*
Y74936D01*
X124473D01*
Y75066D01*
Y75195D01*
Y75455D01*
X124603D01*
Y75975D01*
X124733D01*
Y79481D01*
X124603D01*
Y80649D01*
X124473D01*
Y81169D01*
X124343D01*
Y81558D01*
X124213D01*
Y82078D01*
X124084D01*
Y82337D01*
X123954D01*
Y82597D01*
X123824D01*
Y82727D01*
X123694D01*
Y82857D01*
X123304D01*
Y82987D01*
D02*
G37*
G36*
X121616Y71690D02*
X121227D01*
Y71560D01*
X120967D01*
Y71430D01*
X120837D01*
Y71300D01*
X120707D01*
Y71170D01*
X120448D01*
Y71040D01*
X120318D01*
Y70911D01*
X120058D01*
Y70781D01*
X119799D01*
Y70651D01*
X119279D01*
Y70521D01*
X119149D01*
Y70391D01*
X117981D01*
Y70261D01*
X115773D01*
Y70391D01*
X115384D01*
Y70521D01*
X115124D01*
Y70651D01*
X114994D01*
Y70781D01*
X114734D01*
Y71040D01*
X114604D01*
Y71170D01*
X114475D01*
Y71430D01*
X114215D01*
Y71560D01*
X112267D01*
Y71430D01*
X111878D01*
Y71300D01*
X111618D01*
Y71170D01*
X111358D01*
Y71040D01*
X111099D01*
Y70911D01*
X110969D01*
Y70781D01*
X110839D01*
Y70651D01*
X110709D01*
Y70521D01*
X110579D01*
Y70391D01*
X110449D01*
Y70261D01*
X110319D01*
Y70131D01*
X110190D01*
Y70002D01*
X110060D01*
Y69872D01*
X109930D01*
Y69742D01*
X109800D01*
Y69612D01*
X109670D01*
Y69482D01*
X109540D01*
Y69352D01*
X109410D01*
Y69093D01*
X110319D01*
Y68963D01*
X111358D01*
Y69093D01*
X114475D01*
Y68963D01*
X115384D01*
Y68833D01*
X116033D01*
Y68703D01*
X116942D01*
Y68573D01*
X117331D01*
Y68443D01*
X118110D01*
Y68313D01*
X118370D01*
Y68184D01*
X118630D01*
Y68054D01*
X118890D01*
Y67924D01*
X119019D01*
Y67794D01*
X119279D01*
Y67534D01*
X119409D01*
Y67405D01*
X119539D01*
Y67275D01*
X119669D01*
Y67145D01*
X119799D01*
Y66885D01*
X119928D01*
Y66755D01*
X120058D01*
Y66236D01*
X120188D01*
Y65457D01*
X120318D01*
Y62600D01*
X120188D01*
Y61561D01*
X120058D01*
Y61172D01*
X119928D01*
Y60912D01*
X119799D01*
Y60522D01*
X119669D01*
Y60133D01*
X119539D01*
Y59743D01*
X119409D01*
Y59613D01*
X119279D01*
Y59354D01*
X119149D01*
Y59094D01*
X119019D01*
Y58834D01*
X118890D01*
Y58705D01*
X118760D01*
Y58575D01*
X118630D01*
Y58445D01*
X118500D01*
Y58315D01*
X118370D01*
Y58185D01*
X118240D01*
Y58055D01*
X117981D01*
Y57925D01*
X117851D01*
Y57796D01*
X117591D01*
Y57666D01*
X117461D01*
Y57536D01*
X117201D01*
Y57406D01*
X116812D01*
Y57276D01*
X116552D01*
Y57146D01*
X116163D01*
Y57016D01*
X115643D01*
Y56887D01*
X115254D01*
Y56757D01*
X111878D01*
Y56887D01*
X111358D01*
Y57016D01*
X110579D01*
Y57146D01*
X109800D01*
Y57276D01*
X109281D01*
Y57406D01*
X108631D01*
Y57536D01*
X108112D01*
Y57666D01*
X107722D01*
Y57796D01*
X107463D01*
Y57925D01*
X106943D01*
Y58055D01*
X106684D01*
Y57406D01*
X106813D01*
Y53640D01*
X106684D01*
Y52601D01*
X106554D01*
Y50654D01*
X106684D01*
Y49615D01*
X106813D01*
Y49225D01*
X106684D01*
Y49095D01*
X106813D01*
Y48836D01*
X106943D01*
Y47667D01*
X107073D01*
Y46628D01*
X107203D01*
Y45849D01*
X107333D01*
Y45200D01*
X107463D01*
Y44681D01*
X107592D01*
Y44421D01*
X107722D01*
Y43772D01*
X107852D01*
Y42343D01*
X107722D01*
Y41175D01*
X107852D01*
Y40525D01*
X107982D01*
Y40266D01*
X108112D01*
Y40006D01*
X108372D01*
Y39876D01*
X108502D01*
Y39746D01*
X109410D01*
Y39616D01*
X111358D01*
Y39746D01*
X111488D01*
Y39616D01*
X111878D01*
Y39746D01*
X112267D01*
Y39876D01*
X112397D01*
Y40136D01*
X112527D01*
Y40785D01*
X112657D01*
Y41175D01*
X112787D01*
Y41434D01*
X112916D01*
Y42084D01*
X112787D01*
Y42603D01*
X112657D01*
Y43122D01*
X112527D01*
Y43252D01*
X112657D01*
Y43382D01*
X112527D01*
Y43902D01*
X112267D01*
Y44031D01*
X111878D01*
Y44161D01*
X111618D01*
Y44291D01*
X111358D01*
Y44421D01*
X111228D01*
Y44551D01*
X110969D01*
Y44681D01*
X110709D01*
Y44940D01*
X110319D01*
Y45070D01*
X110190D01*
Y45200D01*
X110060D01*
Y45330D01*
X109930D01*
Y45460D01*
X114994D01*
Y45590D01*
X115903D01*
Y45719D01*
X116293D01*
Y45849D01*
X117331D01*
Y45719D01*
X117721D01*
Y45590D01*
X117981D01*
Y45460D01*
X118110D01*
Y45330D01*
X118240D01*
Y45070D01*
X118370D01*
Y43772D01*
X118500D01*
Y40396D01*
X118370D01*
Y39876D01*
X118500D01*
Y39616D01*
X118630D01*
Y39487D01*
X118760D01*
Y39357D01*
X118890D01*
Y39227D01*
X119019D01*
Y39097D01*
X119149D01*
Y38967D01*
X119409D01*
Y38837D01*
X119669D01*
Y38708D01*
X119799D01*
Y38578D01*
X120058D01*
Y38448D01*
X120578D01*
Y38318D01*
X120837D01*
Y38188D01*
X122006D01*
Y38318D01*
X122136D01*
Y38967D01*
X122006D01*
Y40006D01*
X121876D01*
Y40655D01*
X121746D01*
Y41045D01*
X121616D01*
Y45070D01*
X121487D01*
Y45200D01*
X121357D01*
Y45330D01*
X121227D01*
Y45460D01*
X121097D01*
Y45590D01*
X120967D01*
Y45849D01*
X120837D01*
Y46239D01*
X120707D01*
Y46499D01*
X120578D01*
Y46628D01*
X120448D01*
Y47148D01*
X120318D01*
Y47407D01*
X120188D01*
Y47667D01*
X120058D01*
Y50264D01*
X120188D01*
Y50524D01*
X120318D01*
Y50913D01*
X120448D01*
Y51303D01*
X120578D01*
Y51433D01*
X120707D01*
Y51563D01*
X120837D01*
Y52082D01*
X120967D01*
Y52342D01*
X121097D01*
Y52472D01*
X121227D01*
Y52731D01*
X121357D01*
Y52861D01*
X121616D01*
Y53121D01*
X121746D01*
Y53251D01*
X122136D01*
Y53381D01*
X122266D01*
Y53510D01*
X122525D01*
Y53640D01*
X122785D01*
Y53900D01*
X122915D01*
Y54030D01*
X123694D01*
Y54160D01*
X123824D01*
Y54290D01*
X123954D01*
Y54419D01*
X124213D01*
Y54549D01*
X124343D01*
Y54679D01*
X124603D01*
Y54809D01*
X124993D01*
Y54939D01*
X125122D01*
Y55458D01*
X125252D01*
Y55588D01*
X125122D01*
Y55718D01*
X125252D01*
Y56887D01*
X125122D01*
Y57016D01*
X125252D01*
Y58185D01*
X125122D01*
Y58315D01*
X125252D01*
Y58445D01*
X125122D01*
Y63249D01*
X124993D01*
Y63898D01*
X124863D01*
Y64288D01*
X124733D01*
Y64678D01*
X124603D01*
Y65716D01*
X124473D01*
Y66106D01*
X124343D01*
Y66755D01*
X124213D01*
Y67664D01*
X124084D01*
Y68054D01*
X123954D01*
Y68313D01*
X123824D01*
Y68573D01*
X123694D01*
Y68833D01*
X123564D01*
Y69093D01*
X123434D01*
Y69352D01*
X123304D01*
Y69742D01*
X123175D01*
Y70131D01*
X123045D01*
Y70391D01*
X122915D01*
Y70521D01*
X122785D01*
Y70781D01*
X122525D01*
Y70911D01*
X122396D01*
Y71040D01*
X122266D01*
Y71170D01*
X122136D01*
Y71300D01*
X121876D01*
Y71430D01*
X121746D01*
Y71560D01*
X121616D01*
Y71690D01*
D02*
G37*
G36*
X113436Y67405D02*
X110190D01*
Y67275D01*
X109930D01*
Y67145D01*
X109410D01*
Y67015D01*
X109021D01*
Y66885D01*
X108372D01*
Y66755D01*
X107982D01*
Y66625D01*
X107722D01*
Y66496D01*
X107463D01*
Y66366D01*
X107203D01*
Y66236D01*
X106943D01*
Y66106D01*
X106813D01*
Y65976D01*
X106554D01*
Y65846D01*
X106424D01*
Y65716D01*
X106294D01*
Y65587D01*
X106164D01*
Y65457D01*
X106034D01*
Y65327D01*
X105904D01*
Y65197D01*
X105775D01*
Y65067D01*
X105645D01*
Y64807D01*
X105515D01*
Y64678D01*
X105385D01*
Y64548D01*
X105255D01*
Y64158D01*
X105125D01*
Y63898D01*
X104996D01*
Y62340D01*
X105125D01*
Y61821D01*
X105255D01*
Y61561D01*
X105385D01*
Y61431D01*
X105515D01*
Y61172D01*
X105645D01*
Y61042D01*
X105775D01*
Y60912D01*
X106034D01*
Y60652D01*
X106294D01*
Y60522D01*
X106424D01*
Y60263D01*
X106684D01*
Y60133D01*
X106943D01*
Y60003D01*
X107203D01*
Y59873D01*
X107592D01*
Y59743D01*
X107852D01*
Y59613D01*
X108112D01*
Y59484D01*
X108631D01*
Y59354D01*
X109021D01*
Y59224D01*
X109540D01*
Y59094D01*
X109930D01*
Y58964D01*
X110579D01*
Y58834D01*
X111228D01*
Y58705D01*
X113436D01*
Y58834D01*
X114215D01*
Y58964D01*
X114734D01*
Y59094D01*
X115254D01*
Y59224D01*
X115513D01*
Y59354D01*
X115773D01*
Y59484D01*
X116033D01*
Y59613D01*
X116163D01*
Y59743D01*
X116293D01*
Y59873D01*
X116552D01*
Y60003D01*
X116682D01*
Y60133D01*
X116812D01*
Y60263D01*
X117072D01*
Y60392D01*
X117201D01*
Y60522D01*
X117331D01*
Y60652D01*
X117461D01*
Y60782D01*
X117591D01*
Y60912D01*
X117721D01*
Y61042D01*
X117851D01*
Y61172D01*
X117981D01*
Y61431D01*
X118110D01*
Y61821D01*
X118240D01*
Y62470D01*
Y62600D01*
Y62860D01*
X118370D01*
Y63898D01*
X118500D01*
Y64678D01*
X118370D01*
Y65197D01*
X118240D01*
Y65457D01*
X118110D01*
Y65716D01*
X117981D01*
Y65976D01*
X117851D01*
Y66106D01*
X117721D01*
Y66236D01*
X117591D01*
Y66366D01*
X117461D01*
Y66496D01*
X117331D01*
Y66625D01*
X116942D01*
Y66755D01*
X116163D01*
Y66885D01*
X115384D01*
Y67015D01*
X114734D01*
Y67145D01*
X113955D01*
Y67275D01*
X113436D01*
Y67405D01*
D02*
G37*
G36*
X127330Y62340D02*
X127070D01*
Y62211D01*
X126940D01*
Y60263D01*
X127070D01*
Y57925D01*
X127200D01*
Y56887D01*
Y56757D01*
Y55328D01*
X127330D01*
Y55199D01*
X127849D01*
Y55328D01*
X127979D01*
Y55458D01*
X128239D01*
Y55328D01*
X128369D01*
Y55458D01*
X128498D01*
Y55328D01*
X129537D01*
Y55199D01*
X130316D01*
Y55069D01*
X130576D01*
Y55199D01*
X130706D01*
Y55588D01*
X130576D01*
Y55848D01*
X130706D01*
Y55978D01*
X130576D01*
Y58185D01*
X130446D01*
Y59224D01*
X130316D01*
Y59873D01*
X130187D01*
Y60782D01*
X130057D01*
Y61431D01*
X129927D01*
Y61691D01*
X129667D01*
Y61821D01*
X129537D01*
Y62081D01*
X129148D01*
Y62211D01*
X127330D01*
Y62340D01*
D02*
G37*
G36*
X127070Y52601D02*
X126421D01*
Y52472D01*
X126551D01*
Y52212D01*
X126681D01*
Y51822D01*
X126810D01*
Y51692D01*
X126681D01*
Y50913D01*
X126551D01*
Y50784D01*
X126421D01*
Y51043D01*
X126551D01*
Y52082D01*
X126421D01*
Y52342D01*
X126291D01*
Y52472D01*
X126161D01*
Y52601D01*
X124084D01*
Y52472D01*
X123694D01*
Y52342D01*
X123434D01*
Y52212D01*
X123175D01*
Y52082D01*
X123045D01*
Y51952D01*
X122785D01*
Y51822D01*
X122655D01*
Y51692D01*
X122525D01*
Y51563D01*
X122396D01*
Y51433D01*
X122266D01*
Y50784D01*
X122396D01*
Y50524D01*
X122525D01*
Y50394D01*
X122655D01*
Y50264D01*
X124084D01*
Y50134D01*
X124213D01*
Y50264D01*
X124733D01*
Y50134D01*
X125772D01*
Y50264D01*
X126031D01*
Y50524D01*
X126161D01*
Y50654D01*
X126291D01*
Y50784D01*
X126421D01*
Y50524D01*
X126291D01*
Y50394D01*
X126161D01*
Y50134D01*
X125901D01*
Y50005D01*
X123304D01*
Y50134D01*
X122525D01*
Y50264D01*
X122396D01*
Y50394D01*
X122266D01*
Y50654D01*
X122136D01*
Y51043D01*
X122006D01*
Y51303D01*
X121876D01*
Y50524D01*
X121746D01*
Y50264D01*
X121616D01*
Y49615D01*
X121487D01*
Y48187D01*
X121616D01*
Y47797D01*
X121746D01*
Y47667D01*
X121876D01*
Y47278D01*
X122006D01*
Y47018D01*
X122136D01*
Y46888D01*
X122266D01*
Y46758D01*
X122396D01*
Y46628D01*
X122525D01*
Y46499D01*
X122785D01*
Y46369D01*
X123045D01*
Y46239D01*
X123175D01*
Y46109D01*
X123694D01*
Y45979D01*
X123954D01*
Y45849D01*
X124343D01*
Y45719D01*
X126810D01*
Y45849D01*
X127200D01*
Y45979D01*
X127460D01*
Y46109D01*
X127590D01*
Y46239D01*
X127719D01*
Y46369D01*
X127849D01*
Y46499D01*
X128239D01*
Y46628D01*
X128369D01*
Y47537D01*
X128498D01*
Y47667D01*
X128628D01*
Y47797D01*
X128758D01*
Y48057D01*
X128628D01*
Y48446D01*
X128758D01*
Y48576D01*
X128628D01*
Y48706D01*
X128758D01*
Y48836D01*
X128628D01*
Y49225D01*
X128758D01*
Y50524D01*
X128628D01*
Y50654D01*
X128498D01*
Y51173D01*
X128369D01*
Y51303D01*
X128239D01*
Y51433D01*
X128109D01*
Y51692D01*
X127979D01*
Y51952D01*
X127849D01*
Y52082D01*
X127719D01*
Y52212D01*
X127460D01*
Y52342D01*
X127330D01*
Y52472D01*
X127070D01*
Y52601D01*
D02*
G37*
G36*
X128758Y53900D02*
X128628D01*
Y53770D01*
X128369D01*
Y53381D01*
X128498D01*
Y53251D01*
X128758D01*
Y53121D01*
X128888D01*
Y52991D01*
X129018D01*
Y52861D01*
X129148D01*
Y52601D01*
X129278D01*
Y52472D01*
X129408D01*
Y52212D01*
X129537D01*
Y51952D01*
X129667D01*
Y51692D01*
X129797D01*
Y51433D01*
X129927D01*
Y51173D01*
X130057D01*
Y50784D01*
X130187D01*
Y50524D01*
X130316D01*
Y49875D01*
X130446D01*
Y49355D01*
X130576D01*
Y47537D01*
X130446D01*
Y47148D01*
X130316D01*
Y46628D01*
X130187D01*
Y46369D01*
X130057D01*
Y46109D01*
X129927D01*
Y45849D01*
X129797D01*
Y45719D01*
X129667D01*
Y45590D01*
X129537D01*
Y45330D01*
X129278D01*
Y45200D01*
X129148D01*
Y44940D01*
X128888D01*
Y44810D01*
X128758D01*
Y44551D01*
X128498D01*
Y44421D01*
X128369D01*
Y44291D01*
X128239D01*
Y44161D01*
X128109D01*
Y44031D01*
X127849D01*
Y43902D01*
X127590D01*
Y43772D01*
X127070D01*
Y43642D01*
X124603D01*
Y43772D01*
X123175D01*
Y43122D01*
X123045D01*
Y40525D01*
X123175D01*
Y39357D01*
X123304D01*
Y37409D01*
X123434D01*
Y36890D01*
X123564D01*
Y36760D01*
X123694D01*
Y36630D01*
X123954D01*
Y36500D01*
X124733D01*
Y36630D01*
X124863D01*
Y36760D01*
X124993D01*
Y36890D01*
X125122D01*
Y37019D01*
X125252D01*
Y37279D01*
X125382D01*
Y37409D01*
X125252D01*
Y37539D01*
X125382D01*
Y39487D01*
X125252D01*
Y40136D01*
X125382D01*
Y40396D01*
X125512D01*
Y40525D01*
X125642D01*
Y40396D01*
X127590D01*
Y40525D01*
X127979D01*
Y40655D01*
X128888D01*
Y40525D01*
X129148D01*
Y37928D01*
X129018D01*
Y37669D01*
X129148D01*
Y36890D01*
X129408D01*
Y36760D01*
X129537D01*
Y36630D01*
X129667D01*
Y36500D01*
X130057D01*
Y36370D01*
X131355D01*
Y36500D01*
X131745D01*
Y36630D01*
X131875D01*
Y36890D01*
X132004D01*
Y37669D01*
X132134D01*
Y41175D01*
X132004D01*
Y41304D01*
X132134D01*
Y42084D01*
X132004D01*
Y44810D01*
X131875D01*
Y46758D01*
X132004D01*
Y47407D01*
X131875D01*
Y49225D01*
X131745D01*
Y50134D01*
X131615D01*
Y50654D01*
X131485D01*
Y51043D01*
X131355D01*
Y51433D01*
X131225D01*
Y51692D01*
X131096D01*
Y52082D01*
X130966D01*
Y52212D01*
X130836D01*
Y52472D01*
X130706D01*
Y52731D01*
X130576D01*
Y52861D01*
X130446D01*
Y52991D01*
X130316D01*
Y53121D01*
X130187D01*
Y53251D01*
X129927D01*
Y53381D01*
X129797D01*
Y53510D01*
X129537D01*
Y53640D01*
X129278D01*
Y53770D01*
X128758D01*
Y53900D01*
D02*
G37*
G36*
X134082Y48576D02*
X133433D01*
Y45590D01*
X133563D01*
Y42603D01*
X133693D01*
Y40396D01*
X133822D01*
Y40266D01*
X133952D01*
Y40136D01*
X134212D01*
Y40266D01*
X134601D01*
Y40396D01*
X134861D01*
Y40525D01*
X134991D01*
Y40655D01*
X135121D01*
Y40785D01*
X135251D01*
Y41045D01*
X135381D01*
Y41434D01*
X135510D01*
Y44161D01*
X135381D01*
Y45200D01*
X135251D01*
Y46109D01*
X135121D01*
Y46499D01*
X134991D01*
Y47148D01*
X134861D01*
Y47278D01*
Y47407D01*
X134731D01*
Y47667D01*
X134601D01*
Y47927D01*
X134472D01*
Y48057D01*
X134342D01*
Y48316D01*
X134212D01*
Y48446D01*
X134082D01*
Y48576D01*
D02*
G37*
%LPD*%
G36*
X112527Y67015D02*
X113046D01*
Y66885D01*
X113306D01*
Y66755D01*
X113436D01*
Y66625D01*
X113566D01*
Y66496D01*
X113696D01*
Y66366D01*
X113825D01*
Y66236D01*
X113955D01*
Y66106D01*
X114085D01*
Y65067D01*
X113955D01*
Y64807D01*
X113825D01*
Y64678D01*
X113696D01*
Y64548D01*
X113566D01*
Y64418D01*
X113306D01*
Y64548D01*
X113436D01*
Y64678D01*
X113566D01*
Y64807D01*
X113696D01*
Y64937D01*
X113825D01*
Y65197D01*
X113955D01*
Y65976D01*
X113825D01*
Y66236D01*
X113566D01*
Y66366D01*
X113436D01*
Y66496D01*
Y66625D01*
X113176D01*
Y66755D01*
X112916D01*
Y66885D01*
X110319D01*
Y66755D01*
X109800D01*
Y66625D01*
X109410D01*
Y66496D01*
X108891D01*
Y66625D01*
X109281D01*
Y66755D01*
X109670D01*
Y66885D01*
X110190D01*
Y67015D01*
X110839D01*
Y67145D01*
X110969D01*
Y67015D01*
X111099D01*
Y67145D01*
X111228D01*
Y67015D01*
X111488D01*
Y67145D01*
X111748D01*
Y67015D01*
X111878D01*
Y67145D01*
X112137D01*
Y67015D01*
X112397D01*
Y67145D01*
X112527D01*
Y67015D01*
D02*
G37*
G36*
X108891Y66366D02*
X108372D01*
Y66236D01*
X107982D01*
Y66106D01*
X107722D01*
Y65976D01*
X107463D01*
Y65846D01*
X107203D01*
Y65716D01*
X107073D01*
Y65587D01*
X106943D01*
Y65457D01*
X106813D01*
Y65327D01*
X106684D01*
Y65587D01*
X106813D01*
Y65716D01*
X106943D01*
Y65846D01*
X107073D01*
Y65976D01*
X107333D01*
Y66106D01*
X107592D01*
Y66236D01*
X107852D01*
Y66366D01*
X108242D01*
Y66496D01*
X108891D01*
Y66366D01*
D02*
G37*
G36*
X113306Y64288D02*
X113176D01*
Y64158D01*
X112657D01*
Y64288D01*
X113046D01*
Y64418D01*
X113306D01*
Y64288D01*
D02*
G37*
G36*
X106684Y65197D02*
X106554D01*
Y65067D01*
X106424D01*
Y64678D01*
X106554D01*
Y64548D01*
Y64418D01*
X106684D01*
Y64288D01*
X106813D01*
Y64158D01*
X107203D01*
Y64028D01*
X111878D01*
Y64158D01*
X112657D01*
Y64028D01*
X112137D01*
Y63898D01*
X107073D01*
Y64028D01*
X106813D01*
Y64158D01*
X106554D01*
Y64418D01*
X106424D01*
Y64678D01*
X106294D01*
Y64807D01*
Y64937D01*
Y65197D01*
X106424D01*
Y65327D01*
X106684D01*
Y65197D01*
D02*
G37*
D10*
X188842Y89000D02*
G03*
X188842Y89000I-9843J0D01*
G01*
X151842D02*
G03*
X151842Y89000I-9843J0D01*
G01*
X71342Y122500D02*
G03*
X71342Y122500I-9843J0D01*
G01*
X147400Y71398D02*
Y65400D01*
X151399D01*
X153398Y70398D02*
X154398Y71398D01*
X156397D01*
X157397Y70398D01*
Y69399D01*
X156397Y68399D01*
X155397D01*
X156397D01*
X157397Y67399D01*
Y66400D01*
X156397Y65400D01*
X154398D01*
X153398Y66400D01*
X26499Y10500D02*
X22500Y14499D01*
X30497Y10500D02*
X28498Y12499D01*
Y14499D01*
X30497Y16498D01*
X33496Y13499D02*
X37495D01*
X39494Y14499D02*
X41494Y10500D01*
X43493Y14499D01*
X45493Y13499D02*
X49491D01*
X51491Y10500D02*
X53490Y12499D01*
Y14499D01*
X51491Y16498D01*
X56489Y10500D02*
X60488Y14499D01*
X24499Y30000D02*
Y29000D01*
X23499D01*
Y30000D01*
X24499D01*
X21500D02*
Y29000D01*
X20500D01*
Y30000D01*
X21500D01*
X20500Y25002D02*
X22499Y23002D01*
X24499D01*
X26498Y25002D01*
X31999Y23500D02*
X30000Y25499D01*
Y27499D01*
X31999Y29498D01*
X34998Y25499D02*
X38997D01*
X34998Y27499D02*
X38997D01*
X40996Y29498D02*
X44995D01*
X42996D01*
Y23500D01*
X46995Y29498D02*
X48994D01*
X47994D01*
Y23500D01*
X46995D01*
X48994D01*
X51993Y29498D02*
X55992D01*
X53992D01*
Y23500D01*
X57991Y25499D02*
X61990D01*
X57991Y27499D02*
X61990D01*
X63989Y23500D02*
X65988Y25499D01*
Y27499D01*
X63989Y29498D01*
X199999Y32498D02*
X198999Y33498D01*
X197000D01*
X196000Y32498D01*
Y28500D01*
X197000Y27500D01*
X198999D01*
X199999Y28500D01*
Y30499D01*
X197999D01*
X201998Y27500D02*
Y33498D01*
X205997Y27500D01*
Y33498D01*
X207996D02*
Y27500D01*
X210995D01*
X211995Y28500D01*
Y32498D01*
X210995Y33498D01*
X207996D01*
X235600Y138400D02*
Y144398D01*
X238599D01*
X239599Y143398D01*
Y141399D01*
X238599Y140399D01*
X235600D01*
X241598Y143398D02*
X242598Y144398D01*
X244597D01*
X245597Y143398D01*
Y142399D01*
X244597Y141399D01*
X243597D01*
X244597D01*
X245597Y140399D01*
Y139400D01*
X244597Y138400D01*
X242598D01*
X241598Y139400D01*
X105600Y18400D02*
Y24398D01*
X108599D01*
X109599Y23398D01*
Y21399D01*
X108599Y20399D01*
X105600D01*
X115597Y18400D02*
X111598D01*
X115597Y22399D01*
Y23398D01*
X114597Y24398D01*
X112598D01*
X111598Y23398D01*
X5600Y138400D02*
Y144398D01*
X8599D01*
X9599Y143398D01*
Y141399D01*
X8599Y140399D01*
X5600D01*
X11598Y138400D02*
X13597D01*
X12598D01*
Y144398D01*
X11598Y143398D01*
X79100Y115098D02*
Y109100D01*
X83099D01*
X89097D02*
X85098D01*
X89097Y113099D01*
Y114098D01*
X88097Y115098D01*
X86098D01*
X85098Y114098D01*
X85900Y144898D02*
Y138900D01*
X89899D01*
X91898D02*
X93897D01*
X92898D01*
Y144898D01*
X91898Y143898D01*
X38502Y76499D02*
Y70501D01*
X41501D01*
X42500Y71501D01*
Y75499D01*
X41501Y76499D01*
X38502D01*
X48498Y70501D02*
X44500D01*
X48498Y74500D01*
Y75499D01*
X47499Y76499D01*
X45499D01*
X44500Y75499D01*
X13501Y76999D02*
Y71001D01*
X16500D01*
X17500Y72001D01*
Y75999D01*
X16500Y76999D01*
X13501D01*
X19499Y71001D02*
X21499D01*
X20499D01*
Y76999D01*
X19499Y75999D01*
X136699Y107298D02*
X135699Y108298D01*
X133700D01*
X132700Y107298D01*
Y103300D01*
X133700Y102300D01*
X135699D01*
X136699Y103300D01*
X138698Y107298D02*
X139698Y108298D01*
X141697D01*
X142697Y107298D01*
Y106299D01*
X141697Y105299D01*
X140697D01*
X141697D01*
X142697Y104299D01*
Y103300D01*
X141697Y102300D01*
X139698D01*
X138698Y103300D01*
X56199Y140798D02*
X55199Y141798D01*
X53200D01*
X52200Y140798D01*
Y136800D01*
X53200Y135800D01*
X55199D01*
X56199Y136800D01*
X62197Y135800D02*
X58198D01*
X62197Y139799D01*
Y140798D01*
X61197Y141798D01*
X59198D01*
X58198Y140798D01*
X173699Y107298D02*
X172699Y108298D01*
X170700D01*
X169700Y107298D01*
Y103300D01*
X170700Y102300D01*
X172699D01*
X173699Y103300D01*
X175698Y102300D02*
X177697D01*
X176698D01*
Y108298D01*
X175698Y107298D01*
D11*
X165000Y62000D02*
X225000D01*
Y42000D02*
Y62000D01*
X165000Y42000D02*
X225000D01*
X165000D02*
Y62000D01*
X157500Y52000D02*
X165000D01*
X225000D02*
X232500D01*
X51551Y82776D02*
X62575D01*
Y61910D02*
Y82776D01*
X51551Y61910D02*
Y82776D01*
X25488Y61567D02*
X36512D01*
X25488D02*
Y82433D01*
X36512Y61567D02*
Y82433D01*
X163500Y125500D02*
X171000D01*
X96000D02*
X103500D01*
Y115500D02*
Y135500D01*
Y115500D02*
X163500D01*
Y135500D01*
X103500D02*
X163500D01*
X88500Y87500D02*
Y95000D01*
Y20000D02*
Y27500D01*
X78500D02*
X98500D01*
Y87500D01*
X78500D02*
X98500D01*
X78500Y27500D02*
Y87500D01*
X235000Y95000D02*
X245000D01*
X235000D02*
Y135000D01*
X245000Y95000D02*
Y135000D01*
X235000D02*
X245000D01*
X5000Y95000D02*
X15000D01*
X5000D02*
Y135000D01*
X15000Y95000D02*
Y135000D01*
X5000D02*
X15000D01*
X145000Y5000D02*
Y15000D01*
X105000Y5000D02*
X145000D01*
X105000Y15000D02*
X145000D01*
X105000Y5000D02*
Y15000D01*
D12*
X57060Y63096D02*
D03*
X31005Y81252D02*
D03*
M02*
