M48
;Layer_Color=9474304
;FILE_FORMAT=2:5
INCH,LZ
;TYPE=PLATED
T1F00S00C0.02800
T2F00S00C0.03346
T3F00S00C0.03543
T4F00S00C0.03937
T5F00S00C0.04724
%
T01
X0238Y0009
X02375Y0042
X0175Y0041
X01755Y00105
T02
X0142Y0084
Y0094
X0179
Y0084
X00665Y01225
X00565
T03
X024Y01
Y011
X014Y001
X013
X012
X011
X001Y01
Y011
Y012
Y013
X024
Y012
T04
X024Y0052
X015
X00885Y00125
Y01025
Y01255
X01785
T05
X0057063Y0051753
Y0092934
X0031Y009259
Y005141
M30
