G04*
G04 #@! TF.GenerationSoftware,Altium Limited,Altium Designer,22.2.1 (43)*
G04*
G04 Layer_Color=16711935*
%FSLAX25Y25*%
%MOIN*%
G70*
G04*
G04 #@! TF.SameCoordinates,22AEFC0F-6C44-4056-8772-BC97FD4EFD78*
G04*
G04*
G04 #@! TF.FilePolarity,Negative*
G04*
G01*
G75*
%ADD18R,0.05131X0.07493*%
%ADD21C,0.06737*%
%ADD22R,0.06737X0.06737*%
%ADD23C,0.06312*%
%ADD24R,0.06706X0.06706*%
%ADD25C,0.06706*%
%ADD26R,0.06706X0.06706*%
%ADD27R,0.06800X0.06800*%
%ADD28C,0.06800*%
%ADD29O,0.08674X0.04737*%
%ADD30O,0.08674X0.04737*%
%ADD31C,0.05800*%
D18*
X223132Y117998D02*
D03*
X212502D02*
D03*
X176815Y104000D02*
D03*
X166185D02*
D03*
D21*
X190500Y87500D02*
D03*
Y77500D02*
D03*
Y67500D02*
D03*
Y57500D02*
D03*
X160500D02*
D03*
Y67500D02*
D03*
Y77500D02*
D03*
D22*
Y87500D02*
D03*
D23*
X137000Y90000D02*
D03*
X127000D02*
D03*
X36000Y35500D02*
D03*
Y25500D02*
D03*
X49000Y58000D02*
D03*
X39000D02*
D03*
X227000Y88500D02*
D03*
Y78500D02*
D03*
X176500Y12500D02*
D03*
X166500D02*
D03*
X119500Y55000D02*
D03*
Y65000D02*
D03*
X87000Y32000D02*
D03*
X97000D02*
D03*
X133000Y68500D02*
D03*
X143000D02*
D03*
X124500Y121000D02*
D03*
Y131000D02*
D03*
X143500Y115500D02*
D03*
Y105500D02*
D03*
X108500D02*
D03*
X98500D02*
D03*
X166500Y131500D02*
D03*
X176500D02*
D03*
X223000Y15000D02*
D03*
X213000D02*
D03*
X72500Y42500D02*
D03*
X62500D02*
D03*
X235500Y49500D02*
D03*
Y39500D02*
D03*
X213500Y131500D02*
D03*
X203500D02*
D03*
X221000Y56000D02*
D03*
X211000D02*
D03*
X191000Y22500D02*
D03*
Y12500D02*
D03*
X138000Y36000D02*
D03*
X128000D02*
D03*
X43500Y99000D02*
D03*
Y109000D02*
D03*
X62000Y18000D02*
D03*
X52000D02*
D03*
X79000Y105000D02*
D03*
X69000D02*
D03*
D24*
X78000Y14500D02*
D03*
X140000Y10000D02*
D03*
X91000Y134000D02*
D03*
X25500Y6000D02*
D03*
X49000Y133500D02*
D03*
D25*
X88000Y14500D02*
D03*
X240000Y130000D02*
D03*
Y120000D02*
D03*
Y110000D02*
D03*
X10000Y130000D02*
D03*
Y120000D02*
D03*
Y110000D02*
D03*
X110000Y10000D02*
D03*
X120000D02*
D03*
X130000D02*
D03*
X81000Y134000D02*
D03*
X35500Y6000D02*
D03*
X59000Y133500D02*
D03*
D26*
X240000Y100000D02*
D03*
X10000D02*
D03*
D27*
X40500Y81500D02*
D03*
D28*
Y71500D02*
D03*
X30500Y81500D02*
D03*
Y71500D02*
D03*
X20500Y81500D02*
D03*
Y71500D02*
D03*
D29*
X8000Y47500D02*
D03*
D30*
Y42500D02*
D03*
Y37500D02*
D03*
D31*
X213000Y102000D02*
D03*
X65000Y144000D02*
D03*
X245000Y4500D02*
D03*
X226500Y143500D02*
D03*
X148500D02*
D03*
X20500Y106000D02*
D03*
Y117500D02*
D03*
Y128000D02*
D03*
X32000Y141500D02*
D03*
X20500D02*
D03*
X6000Y71500D02*
D03*
X6500Y82500D02*
D03*
X5500Y17000D02*
D03*
X5000Y27500D02*
D03*
X5500Y4500D02*
D03*
X154000Y6000D02*
D03*
X167000Y29000D02*
D03*
X175500Y36500D02*
D03*
X171000Y57000D02*
D03*
Y65500D02*
D03*
X67500Y73000D02*
D03*
X95500Y73500D02*
D03*
X149500Y129000D02*
D03*
X107000Y56500D02*
D03*
X79000Y35000D02*
D03*
X56000Y63500D02*
D03*
M02*
