G04*
G04 #@! TF.GenerationSoftware,Altium Limited,Altium Designer,22.2.1 (43)*
G04*
G04 Layer_Color=65535*
%FSLAX25Y25*%
%MOIN*%
G70*
G04*
G04 #@! TF.SameCoordinates,22AEFC0F-6C44-4056-8772-BC97FD4EFD78*
G04*
G04*
G04 #@! TF.FilePolarity,Positive*
G04*
G01*
G75*
%ADD10C,0.00800*%
%ADD11C,0.01000*%
%ADD12C,0.00787*%
%ADD13C,0.00500*%
%ADD14C,0.00591*%
D10*
X153453Y88445D02*
G03*
X153453Y88445I-787J0D01*
G01*
D11*
X131243Y90000D02*
G03*
X131243Y90000I-4243J0D01*
G01*
X133021D02*
G03*
X133021Y90000I-6021J0D01*
G01*
X40243Y25500D02*
G03*
X40243Y25500I-4243J0D01*
G01*
X42021D02*
G03*
X42021Y25500I-6021J0D01*
G01*
X43243Y58000D02*
G03*
X43243Y58000I-4243J0D01*
G01*
X45021D02*
G03*
X45021Y58000I-6021J0D01*
G01*
X231243Y78500D02*
G03*
X231243Y78500I-4243J0D01*
G01*
X233021D02*
G03*
X233021Y78500I-6021J0D01*
G01*
X181342Y12500D02*
G03*
X181342Y12500I-9843J0D01*
G01*
X123743Y65000D02*
G03*
X123743Y65000I-4243J0D01*
G01*
X125521D02*
G03*
X125521Y65000I-6021J0D01*
G01*
X101842Y32000D02*
G03*
X101842Y32000I-9843J0D01*
G01*
X147243Y68500D02*
G03*
X147243Y68500I-4243J0D01*
G01*
X149021D02*
G03*
X149021Y68500I-6021J0D01*
G01*
X128743Y131000D02*
G03*
X128743Y131000I-4243J0D01*
G01*
X130521D02*
G03*
X130521Y131000I-6021J0D01*
G01*
X147743Y105500D02*
G03*
X147743Y105500I-4243J0D01*
G01*
X149521D02*
G03*
X149521Y105500I-6021J0D01*
G01*
X102743D02*
G03*
X102743Y105500I-4243J0D01*
G01*
X104521D02*
G03*
X104521Y105500I-6021J0D01*
G01*
X180743Y131500D02*
G03*
X180743Y131500I-4243J0D01*
G01*
X182521D02*
G03*
X182521Y131500I-6021J0D01*
G01*
X227842Y15000D02*
G03*
X227842Y15000I-9843J0D01*
G01*
X66743Y42500D02*
G03*
X66743Y42500I-4243J0D01*
G01*
X68521D02*
G03*
X68521Y42500I-6021J0D01*
G01*
X239743Y39500D02*
G03*
X239743Y39500I-4243J0D01*
G01*
X241521D02*
G03*
X241521Y39500I-6021J0D01*
G01*
X207743Y131500D02*
G03*
X207743Y131500I-4243J0D01*
G01*
X209521D02*
G03*
X209521Y131500I-6021J0D01*
G01*
X215243Y56000D02*
G03*
X215243Y56000I-4243J0D01*
G01*
X217021D02*
G03*
X217021Y56000I-6021J0D01*
G01*
X195243Y12500D02*
G03*
X195243Y12500I-4243J0D01*
G01*
X197021D02*
G03*
X197021Y12500I-6021J0D01*
G01*
X132243Y36000D02*
G03*
X132243Y36000I-4243J0D01*
G01*
X134021D02*
G03*
X134021Y36000I-6021J0D01*
G01*
X53342Y104000D02*
G03*
X53342Y104000I-9843J0D01*
G01*
X66843Y18000D02*
G03*
X66843Y18000I-9843J0D01*
G01*
X83842Y105000D02*
G03*
X83842Y105000I-9843J0D01*
G01*
X74500Y2000D02*
Y7998D01*
X76499Y5999D01*
X78499Y7998D01*
Y2000D01*
X83497D02*
X81498D01*
X80498Y3000D01*
Y4999D01*
X81498Y5999D01*
X83497D01*
X84497Y4999D01*
Y3999D01*
X80498D01*
X86496Y5999D02*
Y2000D01*
Y3999D01*
X87496Y4999D01*
X88495Y5999D01*
X89495D01*
X92494Y6998D02*
X93494Y7998D01*
X95493D01*
X96493Y8998D01*
X14700Y93898D02*
X18699D01*
X16699D01*
Y87900D01*
X20698D02*
X22697D01*
X21698D01*
Y93898D01*
X20698Y92898D01*
X12003Y60001D02*
Y65999D01*
X15002D01*
X16002Y64999D01*
Y63000D01*
X15002Y62000D01*
X12003D01*
X14003D02*
X16002Y60001D01*
X18001Y64000D02*
X22000Y60001D01*
X20001Y62000D01*
X22000Y64000D01*
X18001Y60001D01*
X24000D02*
X25999D01*
X24999D01*
Y65999D01*
X24000Y64999D01*
X32997Y65999D02*
X30997Y64999D01*
X28998Y63000D01*
Y61001D01*
X29998Y60001D01*
X31997D01*
X32997Y61001D01*
Y62000D01*
X31997Y63000D01*
X28998D01*
X25503Y42001D02*
Y47999D01*
X28502D01*
X29502Y46999D01*
Y45000D01*
X28502Y44000D01*
X25503D01*
X27503D02*
X29502Y42001D01*
X31501Y46000D02*
X35500Y42001D01*
X33501Y44000D01*
X35500Y46000D01*
X31501Y42001D01*
X37499D02*
X39499D01*
X38499D01*
Y47999D01*
X37499Y46999D01*
X46497Y47999D02*
X42498D01*
Y45000D01*
X44497Y46000D01*
X45497D01*
X46497Y45000D01*
Y43001D01*
X45497Y42001D01*
X43498D01*
X42498Y43001D01*
X122500Y45500D02*
Y51498D01*
X125499D01*
X126499Y50498D01*
Y48499D01*
X125499Y47499D01*
X122500D01*
X124499D02*
X126499Y45500D01*
X128498Y49499D02*
X132497Y45500D01*
X130497Y47499D01*
X132497Y49499D01*
X128498Y45500D01*
X134496D02*
X136495D01*
X135496D01*
Y51498D01*
X134496Y50498D01*
X142493Y45500D02*
Y51498D01*
X139495Y48499D01*
X143493D01*
X113503Y98501D02*
Y104499D01*
X116502D01*
X117502Y103499D01*
Y101500D01*
X116502Y100500D01*
X113503D01*
X115503D02*
X117502Y98501D01*
X119501Y102500D02*
X123500Y98501D01*
X121501Y100500D01*
X123500Y102500D01*
X119501Y98501D01*
X125499D02*
X127499D01*
X126499D01*
Y104499D01*
X125499Y103499D01*
X130498D02*
X131498Y104499D01*
X133497D01*
X134497Y103499D01*
Y102500D01*
X133497Y101500D01*
X132497D01*
X133497D01*
X134497Y100500D01*
Y99501D01*
X133497Y98501D01*
X131498D01*
X130498Y99501D01*
X185500Y28700D02*
Y34698D01*
X188499D01*
X189499Y33698D01*
Y31699D01*
X188499Y30699D01*
X185500D01*
X187499D02*
X189499Y28700D01*
X191498Y32699D02*
X195497Y28700D01*
X193497Y30699D01*
X195497Y32699D01*
X191498Y28700D01*
X197496D02*
X199495D01*
X198496D01*
Y34698D01*
X197496Y33698D01*
X206493Y28700D02*
X202495D01*
X206493Y32699D01*
Y33698D01*
X205493Y34698D01*
X203494D01*
X202495Y33698D01*
X198000Y141000D02*
Y146998D01*
X200999D01*
X201999Y145998D01*
Y143999D01*
X200999Y142999D01*
X198000D01*
X199999D02*
X201999Y141000D01*
X203998Y144999D02*
X207997Y141000D01*
X205997Y142999D01*
X207997Y144999D01*
X203998Y141000D01*
X209996D02*
X211996D01*
X210996D01*
Y146998D01*
X209996Y145998D01*
X214995Y141000D02*
X216994D01*
X215994D01*
Y146998D01*
X214995Y145998D01*
X205500Y65500D02*
Y71498D01*
X208499D01*
X209499Y70498D01*
Y68499D01*
X208499Y67499D01*
X205500D01*
X207499D02*
X209499Y65500D01*
X211498Y69499D02*
X215497Y65500D01*
X213497Y67499D01*
X215497Y69499D01*
X211498Y65500D01*
X217496D02*
X219496D01*
X218496D01*
Y71498D01*
X217496Y70498D01*
X222495D02*
X223494Y71498D01*
X225494D01*
X226493Y70498D01*
Y66500D01*
X225494Y65500D01*
X223494D01*
X222495Y66500D01*
Y70498D01*
X230000Y55700D02*
Y61698D01*
X232999D01*
X233999Y60698D01*
Y58699D01*
X232999Y57699D01*
X230000D01*
X231999D02*
X233999Y55700D01*
X235998Y59699D02*
X239997Y55700D01*
X237997Y57699D01*
X239997Y59699D01*
X235998Y55700D01*
X241996Y56700D02*
X242996Y55700D01*
X244995D01*
X245995Y56700D01*
Y60698D01*
X244995Y61698D01*
X242996D01*
X241996Y60698D01*
Y59699D01*
X242996Y58699D01*
X245995D01*
X203503Y75501D02*
Y81499D01*
X206502D01*
X207501Y80499D01*
Y78500D01*
X206502Y77500D01*
X203503D01*
X205502D02*
X207501Y75501D01*
X209501Y79500D02*
X213499Y75501D01*
X211500Y77500D01*
X213499Y79500D01*
X209501Y75501D01*
X215499Y80499D02*
X216498Y81499D01*
X218498D01*
X219497Y80499D01*
Y79500D01*
X218498Y78500D01*
X219497Y77500D01*
Y76501D01*
X218498Y75501D01*
X216498D01*
X215499Y76501D01*
Y77500D01*
X216498Y78500D01*
X215499Y79500D01*
Y80499D01*
X216498Y78500D02*
X218498D01*
X57000Y52000D02*
Y57998D01*
X59999D01*
X60999Y56998D01*
Y54999D01*
X59999Y53999D01*
X57000D01*
X58999D02*
X60999Y52000D01*
X62998Y55999D02*
X66997Y52000D01*
X64997Y53999D01*
X66997Y55999D01*
X62998Y52000D01*
X68996Y57998D02*
X72995D01*
Y56998D01*
X68996Y53000D01*
Y52000D01*
X164300Y141000D02*
Y146998D01*
X167299D01*
X168299Y145998D01*
Y143999D01*
X167299Y142999D01*
X164300D01*
X166299D02*
X168299Y141000D01*
X170298Y144999D02*
X174297Y141000D01*
X172297Y142999D01*
X174297Y144999D01*
X170298Y141000D01*
X180295Y146998D02*
X178296Y145998D01*
X176296Y143999D01*
Y142000D01*
X177296Y141000D01*
X179295D01*
X180295Y142000D01*
Y142999D01*
X179295Y143999D01*
X176296D01*
X93000Y115000D02*
Y120998D01*
X95999D01*
X96999Y119998D01*
Y117999D01*
X95999Y116999D01*
X93000D01*
X94999D02*
X96999Y115000D01*
X98998Y118999D02*
X102997Y115000D01*
X100997Y116999D01*
X102997Y118999D01*
X98998Y115000D01*
X108995Y120998D02*
X104996D01*
Y117999D01*
X106995Y118999D01*
X107995D01*
X108995Y117999D01*
Y116000D01*
X107995Y115000D01*
X105996D01*
X104996Y116000D01*
X138000Y121700D02*
Y127698D01*
X140999D01*
X141999Y126698D01*
Y124699D01*
X140999Y123699D01*
X138000D01*
X139999D02*
X141999Y121700D01*
X143998Y125699D02*
X147997Y121700D01*
X145997Y123699D01*
X147997Y125699D01*
X143998Y121700D01*
X152995D02*
Y127698D01*
X149996Y124699D01*
X153995D01*
X116003Y72001D02*
Y77999D01*
X119002D01*
X120001Y76999D01*
Y75000D01*
X119002Y74000D01*
X116003D01*
X118002D02*
X120001Y72001D01*
X122001Y76000D02*
X125999Y72001D01*
X124000Y74000D01*
X125999Y76000D01*
X122001Y72001D01*
X127999Y76999D02*
X128998Y77999D01*
X130998D01*
X131997Y76999D01*
Y76000D01*
X130998Y75000D01*
X129998D01*
X130998D01*
X131997Y74000D01*
Y73001D01*
X130998Y72001D01*
X128998D01*
X127999Y73001D01*
X133503Y56501D02*
Y62499D01*
X136502D01*
X137501Y61499D01*
Y59500D01*
X136502Y58500D01*
X133503D01*
X135502D02*
X137501Y56501D01*
X139501Y60500D02*
X143499Y56501D01*
X141500Y58500D01*
X143499Y60500D01*
X139501Y56501D01*
X149497D02*
X145499D01*
X149497Y60500D01*
Y61499D01*
X148498Y62499D01*
X146498D01*
X145499Y61499D01*
X119000Y140500D02*
Y146498D01*
X121999D01*
X122999Y145498D01*
Y143499D01*
X121999Y142499D01*
X119000D01*
X120999D02*
X122999Y140500D01*
X124998Y144499D02*
X128997Y140500D01*
X126997Y142499D01*
X128997Y144499D01*
X124998Y140500D01*
X130996D02*
X132995D01*
X131996D01*
Y146498D01*
X130996Y145498D01*
X7099Y56400D02*
Y60398D01*
X6099Y61398D01*
X4100D01*
X3100Y60398D01*
Y56400D01*
X4100Y55400D01*
X6099D01*
X5099Y57399D02*
X7099Y55400D01*
X6099D02*
X7099Y56400D01*
X9098Y55400D02*
X11097D01*
X10098D01*
Y61398D01*
X9098Y60398D01*
X239599Y144398D02*
X237599D01*
X238599D01*
Y139400D01*
X237599Y138400D01*
X236600D01*
X235600Y139400D01*
X245597Y144398D02*
X243597Y143398D01*
X241598Y141399D01*
Y139400D01*
X242598Y138400D01*
X244597D01*
X245597Y139400D01*
Y140399D01*
X244597Y141399D01*
X241598D01*
X109599Y24398D02*
X107599D01*
X108599D01*
Y19400D01*
X107599Y18400D01*
X106600D01*
X105600Y19400D01*
X115597Y24398D02*
X111598D01*
Y21399D01*
X113597Y22399D01*
X114597D01*
X115597Y21399D01*
Y19400D01*
X114597Y18400D01*
X112598D01*
X111598Y19400D01*
X9599Y144398D02*
X7599D01*
X8599D01*
Y139400D01*
X7599Y138400D01*
X6600D01*
X5600Y139400D01*
X14597Y138400D02*
Y144398D01*
X11598Y141399D01*
X15597D01*
X54500Y95255D02*
X52501D01*
X53501D01*
Y90257D01*
X52501Y89257D01*
X51501D01*
X50502Y90257D01*
X56500Y94255D02*
X57499Y95255D01*
X59499D01*
X60498Y94255D01*
Y93256D01*
X59499Y92256D01*
X58499D01*
X59499D01*
X60498Y91256D01*
Y90257D01*
X59499Y89257D01*
X57499D01*
X56500Y90257D01*
X156499Y102598D02*
X154499D01*
X155499D01*
Y97600D01*
X154499Y96600D01*
X153500D01*
X152500Y97600D01*
X158498Y96600D02*
X160497D01*
X159498D01*
Y102598D01*
X158498Y101598D01*
X38199Y122298D02*
X37199Y123298D01*
X35200D01*
X34200Y122298D01*
Y118300D01*
X35200Y117300D01*
X37199D01*
X38199Y118300D01*
X40198Y117300D02*
X42197D01*
X41198D01*
Y123298D01*
X40198Y122298D01*
X45196D02*
X46196Y123298D01*
X48195D01*
X49195Y122298D01*
Y118300D01*
X48195Y117300D01*
X46196D01*
X45196Y118300D01*
Y122298D01*
X51699Y36298D02*
X50699Y37298D01*
X48700D01*
X47700Y36298D01*
Y32300D01*
X48700Y31300D01*
X50699D01*
X51699Y32300D01*
X53698D02*
X54698Y31300D01*
X56697D01*
X57697Y32300D01*
Y36298D01*
X56697Y37298D01*
X54698D01*
X53698Y36298D01*
Y35299D01*
X54698Y34299D01*
X57697D01*
X104500Y40999D02*
X103501Y41999D01*
X101501D01*
X100502Y40999D01*
Y37001D01*
X101501Y36001D01*
X103501D01*
X104500Y37001D01*
X106500Y40999D02*
X107499Y41999D01*
X109499D01*
X110498Y40999D01*
Y40000D01*
X109499Y39000D01*
X110498Y38000D01*
Y37001D01*
X109499Y36001D01*
X107499D01*
X106500Y37001D01*
Y38000D01*
X107499Y39000D01*
X106500Y40000D01*
Y40999D01*
X107499Y39000D02*
X109499D01*
X68699Y123298D02*
X67699Y124298D01*
X65700D01*
X64700Y123298D01*
Y119300D01*
X65700Y118300D01*
X67699D01*
X68699Y119300D01*
X70698Y124298D02*
X74697D01*
Y123298D01*
X70698Y119300D01*
Y118300D01*
X192599Y120098D02*
X191599Y121098D01*
X189600D01*
X188600Y120098D01*
Y116100D01*
X189600Y115100D01*
X191599D01*
X192599Y116100D01*
X198597Y121098D02*
X196597Y120098D01*
X194598Y118099D01*
Y116100D01*
X195598Y115100D01*
X197597D01*
X198597Y116100D01*
Y117099D01*
X197597Y118099D01*
X194598D01*
X83500Y49999D02*
X82501Y50999D01*
X80501D01*
X79502Y49999D01*
Y46001D01*
X80501Y45001D01*
X82501D01*
X83500Y46001D01*
X89498Y50999D02*
X85500D01*
Y48000D01*
X87499Y49000D01*
X88499D01*
X89498Y48000D01*
Y46001D01*
X88499Y45001D01*
X86499D01*
X85500Y46001D01*
X155500Y25999D02*
X154501Y26999D01*
X152501D01*
X151502Y25999D01*
Y22001D01*
X152501Y21001D01*
X154501D01*
X155500Y22001D01*
X160499Y21001D02*
Y26999D01*
X157500Y24000D01*
X161498D01*
X212699Y33298D02*
X211699Y34298D01*
X209700D01*
X208700Y33298D01*
Y29300D01*
X209700Y28300D01*
X211699D01*
X212699Y29300D01*
X218697Y28300D02*
X214698D01*
X218697Y32299D01*
Y33298D01*
X217697Y34298D01*
X215698D01*
X214698Y33298D01*
X68502Y20501D02*
X70501D01*
X69501D01*
Y26499D01*
X68502Y25499D01*
X73500Y21501D02*
X74499Y20501D01*
X76499D01*
X77499Y21501D01*
Y25499D01*
X76499Y26499D01*
X74499D01*
X73500Y25499D01*
Y24500D01*
X74499Y23500D01*
X77499D01*
X44600Y141900D02*
X46599D01*
X45600D01*
Y147898D01*
X44600Y146898D01*
X49598D02*
X50598Y147898D01*
X52597D01*
X53597Y146898D01*
Y145899D01*
X52597Y144899D01*
X53597Y143899D01*
Y142900D01*
X52597Y141900D01*
X50598D01*
X49598Y142900D01*
Y143899D01*
X50598Y144899D01*
X49598Y145899D01*
Y146898D01*
X50598Y144899D02*
X52597D01*
X21100Y14400D02*
X23099D01*
X22100D01*
Y20398D01*
X21100Y19398D01*
X26098Y20398D02*
X30097D01*
Y19398D01*
X26098Y15400D01*
Y14400D01*
X76600Y142400D02*
X78599D01*
X77600D01*
Y148398D01*
X76600Y147398D01*
X81598D02*
X82598Y148398D01*
X84597D01*
X85597Y147398D01*
Y143400D01*
X84597Y142400D01*
X82598D01*
X81598Y143400D01*
Y147398D01*
D12*
X102862Y89075D02*
G03*
X102862Y89075I-394J0D01*
G01*
X99925Y51453D02*
X103075D01*
X99925Y45547D02*
X103075D01*
X93000Y9500D02*
Y19500D01*
X73000Y9500D02*
X93000D01*
X73000D02*
Y19500D01*
X93000D01*
X235000Y95000D02*
X245000D01*
X235000D02*
Y135000D01*
X245000Y95000D02*
Y135000D01*
X235000D02*
X245000D01*
X5000Y95000D02*
X15000D01*
X5000D02*
Y135000D01*
X15000Y95000D02*
Y135000D01*
X5000D02*
X15000D01*
X188547Y102425D02*
Y105575D01*
X194453Y102425D02*
Y105575D01*
X145000Y5000D02*
Y15000D01*
X105000Y5000D02*
X145000D01*
X105000Y15000D02*
X145000D01*
X105000Y5000D02*
Y15000D01*
X2449Y34744D02*
X4181Y33012D01*
X2449Y50256D02*
X4181Y51988D01*
Y51949D02*
X13551D01*
X4181Y33051D02*
X13551D01*
X2449Y34744D02*
Y50256D01*
X13551Y33051D02*
Y51949D01*
X76000Y129000D02*
Y139000D01*
X96000D01*
Y129000D02*
Y139000D01*
X76000Y129000D02*
X96000D01*
X40500Y1000D02*
Y11000D01*
X20500Y1000D02*
X40500D01*
X20500D02*
Y11000D01*
X40500D01*
X64000Y128500D02*
Y138500D01*
X44000Y128500D02*
X64000D01*
X44000D02*
Y138500D01*
X64000D01*
D13*
X155815Y52500D02*
Y92500D01*
Y52500D02*
X195185D01*
Y92500D01*
X155815D02*
X195185D01*
X102941Y65079D02*
Y80433D01*
X63059Y65079D02*
Y80433D01*
X30500Y75500D02*
Y77500D01*
X20500Y75500D02*
Y77500D01*
X40500Y75500D02*
Y77500D01*
X44000Y83000D02*
X47000D01*
Y70000D02*
Y83000D01*
X44000Y70000D02*
X47000D01*
X34000D02*
X37000D01*
X24000D02*
X27000D01*
X14000D02*
X17000D01*
X14000D02*
Y83000D01*
X17000D01*
X34000D02*
X37000D01*
X24000D02*
X27000D01*
D14*
X16957Y44685D02*
X18925D01*
X17941D01*
Y50589D01*
X16957Y49605D01*
Y39691D02*
X17941Y40675D01*
X19908D01*
X20892Y39691D01*
Y38707D01*
X19908Y37723D01*
X18925D01*
X19908D01*
X20892Y36740D01*
Y35756D01*
X19908Y34772D01*
X17941D01*
X16957Y35756D01*
M02*
