G04*
G04 #@! TF.GenerationSoftware,Altium Limited,Altium Designer,22.2.1 (43)*
G04*
G04 Layer_Physical_Order=2*
G04 Layer_Color=16711680*
%FSLAX25Y25*%
%MOIN*%
G70*
G04*
G04 #@! TF.SameCoordinates,22AEFC0F-6C44-4056-8772-BC97FD4EFD78*
G04*
G04*
G04 #@! TF.FilePolarity,Positive*
G04*
G01*
G75*
%ADD11C,0.01000*%
%ADD15R,0.04331X0.06693*%
%ADD32C,0.02000*%
%ADD33C,0.01500*%
%ADD34C,0.05937*%
%ADD35R,0.05937X0.05937*%
%ADD36C,0.05512*%
%ADD37R,0.05906X0.05906*%
%ADD38C,0.05906*%
%ADD39R,0.05906X0.05906*%
%ADD40R,0.06000X0.06000*%
%ADD41C,0.06000*%
%ADD42O,0.07874X0.03937*%
%ADD43O,0.07874X0.03937*%
%ADD44C,0.05000*%
G36*
X248971Y5136D02*
X248471Y5071D01*
X248261Y5851D01*
X247801Y6649D01*
X247149Y7301D01*
X246351Y7762D01*
X245500Y7989D01*
Y4500D01*
X245000D01*
Y4000D01*
X241511D01*
X241739Y3149D01*
X242199Y2351D01*
X242521Y2029D01*
X242314Y1529D01*
X134394D01*
X134345Y2029D01*
X134780Y2116D01*
X135442Y2558D01*
X138931Y6047D01*
X143953D01*
Y13953D01*
X136047D01*
Y8931D01*
X133155Y6039D01*
X132045D01*
X131911Y6539D01*
X132427Y6837D01*
X133163Y7573D01*
X133683Y8474D01*
X133953Y9480D01*
Y10520D01*
X133683Y11526D01*
X133163Y12427D01*
X132427Y13163D01*
X131526Y13683D01*
X130520Y13953D01*
X129480D01*
X128474Y13683D01*
X127573Y13163D01*
X126837Y12427D01*
X126317Y11526D01*
X126047Y10520D01*
Y9480D01*
X126317Y8474D01*
X126837Y7573D01*
X127573Y6837D01*
X128089Y6539D01*
X127955Y6039D01*
X122045D01*
X121911Y6539D01*
X122427Y6837D01*
X123163Y7573D01*
X123683Y8474D01*
X123953Y9480D01*
Y10520D01*
X123683Y11526D01*
X123163Y12427D01*
X122427Y13163D01*
X121526Y13683D01*
X120520Y13953D01*
X119480D01*
X118474Y13683D01*
X117573Y13163D01*
X116837Y12427D01*
X116317Y11526D01*
X116047Y10520D01*
Y9480D01*
X116317Y8474D01*
X116837Y7573D01*
X117573Y6837D01*
X118089Y6539D01*
X117955Y6039D01*
X112045D01*
X111911Y6539D01*
X112427Y6837D01*
X113163Y7573D01*
X113683Y8474D01*
X113953Y9480D01*
Y9500D01*
X110000D01*
X106047D01*
Y9480D01*
X106317Y8474D01*
X106837Y7573D01*
X107573Y6837D01*
X108089Y6539D01*
X107955Y6039D01*
X58345D01*
X50452Y13931D01*
X50469Y14008D01*
X51056Y14365D01*
X51500Y14246D01*
Y17500D01*
X48246D01*
X48364Y17056D01*
X48008Y16469D01*
X47932Y16452D01*
X39676Y24708D01*
X39756Y25005D01*
Y25995D01*
X39500Y26950D01*
X39006Y27806D01*
X38306Y28506D01*
X37450Y29000D01*
X36494Y29256D01*
X35506D01*
X34550Y29000D01*
X33694Y28506D01*
X32994Y27806D01*
X32500Y26950D01*
X32244Y25995D01*
Y25005D01*
X32500Y24050D01*
X32994Y23194D01*
X33694Y22494D01*
X34550Y22000D01*
X35506Y21744D01*
X36494D01*
X36792Y21824D01*
X56058Y2558D01*
X56720Y2116D01*
X57155Y2029D01*
X57106Y1529D01*
X8186D01*
X7979Y2029D01*
X8301Y2351D01*
X8761Y3149D01*
X8990Y4000D01*
X5500D01*
Y4500D01*
X5000D01*
Y7989D01*
X4149Y7762D01*
X3351Y7301D01*
X2699Y6649D01*
X2238Y5851D01*
X2029Y5071D01*
X1529Y5136D01*
Y16364D01*
X2029Y16430D01*
X2238Y15649D01*
X2699Y14851D01*
X3351Y14199D01*
X4149Y13738D01*
X5000Y13510D01*
Y17000D01*
Y20490D01*
X4149Y20261D01*
X3351Y19801D01*
X2699Y19149D01*
X2238Y18351D01*
X2029Y17571D01*
X1529Y17636D01*
Y25511D01*
X2029Y25645D01*
X2199Y25351D01*
X2851Y24699D01*
X3649Y24238D01*
X4500Y24011D01*
Y27500D01*
Y30990D01*
X3649Y30762D01*
X2851Y30301D01*
X2199Y29649D01*
X2029Y29355D01*
X1529Y29489D01*
Y148471D01*
X248971D01*
Y5136D01*
D02*
G37*
%LPC*%
G36*
X65500Y147490D02*
Y144500D01*
X68489D01*
X68261Y145351D01*
X67801Y146149D01*
X67149Y146801D01*
X66351Y147262D01*
X65500Y147490D01*
D02*
G37*
G36*
X64500D02*
X63649Y147262D01*
X62851Y146801D01*
X62199Y146149D01*
X61739Y145351D01*
X61510Y144500D01*
X64500D01*
Y147490D01*
D02*
G37*
G36*
X227000Y146990D02*
Y144000D01*
X229990D01*
X229762Y144851D01*
X229301Y145649D01*
X228649Y146301D01*
X227851Y146762D01*
X227000Y146990D01*
D02*
G37*
G36*
X226000D02*
X225149Y146762D01*
X224351Y146301D01*
X223699Y145649D01*
X223238Y144851D01*
X223010Y144000D01*
X226000D01*
Y146990D01*
D02*
G37*
G36*
X149000D02*
Y144000D01*
X151989D01*
X151761Y144851D01*
X151301Y145649D01*
X150649Y146301D01*
X149851Y146762D01*
X149000Y146990D01*
D02*
G37*
G36*
X148000D02*
X147149Y146762D01*
X146351Y146301D01*
X145699Y145649D01*
X145238Y144851D01*
X145010Y144000D01*
X148000D01*
Y146990D01*
D02*
G37*
G36*
X32500Y144990D02*
Y142000D01*
X35489D01*
X35261Y142851D01*
X34801Y143649D01*
X34149Y144301D01*
X33351Y144762D01*
X32500Y144990D01*
D02*
G37*
G36*
X31500D02*
X30649Y144762D01*
X29851Y144301D01*
X29199Y143649D01*
X28738Y142851D01*
X28510Y142000D01*
X31500D01*
Y144990D01*
D02*
G37*
G36*
X21000D02*
Y142000D01*
X23990D01*
X23762Y142851D01*
X23301Y143649D01*
X22649Y144301D01*
X21851Y144762D01*
X21000Y144990D01*
D02*
G37*
G36*
X20000D02*
X19149Y144762D01*
X18351Y144301D01*
X17699Y143649D01*
X17239Y142851D01*
X17010Y142000D01*
X20000D01*
Y144990D01*
D02*
G37*
G36*
X68489Y143500D02*
X65500D01*
Y140510D01*
X66351Y140738D01*
X67149Y141199D01*
X67801Y141851D01*
X68261Y142649D01*
X68489Y143500D01*
D02*
G37*
G36*
X64500D02*
X61510D01*
X61739Y142649D01*
X62199Y141851D01*
X62851Y141199D01*
X63649Y140738D01*
X64500Y140510D01*
Y143500D01*
D02*
G37*
G36*
X229990Y143000D02*
X227000D01*
Y140010D01*
X227851Y140238D01*
X228649Y140699D01*
X229301Y141351D01*
X229762Y142149D01*
X229990Y143000D01*
D02*
G37*
G36*
X226000D02*
X223010D01*
X223238Y142149D01*
X223699Y141351D01*
X224351Y140699D01*
X225149Y140238D01*
X226000Y140010D01*
Y143000D01*
D02*
G37*
G36*
X151989D02*
X149000D01*
Y140010D01*
X149851Y140238D01*
X150649Y140699D01*
X151301Y141351D01*
X151761Y142149D01*
X151989Y143000D01*
D02*
G37*
G36*
X148000D02*
X145010D01*
X145238Y142149D01*
X145699Y141351D01*
X146351Y140699D01*
X147149Y140238D01*
X148000Y140010D01*
Y143000D01*
D02*
G37*
G36*
X35489Y141000D02*
X32500D01*
Y138011D01*
X33351Y138239D01*
X34149Y138699D01*
X34801Y139351D01*
X35261Y140149D01*
X35489Y141000D01*
D02*
G37*
G36*
X31500D02*
X28510D01*
X28738Y140149D01*
X29199Y139351D01*
X29851Y138699D01*
X30649Y138239D01*
X31500Y138011D01*
Y141000D01*
D02*
G37*
G36*
X23990D02*
X21000D01*
Y138011D01*
X21851Y138239D01*
X22649Y138699D01*
X23301Y139351D01*
X23762Y140149D01*
X23990Y141000D01*
D02*
G37*
G36*
X20000D02*
X17010D01*
X17239Y140149D01*
X17699Y139351D01*
X18351Y138699D01*
X19149Y138239D01*
X20000Y138011D01*
Y141000D01*
D02*
G37*
G36*
X94953Y137953D02*
X91500D01*
Y134500D01*
X94953D01*
Y137953D01*
D02*
G37*
G36*
X90500D02*
X87047D01*
Y134500D01*
X90500D01*
Y137953D01*
D02*
G37*
G36*
X52953Y137453D02*
X49500D01*
Y134000D01*
X52953D01*
Y137453D01*
D02*
G37*
G36*
X48500D02*
X45047D01*
Y134000D01*
X48500D01*
Y137453D01*
D02*
G37*
G36*
X177000Y135254D02*
Y132000D01*
X180254D01*
X180000Y132950D01*
X179506Y133806D01*
X178806Y134505D01*
X177950Y135000D01*
X177000Y135254D01*
D02*
G37*
G36*
X204000D02*
Y132000D01*
X207254D01*
X207000Y132950D01*
X206505Y133806D01*
X205806Y134505D01*
X204950Y135000D01*
X204000Y135254D01*
D02*
G37*
G36*
X203000D02*
X202050Y135000D01*
X201194Y134505D01*
X200495Y133806D01*
X200000Y132950D01*
X199746Y132000D01*
X203000D01*
Y135254D01*
D02*
G37*
G36*
X176000D02*
X175050Y135000D01*
X174194Y134505D01*
X173495Y133806D01*
X173000Y132950D01*
X172746Y132000D01*
X176000D01*
Y135254D01*
D02*
G37*
G36*
X240520Y133953D02*
X240500D01*
Y130500D01*
X243953D01*
Y130520D01*
X243683Y131526D01*
X243163Y132427D01*
X242427Y133163D01*
X241526Y133683D01*
X240520Y133953D01*
D02*
G37*
G36*
X10520D02*
X10500D01*
Y130500D01*
X13953D01*
Y130520D01*
X13683Y131526D01*
X13163Y132427D01*
X12427Y133163D01*
X11526Y133683D01*
X10520Y133953D01*
D02*
G37*
G36*
X9500D02*
X9480D01*
X8474Y133683D01*
X7573Y133163D01*
X6837Y132427D01*
X6317Y131526D01*
X6047Y130520D01*
Y130500D01*
X9500D01*
Y133953D01*
D02*
G37*
G36*
X239500D02*
X239480D01*
X238474Y133683D01*
X237573Y133163D01*
X236837Y132427D01*
X236317Y131526D01*
X236047Y130520D01*
Y130500D01*
X239500D01*
Y133953D01*
D02*
G37*
G36*
X94953Y133500D02*
X91500D01*
Y130047D01*
X94953D01*
Y133500D01*
D02*
G37*
G36*
X90500D02*
X87047D01*
Y130047D01*
X90500D01*
Y133500D01*
D02*
G37*
G36*
X81520Y137953D02*
X80480D01*
X79474Y137683D01*
X78573Y137163D01*
X77837Y136427D01*
X77317Y135526D01*
X77047Y134520D01*
Y133480D01*
X77317Y132474D01*
X77837Y131573D01*
X78573Y130837D01*
X79474Y130317D01*
X80480Y130047D01*
X81520D01*
X82526Y130317D01*
X83427Y130837D01*
X84163Y131573D01*
X84683Y132474D01*
X84953Y133480D01*
Y134520D01*
X84683Y135526D01*
X84163Y136427D01*
X83427Y137163D01*
X82526Y137683D01*
X81520Y137953D01*
D02*
G37*
G36*
X59520Y137453D02*
X58480D01*
X57474Y137183D01*
X56573Y136663D01*
X55837Y135927D01*
X55317Y135026D01*
X55047Y134020D01*
Y132980D01*
X55317Y131974D01*
X55837Y131073D01*
X56573Y130337D01*
X57474Y129817D01*
X58480Y129547D01*
X59520D01*
X60526Y129817D01*
X61427Y130337D01*
X62163Y131073D01*
X62683Y131974D01*
X62953Y132980D01*
Y134020D01*
X62683Y135026D01*
X62163Y135927D01*
X61427Y136663D01*
X60526Y137183D01*
X59520Y137453D01*
D02*
G37*
G36*
X52953Y133000D02*
X49500D01*
Y129547D01*
X52953D01*
Y133000D01*
D02*
G37*
G36*
X48500D02*
X45047D01*
Y129547D01*
X48500D01*
Y133000D01*
D02*
G37*
G36*
X21000Y131490D02*
Y128500D01*
X23990D01*
X23762Y129351D01*
X23301Y130149D01*
X22649Y130801D01*
X21851Y131262D01*
X21000Y131490D01*
D02*
G37*
G36*
X20000D02*
X19149Y131262D01*
X18351Y130801D01*
X17699Y130149D01*
X17239Y129351D01*
X17010Y128500D01*
X20000D01*
Y131490D01*
D02*
G37*
G36*
X180254Y131000D02*
X177000D01*
Y127746D01*
X177950Y128000D01*
X178806Y128495D01*
X179506Y129194D01*
X180000Y130050D01*
X180254Y131000D01*
D02*
G37*
G36*
X207254D02*
X204000D01*
Y127746D01*
X204950Y128000D01*
X205806Y128495D01*
X206505Y129194D01*
X207000Y130050D01*
X207254Y131000D01*
D02*
G37*
G36*
X203000D02*
X199746D01*
X200000Y130050D01*
X200495Y129194D01*
X201194Y128495D01*
X202050Y128000D01*
X203000Y127746D01*
Y131000D01*
D02*
G37*
G36*
X176000D02*
X172746D01*
X173000Y130050D01*
X173495Y129194D01*
X174194Y128495D01*
X175050Y128000D01*
X176000Y127746D01*
Y131000D01*
D02*
G37*
G36*
X124995Y134756D02*
X124005D01*
X123050Y134500D01*
X122194Y134005D01*
X121494Y133306D01*
X121000Y132450D01*
X120744Y131494D01*
Y130506D01*
X121000Y129550D01*
X121494Y128694D01*
X122194Y127995D01*
X123050Y127500D01*
X124005Y127244D01*
X124995D01*
X125950Y127500D01*
X126806Y127995D01*
X127506Y128694D01*
X128000Y129550D01*
X128256Y130506D01*
Y131494D01*
X128000Y132450D01*
X127506Y133306D01*
X126806Y134005D01*
X125950Y134500D01*
X124995Y134756D01*
D02*
G37*
G36*
X243953Y129500D02*
X240500D01*
Y126047D01*
X240520D01*
X241526Y126317D01*
X242427Y126837D01*
X243163Y127573D01*
X243683Y128474D01*
X243953Y129480D01*
Y129500D01*
D02*
G37*
G36*
X239500D02*
X236047D01*
Y129480D01*
X236317Y128474D01*
X236837Y127573D01*
X237573Y126837D01*
X238474Y126317D01*
X239480Y126047D01*
X239500D01*
Y129500D01*
D02*
G37*
G36*
X149961Y132500D02*
X149039D01*
X148149Y132262D01*
X147351Y131801D01*
X146699Y131149D01*
X146239Y130351D01*
X146000Y129461D01*
Y128539D01*
X146033Y128417D01*
X140655Y123039D01*
X127660D01*
X127506Y123306D01*
X126806Y124005D01*
X125950Y124500D01*
X124995Y124756D01*
X124005D01*
X123050Y124500D01*
X122194Y124005D01*
X121494Y123306D01*
X121000Y122450D01*
X120744Y121494D01*
Y120505D01*
X121000Y119550D01*
X121494Y118694D01*
X122194Y117994D01*
X122461Y117840D01*
Y105345D01*
X105558Y88442D01*
X105116Y87780D01*
X104961Y87000D01*
Y59364D01*
X104851Y59301D01*
X104199Y58649D01*
X103738Y57851D01*
X103500Y56961D01*
Y56039D01*
X103738Y55149D01*
X104199Y54351D01*
X104851Y53699D01*
X105649Y53238D01*
X106539Y53000D01*
X107461D01*
X108351Y53238D01*
X109149Y53699D01*
X109801Y54351D01*
X110261Y55149D01*
X110500Y56039D01*
Y56961D01*
X110261Y57851D01*
X109801Y58649D01*
X109149Y59301D01*
X109039Y59364D01*
Y86155D01*
X125942Y103058D01*
X126384Y103720D01*
X126539Y104500D01*
Y117840D01*
X126806Y117994D01*
X127506Y118694D01*
X127660Y118961D01*
X140982D01*
X141125Y118654D01*
X141149Y118461D01*
X140495Y117806D01*
X140000Y116950D01*
X139744Y115995D01*
Y115006D01*
X140000Y114050D01*
X140495Y113194D01*
X141194Y112495D01*
X142050Y112000D01*
X143006Y111744D01*
X143994D01*
X144950Y112000D01*
X145806Y112495D01*
X146505Y113194D01*
X146807Y113716D01*
X153946D01*
X162327Y105335D01*
X162327Y105335D01*
X162906Y104948D01*
X163020Y104925D01*
Y99654D01*
X164401D01*
Y98815D01*
X164537Y98132D01*
X164923Y97553D01*
X179216Y83261D01*
Y49500D01*
X179351Y48817D01*
X179738Y48238D01*
X187738Y40238D01*
X188317Y39851D01*
X189000Y39716D01*
X189000Y39716D01*
X211261D01*
X221216Y29761D01*
Y18307D01*
X220694Y18006D01*
X219994Y17306D01*
X219500Y16450D01*
X219244Y15495D01*
Y14505D01*
X219500Y13550D01*
X219994Y12694D01*
X220694Y11994D01*
X221550Y11500D01*
X222505Y11244D01*
X223495D01*
X224450Y11500D01*
X225306Y11994D01*
X226006Y12694D01*
X226500Y13550D01*
X226756Y14505D01*
Y15495D01*
X226500Y16450D01*
X226006Y17306D01*
X225306Y18006D01*
X224784Y18307D01*
Y30500D01*
X224784Y30500D01*
X224648Y31183D01*
X224262Y31762D01*
X213262Y42762D01*
X212683Y43148D01*
X212000Y43284D01*
X189739D01*
X182784Y50239D01*
Y84000D01*
X182784Y84000D01*
X182649Y84683D01*
X182262Y85262D01*
X182262Y85262D01*
X168370Y99154D01*
X168577Y99654D01*
X169350D01*
Y108346D01*
X164942D01*
X164770Y108381D01*
X164328D01*
X155947Y116762D01*
X155368Y117148D01*
X154685Y117284D01*
X146807D01*
X146505Y117806D01*
X145806Y118506D01*
X144950Y119000D01*
X143994Y119256D01*
X143347D01*
X143140Y119756D01*
X148917Y125533D01*
X149039Y125500D01*
X149961D01*
X150851Y125739D01*
X151649Y126199D01*
X152301Y126851D01*
X152761Y127649D01*
X153000Y128539D01*
Y129461D01*
X152761Y130351D01*
X152301Y131149D01*
X151649Y131801D01*
X150851Y132262D01*
X149961Y132500D01*
D02*
G37*
G36*
X23990Y127500D02*
X21000D01*
Y124511D01*
X21851Y124739D01*
X22649Y125199D01*
X23301Y125851D01*
X23762Y126649D01*
X23990Y127500D01*
D02*
G37*
G36*
X20000D02*
X17010D01*
X17239Y126649D01*
X17699Y125851D01*
X18351Y125199D01*
X19149Y124739D01*
X20000Y124511D01*
Y127500D01*
D02*
G37*
G36*
X13953Y129500D02*
X10000D01*
X6047D01*
Y129480D01*
X6317Y128474D01*
X6837Y127573D01*
X7573Y126837D01*
X8471Y126319D01*
Y123681D01*
X7573Y123163D01*
X6837Y122427D01*
X6317Y121526D01*
X6047Y120520D01*
Y120500D01*
X10000D01*
X13953D01*
Y120520D01*
X13683Y121526D01*
X13163Y122427D01*
X12427Y123163D01*
X11529Y123681D01*
Y126319D01*
X12427Y126837D01*
X13163Y127573D01*
X13683Y128474D01*
X13953Y129480D01*
Y129500D01*
D02*
G37*
G36*
X21000Y120990D02*
Y118000D01*
X23990D01*
X23762Y118851D01*
X23301Y119649D01*
X22649Y120301D01*
X21851Y120762D01*
X21000Y120990D01*
D02*
G37*
G36*
X20000D02*
X19149Y120762D01*
X18351Y120301D01*
X17699Y119649D01*
X17239Y118851D01*
X17010Y118000D01*
X20000D01*
Y120990D01*
D02*
G37*
G36*
X213995Y135256D02*
X213005D01*
X212050Y135000D01*
X211194Y134505D01*
X210494Y133806D01*
X210000Y132950D01*
X209744Y131994D01*
Y131006D01*
X210000Y130050D01*
X210494Y129194D01*
X211194Y128495D01*
X211971Y128046D01*
Y122345D01*
X209337D01*
Y113652D01*
X215667D01*
Y122345D01*
X215029D01*
Y128046D01*
X215806Y128495D01*
X216506Y129194D01*
X216954Y129971D01*
X227867D01*
X236315Y121522D01*
X236047Y120520D01*
Y119480D01*
X236317Y118474D01*
X236837Y117573D01*
X237573Y116837D01*
X238474Y116317D01*
X239480Y116047D01*
X240520D01*
X241526Y116317D01*
X242427Y116837D01*
X243163Y117573D01*
X243683Y118474D01*
X243953Y119480D01*
Y120520D01*
X243683Y121526D01*
X243163Y122427D01*
X242427Y123163D01*
X241526Y123683D01*
X240520Y123953D01*
X239480D01*
X238478Y123685D01*
X229581Y132581D01*
X229085Y132913D01*
X228500Y133029D01*
X216954D01*
X216506Y133806D01*
X215806Y134505D01*
X214950Y135000D01*
X213995Y135256D01*
D02*
G37*
G36*
X13953Y119500D02*
X10500D01*
Y116047D01*
X10520D01*
X11526Y116317D01*
X12427Y116837D01*
X13163Y117573D01*
X13683Y118474D01*
X13953Y119480D01*
Y119500D01*
D02*
G37*
G36*
X9500D02*
X6047D01*
Y119480D01*
X6317Y118474D01*
X6837Y117573D01*
X7573Y116837D01*
X8474Y116317D01*
X9480Y116047D01*
X9500D01*
Y119500D01*
D02*
G37*
G36*
X23990Y117000D02*
X21000D01*
Y114011D01*
X21851Y114239D01*
X22649Y114699D01*
X23301Y115351D01*
X23762Y116149D01*
X23990Y117000D01*
D02*
G37*
G36*
X20000D02*
X17010D01*
X17239Y116149D01*
X17699Y115351D01*
X18351Y114699D01*
X19149Y114239D01*
X20000Y114011D01*
Y117000D01*
D02*
G37*
G36*
X44000Y112754D02*
Y109500D01*
X47254D01*
X47000Y110450D01*
X46505Y111306D01*
X45806Y112005D01*
X44950Y112500D01*
X44000Y112754D01*
D02*
G37*
G36*
X43000D02*
X42050Y112500D01*
X41194Y112005D01*
X40494Y111306D01*
X40000Y110450D01*
X39746Y109500D01*
X43000D01*
Y112754D01*
D02*
G37*
G36*
X21000Y109490D02*
Y106500D01*
X23990D01*
X23762Y107351D01*
X23301Y108149D01*
X22649Y108801D01*
X21851Y109262D01*
X21000Y109490D01*
D02*
G37*
G36*
X20000D02*
X19149Y109262D01*
X18351Y108801D01*
X17699Y108149D01*
X17239Y107351D01*
X17010Y106500D01*
X20000D01*
Y109490D01*
D02*
G37*
G36*
X240520Y113953D02*
X239480D01*
X238474Y113683D01*
X237573Y113163D01*
X236837Y112427D01*
X236317Y111526D01*
X236047Y110520D01*
Y109480D01*
X236317Y108474D01*
X236837Y107573D01*
X237573Y106837D01*
X238474Y106317D01*
X239480Y106047D01*
X240520D01*
X241526Y106317D01*
X242427Y106837D01*
X243163Y107573D01*
X243683Y108474D01*
X243953Y109480D01*
Y110520D01*
X243683Y111526D01*
X243163Y112427D01*
X242427Y113163D01*
X241526Y113683D01*
X240520Y113953D01*
D02*
G37*
G36*
X10520D02*
X9480D01*
X8474Y113683D01*
X7573Y113163D01*
X6837Y112427D01*
X6317Y111526D01*
X6047Y110520D01*
Y109480D01*
X6317Y108474D01*
X6837Y107573D01*
X7573Y106837D01*
X8474Y106317D01*
X9480Y106047D01*
X10520D01*
X11526Y106317D01*
X12427Y106837D01*
X13163Y107573D01*
X13683Y108474D01*
X13953Y109480D01*
Y110520D01*
X13683Y111526D01*
X13163Y112427D01*
X12427Y113163D01*
X11526Y113683D01*
X10520Y113953D01*
D02*
G37*
G36*
X99000Y109254D02*
Y106000D01*
X102254D01*
X102000Y106950D01*
X101505Y107806D01*
X100806Y108505D01*
X99950Y109000D01*
X99000Y109254D01*
D02*
G37*
G36*
X98000D02*
X97050Y109000D01*
X96194Y108505D01*
X95495Y107806D01*
X95000Y106950D01*
X94746Y106000D01*
X98000D01*
Y109254D01*
D02*
G37*
G36*
X69500Y108754D02*
Y105500D01*
X72754D01*
X72500Y106450D01*
X72005Y107306D01*
X71306Y108005D01*
X70450Y108500D01*
X69500Y108754D01*
D02*
G37*
G36*
X68500D02*
X67550Y108500D01*
X66694Y108005D01*
X65995Y107306D01*
X65500Y106450D01*
X65246Y105500D01*
X68500D01*
Y108754D01*
D02*
G37*
G36*
X226297Y122345D02*
X219967D01*
Y113652D01*
X221603D01*
Y112765D01*
X214152Y105315D01*
X213461Y105500D01*
X212539D01*
X211649Y105262D01*
X210851Y104801D01*
X210199Y104149D01*
X209738Y103351D01*
X209500Y102461D01*
Y101539D01*
X209738Y100649D01*
X210199Y99851D01*
X210851Y99199D01*
X211649Y98738D01*
X212539Y98500D01*
X213461D01*
X214351Y98738D01*
X215149Y99199D01*
X215801Y99851D01*
X216262Y100649D01*
X216500Y101539D01*
Y102461D01*
X216315Y103152D01*
X224213Y111050D01*
X224545Y111547D01*
X224661Y112132D01*
Y113652D01*
X226297D01*
Y122345D01*
D02*
G37*
G36*
X47254Y108500D02*
X44000D01*
Y105246D01*
X44950Y105500D01*
X45806Y105994D01*
X46505Y106694D01*
X47000Y107550D01*
X47254Y108500D01*
D02*
G37*
G36*
X43000D02*
X39746D01*
X40000Y107550D01*
X40494Y106694D01*
X41194Y105994D01*
X42050Y105500D01*
X43000Y105246D01*
Y108500D01*
D02*
G37*
G36*
X23990Y105500D02*
X21000D01*
Y102510D01*
X21851Y102738D01*
X22649Y103199D01*
X23301Y103851D01*
X23762Y104649D01*
X23990Y105500D01*
D02*
G37*
G36*
X20000D02*
X17010D01*
X17239Y104649D01*
X17699Y103851D01*
X18351Y103199D01*
X19149Y102738D01*
X20000Y102510D01*
Y105500D01*
D02*
G37*
G36*
X102254Y105000D02*
X99000D01*
Y101746D01*
X99950Y102000D01*
X100806Y102495D01*
X101505Y103194D01*
X102000Y104050D01*
X102254Y105000D01*
D02*
G37*
G36*
X98000D02*
X94746D01*
X95000Y104050D01*
X95495Y103194D01*
X96194Y102495D01*
X97050Y102000D01*
X98000Y101746D01*
Y105000D01*
D02*
G37*
G36*
X72754Y104500D02*
X69500D01*
Y101246D01*
X70450Y101500D01*
X71306Y101995D01*
X72005Y102694D01*
X72500Y103550D01*
X72754Y104500D01*
D02*
G37*
G36*
X68500D02*
X65246D01*
X65500Y103550D01*
X65995Y102694D01*
X66694Y101995D01*
X67550Y101500D01*
X68500Y101246D01*
Y104500D01*
D02*
G37*
G36*
X79495Y108756D02*
X78505D01*
X77550Y108500D01*
X76694Y108005D01*
X75994Y107306D01*
X75500Y106450D01*
X75244Y105494D01*
Y104506D01*
X75500Y103550D01*
X75994Y102694D01*
X76694Y101995D01*
X77550Y101500D01*
X78505Y101244D01*
X79495D01*
X80450Y101500D01*
X81306Y101995D01*
X82006Y102694D01*
X82500Y103550D01*
X82756Y104506D01*
Y105494D01*
X82500Y106450D01*
X82006Y107306D01*
X81306Y108005D01*
X80450Y108500D01*
X79495Y108756D01*
D02*
G37*
G36*
X166995Y135256D02*
X166006D01*
X165050Y135000D01*
X164194Y134505D01*
X163495Y133806D01*
X163000Y132950D01*
X162744Y131994D01*
Y131006D01*
X163000Y130050D01*
X163495Y129194D01*
X164194Y128495D01*
X164716Y128193D01*
Y120000D01*
X164851Y119317D01*
X165238Y118738D01*
X175031Y108946D01*
Y108346D01*
X173650D01*
Y99654D01*
X175286D01*
Y97685D01*
X175402Y97100D01*
X175733Y96604D01*
X179419Y92919D01*
X179915Y92587D01*
X180500Y92471D01*
X222524D01*
X223109Y92587D01*
X223605Y92919D01*
X229157Y98471D01*
X236047D01*
Y96047D01*
X243953D01*
Y103953D01*
X236047D01*
Y101529D01*
X228524D01*
X227938Y101413D01*
X227442Y101081D01*
X221890Y95529D01*
X181133D01*
X178344Y98318D01*
Y99654D01*
X179980D01*
Y108346D01*
X178599D01*
Y109685D01*
X178599Y109685D01*
X178463Y110368D01*
X178077Y110947D01*
X178077Y110947D01*
X168284Y120739D01*
Y128193D01*
X168806Y128495D01*
X169506Y129194D01*
X170000Y130050D01*
X170256Y131006D01*
Y131994D01*
X170000Y132950D01*
X169506Y133806D01*
X168806Y134505D01*
X167950Y135000D01*
X166995Y135256D01*
D02*
G37*
G36*
X13953Y103953D02*
X6047D01*
Y96047D01*
X13953D01*
Y103953D01*
D02*
G37*
G36*
X43995Y102756D02*
X43005D01*
X42050Y102500D01*
X41194Y102006D01*
X40494Y101306D01*
X40000Y100450D01*
X39744Y99494D01*
Y98506D01*
X40000Y97550D01*
X40494Y96694D01*
X41194Y95995D01*
X42050Y95500D01*
X43005Y95244D01*
X43995D01*
X44950Y95500D01*
X45806Y95995D01*
X46505Y96694D01*
X47000Y97550D01*
X47256Y98506D01*
Y99494D01*
X47000Y100450D01*
X46505Y101306D01*
X45806Y102006D01*
X44950Y102500D01*
X43995Y102756D01*
D02*
G37*
G36*
X127495Y93756D02*
X126505D01*
X125550Y93500D01*
X124694Y93006D01*
X123995Y92306D01*
X123500Y91450D01*
X123244Y90495D01*
Y89505D01*
X123500Y88550D01*
X123995Y87694D01*
X124694Y86994D01*
X125550Y86500D01*
X126505Y86244D01*
X127495D01*
X128450Y86500D01*
X129306Y86994D01*
X130006Y87694D01*
X130500Y88550D01*
X130756Y89505D01*
Y90495D01*
X130500Y91450D01*
X130006Y92306D01*
X129306Y93006D01*
X128450Y93500D01*
X127495Y93756D01*
D02*
G37*
G36*
X143994Y109256D02*
X143006D01*
X142050Y109000D01*
X141194Y108505D01*
X140495Y107806D01*
X140000Y106950D01*
X139744Y105994D01*
Y105006D01*
X140000Y104050D01*
X140495Y103194D01*
X141194Y102495D01*
X142050Y102000D01*
X143006Y101744D01*
X143994D01*
X144072Y101765D01*
X156532Y89306D01*
Y85285D01*
X156070Y85093D01*
X150081Y91081D01*
X149585Y91413D01*
X149000Y91529D01*
X140454D01*
X140006Y92306D01*
X139306Y93006D01*
X138450Y93500D01*
X137495Y93756D01*
X136505D01*
X135550Y93500D01*
X134694Y93006D01*
X133994Y92306D01*
X133500Y91450D01*
X133244Y90495D01*
Y89505D01*
X133500Y88550D01*
X133994Y87694D01*
X134694Y86994D01*
X135471Y86546D01*
Y83134D01*
X120861Y68524D01*
X119994Y68756D01*
X119006D01*
X118050Y68500D01*
X117194Y68006D01*
X116495Y67306D01*
X116000Y66450D01*
X115744Y65495D01*
Y64505D01*
X116000Y63550D01*
X116495Y62694D01*
X117194Y61994D01*
X118050Y61500D01*
X119006Y61244D01*
X119994D01*
X120950Y61500D01*
X121806Y61994D01*
X122505Y62694D01*
X123000Y63550D01*
X123256Y64505D01*
Y65495D01*
X123024Y66361D01*
X138081Y81419D01*
X138413Y81915D01*
X138529Y82500D01*
Y86546D01*
X139306Y86994D01*
X140006Y87694D01*
X140454Y88471D01*
X148366D01*
X154919Y81919D01*
X155415Y81587D01*
X156000Y81471D01*
X158440D01*
X158574Y80971D01*
X158063Y80676D01*
X157324Y79937D01*
X156802Y79032D01*
X156801Y79029D01*
X146500D01*
X145915Y78913D01*
X145419Y78581D01*
X143812Y76975D01*
X143500Y76913D01*
X143004Y76581D01*
X142419Y75996D01*
X142087Y75499D01*
X141971Y74914D01*
Y72113D01*
X141550Y72000D01*
X140694Y71505D01*
X139995Y70806D01*
X139500Y69950D01*
X139244Y68994D01*
Y68006D01*
X139476Y67139D01*
X116367Y44029D01*
X75954D01*
X75506Y44806D01*
X74806Y45505D01*
X73950Y46000D01*
X72995Y46256D01*
X72005D01*
X71050Y46000D01*
X70194Y45505D01*
X69494Y44806D01*
X69000Y43950D01*
X68744Y42994D01*
Y42006D01*
X69000Y41050D01*
X69494Y40194D01*
X70194Y39494D01*
X71050Y39000D01*
X72005Y38744D01*
X72995D01*
X73950Y39000D01*
X74806Y39494D01*
X75506Y40194D01*
X75954Y40971D01*
X117000D01*
X117585Y41087D01*
X118081Y41419D01*
X141639Y64976D01*
X142506Y64744D01*
X143494D01*
X144450Y65000D01*
X145306Y65495D01*
X146005Y66194D01*
X146500Y67050D01*
X146756Y68006D01*
Y68994D01*
X146500Y69950D01*
X146005Y70806D01*
X145306Y71505D01*
X145029Y71665D01*
Y74076D01*
X145085Y74087D01*
X145581Y74419D01*
X147134Y75971D01*
X156801D01*
X156802Y75968D01*
X157324Y75063D01*
X158063Y74324D01*
X158968Y73802D01*
X159977Y73532D01*
X161022D01*
X162032Y73802D01*
X162937Y74324D01*
X163676Y75063D01*
X164198Y75968D01*
X164469Y76977D01*
Y78022D01*
X164418Y78212D01*
X164866Y78471D01*
X165471Y77867D01*
Y74634D01*
X162034Y71197D01*
X162032Y71198D01*
X161022Y71469D01*
X159977D01*
X158968Y71198D01*
X158063Y70676D01*
X157324Y69937D01*
X156802Y69032D01*
X156532Y68023D01*
Y66978D01*
X156802Y65968D01*
X157324Y65063D01*
X158063Y64324D01*
X158968Y63802D01*
X159977Y63532D01*
X161022D01*
X162032Y63802D01*
X162937Y64324D01*
X163676Y65063D01*
X164198Y65968D01*
X164469Y66978D01*
Y68023D01*
X164198Y69032D01*
X164197Y69034D01*
X168081Y72919D01*
X168413Y73415D01*
X168529Y74000D01*
Y78500D01*
X168413Y79085D01*
X168081Y79581D01*
X164601Y83062D01*
X164469Y83531D01*
X164469D01*
X164469Y83531D01*
Y91469D01*
X158694D01*
X146675Y103488D01*
X147000Y104050D01*
X147256Y105006D01*
Y105994D01*
X147000Y106950D01*
X146505Y107806D01*
X145806Y108505D01*
X144950Y109000D01*
X143994Y109256D01*
D02*
G37*
G36*
X227495Y92256D02*
X226505D01*
X225550Y92000D01*
X224694Y91505D01*
X223994Y90806D01*
X223500Y89950D01*
X223244Y88994D01*
Y88006D01*
X223500Y87050D01*
X223994Y86194D01*
X224694Y85495D01*
X225550Y85000D01*
X226505Y84744D01*
X227495D01*
X228450Y85000D01*
X229306Y85495D01*
X230006Y86194D01*
X230500Y87050D01*
X230756Y88006D01*
Y88994D01*
X230500Y89950D01*
X230006Y90806D01*
X229306Y91505D01*
X228450Y92000D01*
X227495Y92256D01*
D02*
G37*
G36*
X191023Y91469D02*
X189978D01*
X188968Y91198D01*
X188063Y90676D01*
X187324Y89937D01*
X186802Y89032D01*
X186531Y88023D01*
Y86977D01*
X186802Y85968D01*
X187324Y85063D01*
X188063Y84324D01*
X188968Y83802D01*
X189978Y83531D01*
X191023D01*
X192032Y83802D01*
X192937Y84324D01*
X193676Y85063D01*
X194198Y85968D01*
X194468Y86977D01*
Y88023D01*
X194198Y89032D01*
X193676Y89937D01*
X192937Y90676D01*
X192032Y91198D01*
X191023Y91469D01*
D02*
G37*
G36*
X7000Y85989D02*
Y83000D01*
X9990D01*
X9762Y83851D01*
X9301Y84649D01*
X8649Y85301D01*
X7851Y85761D01*
X7000Y85989D01*
D02*
G37*
G36*
X6000D02*
X5149Y85761D01*
X4351Y85301D01*
X3699Y84649D01*
X3238Y83851D01*
X3011Y83000D01*
X6000D01*
Y85989D01*
D02*
G37*
G36*
X9990Y82000D02*
X7000D01*
Y79010D01*
X7851Y79238D01*
X8649Y79699D01*
X9301Y80351D01*
X9762Y81149D01*
X9990Y82000D01*
D02*
G37*
G36*
X6000D02*
X3011D01*
X3238Y81149D01*
X3699Y80351D01*
X4351Y79699D01*
X5149Y79238D01*
X6000Y79010D01*
Y82000D01*
D02*
G37*
G36*
X108994Y109256D02*
X108005D01*
X107050Y109000D01*
X106194Y108505D01*
X105494Y107806D01*
X105000Y106950D01*
X104744Y105994D01*
Y105006D01*
X105000Y104050D01*
X105494Y103194D01*
X105891Y102798D01*
Y100275D01*
X99155Y93539D01*
X60500D01*
X59720Y93384D01*
X59058Y92942D01*
X44962Y78846D01*
X44500Y79037D01*
Y85500D01*
X36500D01*
Y78316D01*
X36038Y78125D01*
X34220Y79943D01*
X34227Y79956D01*
X34500Y80973D01*
Y82027D01*
X34227Y83044D01*
X33701Y83956D01*
X32956Y84701D01*
X32044Y85227D01*
X31027Y85500D01*
X29973D01*
X28956Y85227D01*
X28044Y84701D01*
X27299Y83956D01*
X26773Y83044D01*
X26500Y82027D01*
Y80973D01*
X26773Y79956D01*
X27299Y79044D01*
X28044Y78299D01*
X28956Y77773D01*
X29973Y77500D01*
X31027D01*
X32044Y77773D01*
X32057Y77780D01*
X36780Y73057D01*
X36773Y73044D01*
X36500Y72027D01*
Y71922D01*
X36000Y71772D01*
X35585Y72049D01*
X35000Y72165D01*
X34463D01*
X34227Y73044D01*
X33701Y73956D01*
X32956Y74701D01*
X32044Y75227D01*
X31027Y75500D01*
X29973D01*
X28956Y75227D01*
X28044Y74701D01*
X27299Y73956D01*
X26773Y73044D01*
X26500Y72027D01*
Y70973D01*
X26773Y69956D01*
X27299Y69044D01*
X28044Y68299D01*
X28956Y67773D01*
X29973Y67500D01*
X31027D01*
X32044Y67773D01*
X32956Y68299D01*
X33701Y69044D01*
X33737Y69107D01*
X34367D01*
X41055Y62419D01*
X41551Y62087D01*
X42136Y61971D01*
X47212D01*
X47255Y61904D01*
X47094Y61237D01*
X46694Y61006D01*
X45994Y60306D01*
X45500Y59450D01*
X45244Y58495D01*
Y57506D01*
X45500Y56550D01*
X45994Y55694D01*
X46694Y54994D01*
X47550Y54500D01*
X48505Y54244D01*
X49494D01*
X50450Y54500D01*
X51306Y54994D01*
X52005Y55694D01*
X52500Y56550D01*
X52756Y57506D01*
Y58495D01*
X52500Y59450D01*
X52005Y60306D01*
X51306Y61006D01*
X50906Y61237D01*
X50745Y61904D01*
X50788Y61971D01*
X52842D01*
X53199Y61351D01*
X53851Y60699D01*
X54649Y60238D01*
X55539Y60000D01*
X56461D01*
X57351Y60238D01*
X58149Y60699D01*
X58801Y61351D01*
X59262Y62149D01*
X59500Y63039D01*
Y63961D01*
X59262Y64851D01*
X58801Y65649D01*
X58149Y66301D01*
X57351Y66761D01*
X56461Y67000D01*
X55539D01*
X54649Y66761D01*
X53851Y66301D01*
X53199Y65649D01*
X52842Y65029D01*
X42770D01*
X40761Y67038D01*
X40952Y67500D01*
X41027D01*
X42044Y67773D01*
X42956Y68299D01*
X43701Y69044D01*
X44227Y69956D01*
X44500Y70973D01*
Y72027D01*
X44375Y72492D01*
X61345Y89461D01*
X100000D01*
X100780Y89616D01*
X101442Y90058D01*
X109372Y97988D01*
X109814Y98650D01*
X109969Y99430D01*
Y102011D01*
X110806Y102495D01*
X111505Y103194D01*
X112000Y104050D01*
X112256Y105006D01*
Y105994D01*
X112000Y106950D01*
X111505Y107806D01*
X110806Y108505D01*
X109950Y109000D01*
X108994Y109256D01*
D02*
G37*
G36*
X21027Y85500D02*
X19973D01*
X18956Y85227D01*
X18044Y84701D01*
X17299Y83956D01*
X16773Y83044D01*
X16500Y82027D01*
Y80973D01*
X16773Y79956D01*
X17299Y79044D01*
X18044Y78299D01*
X18956Y77773D01*
X19973Y77500D01*
X21027D01*
X22044Y77773D01*
X22956Y78299D01*
X23701Y79044D01*
X24227Y79956D01*
X24500Y80973D01*
Y82027D01*
X24227Y83044D01*
X23701Y83956D01*
X22956Y84701D01*
X22044Y85227D01*
X21027Y85500D01*
D02*
G37*
G36*
X227495Y82256D02*
X226505D01*
X225550Y82000D01*
X224694Y81506D01*
X223994Y80806D01*
X223500Y79950D01*
X223244Y78995D01*
Y78005D01*
X223500Y77050D01*
X223994Y76194D01*
X224694Y75494D01*
X225550Y75000D01*
X226505Y74744D01*
X227495D01*
X228450Y75000D01*
X229306Y75494D01*
X230006Y76194D01*
X230500Y77050D01*
X230756Y78005D01*
Y78995D01*
X230500Y79950D01*
X230006Y80806D01*
X229306Y81506D01*
X228450Y82000D01*
X227495Y82256D01*
D02*
G37*
G36*
X191023Y81468D02*
X189978D01*
X188968Y81198D01*
X188063Y80676D01*
X187324Y79937D01*
X186802Y79032D01*
X186531Y78022D01*
Y76977D01*
X186802Y75968D01*
X187324Y75063D01*
X188063Y74324D01*
X188968Y73802D01*
X189978Y73532D01*
X191023D01*
X192032Y73802D01*
X192937Y74324D01*
X193676Y75063D01*
X194198Y75968D01*
X194468Y76977D01*
Y78022D01*
X194198Y79032D01*
X193676Y79937D01*
X192937Y80676D01*
X192032Y81198D01*
X191023Y81468D01*
D02*
G37*
G36*
X68000Y76490D02*
Y73500D01*
X70990D01*
X70762Y74351D01*
X70301Y75149D01*
X69649Y75801D01*
X68851Y76262D01*
X68000Y76490D01*
D02*
G37*
G36*
X67000D02*
X66149Y76262D01*
X65351Y75801D01*
X64699Y75149D01*
X64239Y74351D01*
X64011Y73500D01*
X67000D01*
Y76490D01*
D02*
G37*
G36*
X21027Y75500D02*
X21000D01*
Y72000D01*
X24500D01*
Y72027D01*
X24227Y73044D01*
X23701Y73956D01*
X22956Y74701D01*
X22044Y75227D01*
X21027Y75500D01*
D02*
G37*
G36*
X6500Y74989D02*
Y72000D01*
X9489D01*
X9262Y72851D01*
X8801Y73649D01*
X8149Y74301D01*
X7351Y74761D01*
X6500Y74989D01*
D02*
G37*
G36*
X5500D02*
X4649Y74761D01*
X3851Y74301D01*
X3199Y73649D01*
X2739Y72851D01*
X2510Y72000D01*
X5500D01*
Y74989D01*
D02*
G37*
G36*
X20000Y75500D02*
X19973D01*
X18956Y75227D01*
X18044Y74701D01*
X17299Y73956D01*
X16773Y73044D01*
X16500Y72027D01*
Y72000D01*
X20000D01*
Y75500D01*
D02*
G37*
G36*
X95961Y77000D02*
X95039D01*
X94149Y76762D01*
X93351Y76301D01*
X92699Y75649D01*
X92238Y74851D01*
X92000Y73961D01*
Y73039D01*
X92185Y72348D01*
X73366Y53529D01*
X12500D01*
X11915Y53413D01*
X11419Y53081D01*
X8831Y50494D01*
X6032D01*
X5257Y50392D01*
X4534Y50093D01*
X3914Y49617D01*
X3438Y48997D01*
X3139Y48275D01*
X3037Y47500D01*
X3139Y46725D01*
X3438Y46003D01*
X3914Y45383D01*
X4087Y45250D01*
Y44750D01*
X3914Y44617D01*
X3438Y43997D01*
X3139Y43275D01*
X3037Y42500D01*
X3139Y41725D01*
X3438Y41003D01*
X3914Y40383D01*
X4087Y40250D01*
Y39750D01*
X3914Y39617D01*
X3438Y38997D01*
X3139Y38275D01*
X3103Y38000D01*
X12897D01*
X12861Y38275D01*
X12562Y38997D01*
X12086Y39617D01*
X11913Y39750D01*
Y40250D01*
X12086Y40383D01*
X12562Y41003D01*
X12861Y41725D01*
X12963Y42500D01*
X12861Y43275D01*
X12562Y43997D01*
X12086Y44617D01*
X11913Y44750D01*
Y45250D01*
X12086Y45383D01*
X12562Y46003D01*
X12861Y46725D01*
X12963Y47500D01*
X12861Y48275D01*
X12562Y48997D01*
X12170Y49507D01*
X13134Y50471D01*
X74000D01*
X74585Y50587D01*
X75081Y50919D01*
X94348Y70185D01*
X95039Y70000D01*
X95961D01*
X96851Y70239D01*
X97649Y70699D01*
X98301Y71351D01*
X98761Y72149D01*
X99000Y73039D01*
Y73961D01*
X98761Y74851D01*
X98301Y75649D01*
X97649Y76301D01*
X96851Y76762D01*
X95961Y77000D01*
D02*
G37*
G36*
X70990Y72500D02*
X68000D01*
Y69511D01*
X68851Y69739D01*
X69649Y70199D01*
X70301Y70851D01*
X70762Y71649D01*
X70990Y72500D01*
D02*
G37*
G36*
X67000D02*
X64011D01*
X64239Y71649D01*
X64699Y70851D01*
X65351Y70199D01*
X66149Y69739D01*
X67000Y69511D01*
Y72500D01*
D02*
G37*
G36*
X9489Y71000D02*
X6500D01*
Y68010D01*
X7351Y68239D01*
X8149Y68699D01*
X8801Y69351D01*
X9262Y70149D01*
X9489Y71000D01*
D02*
G37*
G36*
X5500D02*
X2510D01*
X2739Y70149D01*
X3199Y69351D01*
X3851Y68699D01*
X4649Y68239D01*
X5500Y68010D01*
Y71000D01*
D02*
G37*
G36*
X24500D02*
X21000D01*
Y67500D01*
X21027D01*
X22044Y67773D01*
X22956Y68299D01*
X23701Y69044D01*
X24227Y69956D01*
X24500Y70973D01*
Y71000D01*
D02*
G37*
G36*
X20000D02*
X16500D01*
Y70973D01*
X16773Y69956D01*
X17299Y69044D01*
X18044Y68299D01*
X18956Y67773D01*
X19973Y67500D01*
X20000D01*
Y71000D01*
D02*
G37*
G36*
X171500Y68989D02*
Y66000D01*
X174489D01*
X174261Y66851D01*
X173801Y67649D01*
X173149Y68301D01*
X172351Y68761D01*
X171500Y68989D01*
D02*
G37*
G36*
X170500D02*
X169649Y68761D01*
X168851Y68301D01*
X168199Y67649D01*
X167738Y66851D01*
X167510Y66000D01*
X170500D01*
Y68989D01*
D02*
G37*
G36*
X133494Y72256D02*
X132506D01*
X131550Y72000D01*
X130694Y71505D01*
X129994Y70806D01*
X129500Y69950D01*
X129244Y68994D01*
Y68006D01*
X129500Y67050D01*
X129994Y66194D01*
X130694Y65495D01*
X131550Y65000D01*
X132506Y64744D01*
X133494D01*
X134450Y65000D01*
X135306Y65495D01*
X136005Y66194D01*
X136500Y67050D01*
X136756Y68006D01*
Y68994D01*
X136500Y69950D01*
X136005Y70806D01*
X135306Y71505D01*
X134450Y72000D01*
X133494Y72256D01*
D02*
G37*
G36*
X191023Y71469D02*
X189978D01*
X188968Y71198D01*
X188063Y70676D01*
X187324Y69937D01*
X186802Y69032D01*
X186531Y68023D01*
Y66978D01*
X186802Y65968D01*
X187324Y65063D01*
X188063Y64324D01*
X188968Y63802D01*
X189978Y63532D01*
X191023D01*
X192032Y63802D01*
X192937Y64324D01*
X193676Y65063D01*
X194198Y65968D01*
X194468Y66978D01*
Y68023D01*
X194198Y69032D01*
X193676Y69937D01*
X192937Y70676D01*
X192032Y71198D01*
X191023Y71469D01*
D02*
G37*
G36*
X174489Y65000D02*
X171500D01*
Y62011D01*
X172351Y62239D01*
X173149Y62699D01*
X173801Y63351D01*
X174261Y64149D01*
X174489Y65000D01*
D02*
G37*
G36*
X170500D02*
X167510D01*
X167738Y64149D01*
X168199Y63351D01*
X168851Y62699D01*
X169649Y62239D01*
X170500Y62011D01*
Y65000D01*
D02*
G37*
G36*
X39500Y61754D02*
Y58500D01*
X42754D01*
X42500Y59450D01*
X42006Y60306D01*
X41306Y61006D01*
X40450Y61500D01*
X39500Y61754D01*
D02*
G37*
G36*
X38500D02*
X37550Y61500D01*
X36694Y61006D01*
X35994Y60306D01*
X35500Y59450D01*
X35246Y58500D01*
X38500D01*
Y61754D01*
D02*
G37*
G36*
X161022Y61468D02*
X161000D01*
Y58000D01*
X164469D01*
Y58022D01*
X164198Y59032D01*
X163676Y59937D01*
X162937Y60676D01*
X162032Y61198D01*
X161022Y61468D01*
D02*
G37*
G36*
X160000D02*
X159977D01*
X158968Y61198D01*
X158063Y60676D01*
X157324Y59937D01*
X156802Y59032D01*
X156532Y58022D01*
Y58000D01*
X160000D01*
Y61468D01*
D02*
G37*
G36*
X171500Y60489D02*
Y57500D01*
X174489D01*
X174261Y58351D01*
X173801Y59149D01*
X173149Y59801D01*
X172351Y60261D01*
X171500Y60489D01*
D02*
G37*
G36*
X170500D02*
X169649Y60261D01*
X168851Y59801D01*
X168199Y59149D01*
X167738Y58351D01*
X167510Y57500D01*
X170500D01*
Y60489D01*
D02*
G37*
G36*
X42754Y57500D02*
X39500D01*
Y54246D01*
X40450Y54500D01*
X41306Y54994D01*
X42006Y55694D01*
X42500Y56550D01*
X42754Y57500D01*
D02*
G37*
G36*
X38500D02*
X35246D01*
X35500Y56550D01*
X35994Y55694D01*
X36694Y54994D01*
X37550Y54500D01*
X38500Y54246D01*
Y57500D01*
D02*
G37*
G36*
X191023Y61468D02*
X189978D01*
X188968Y61198D01*
X188063Y60676D01*
X187324Y59937D01*
X186802Y59032D01*
X186531Y58022D01*
Y56977D01*
X186802Y55968D01*
X187324Y55063D01*
X188063Y54324D01*
X188968Y53802D01*
X189978Y53531D01*
X191023D01*
X192032Y53802D01*
X192937Y54324D01*
X193676Y55063D01*
X194198Y55968D01*
X194468Y56977D01*
Y58022D01*
X194198Y59032D01*
X193676Y59937D01*
X192937Y60676D01*
X192032Y61198D01*
X191023Y61468D01*
D02*
G37*
G36*
X164469Y57000D02*
X161000D01*
Y53531D01*
X161022D01*
X162032Y53802D01*
X162937Y54324D01*
X163676Y55063D01*
X164198Y55968D01*
X164469Y56977D01*
Y57000D01*
D02*
G37*
G36*
X160000D02*
X156532D01*
Y56977D01*
X156802Y55968D01*
X157324Y55063D01*
X158063Y54324D01*
X158968Y53802D01*
X159977Y53531D01*
X160000D01*
Y57000D01*
D02*
G37*
G36*
X174489Y56500D02*
X171500D01*
Y53510D01*
X172351Y53738D01*
X173149Y54199D01*
X173801Y54851D01*
X174261Y55649D01*
X174489Y56500D01*
D02*
G37*
G36*
X170500D02*
X167510D01*
X167738Y55649D01*
X168199Y54851D01*
X168851Y54199D01*
X169649Y53738D01*
X170500Y53510D01*
Y56500D01*
D02*
G37*
G36*
X221495Y59756D02*
X220505D01*
X219550Y59500D01*
X218694Y59005D01*
X217994Y58306D01*
X217500Y57450D01*
X217244Y56494D01*
Y55506D01*
X217500Y54550D01*
X217994Y53694D01*
X218694Y52995D01*
X219550Y52500D01*
X220505Y52244D01*
X221495D01*
X222450Y52500D01*
X223306Y52995D01*
X224006Y53694D01*
X224500Y54550D01*
X224756Y55506D01*
Y56494D01*
X224500Y57450D01*
X224006Y58306D01*
X223306Y59005D01*
X222450Y59500D01*
X221495Y59756D01*
D02*
G37*
G36*
X211494D02*
X210506D01*
X209550Y59500D01*
X208694Y59005D01*
X207995Y58306D01*
X207500Y57450D01*
X207244Y56494D01*
Y55506D01*
X207500Y54550D01*
X207995Y53694D01*
X208694Y52995D01*
X209550Y52500D01*
X210506Y52244D01*
X211494D01*
X212450Y52500D01*
X213306Y52995D01*
X214005Y53694D01*
X214500Y54550D01*
X214756Y55506D01*
Y56494D01*
X214500Y57450D01*
X214005Y58306D01*
X213306Y59005D01*
X212450Y59500D01*
X211494Y59756D01*
D02*
G37*
G36*
X119994Y58756D02*
X119006D01*
X118050Y58500D01*
X117194Y58005D01*
X116495Y57306D01*
X116000Y56450D01*
X115744Y55494D01*
Y54505D01*
X116000Y53550D01*
X116495Y52694D01*
X117194Y51995D01*
X118050Y51500D01*
X119006Y51244D01*
X119994D01*
X120950Y51500D01*
X121806Y51995D01*
X122505Y52694D01*
X123000Y53550D01*
X123256Y54505D01*
Y55494D01*
X123000Y56450D01*
X122505Y57306D01*
X121806Y58005D01*
X120950Y58500D01*
X119994Y58756D01*
D02*
G37*
G36*
X235995Y53256D02*
X235005D01*
X234050Y53000D01*
X233194Y52505D01*
X232494Y51806D01*
X232000Y50950D01*
X231744Y49995D01*
Y49005D01*
X232000Y48050D01*
X232494Y47194D01*
X233194Y46494D01*
X234050Y46000D01*
X235005Y45744D01*
X235995D01*
X236950Y46000D01*
X237806Y46494D01*
X238506Y47194D01*
X239000Y48050D01*
X239256Y49005D01*
Y49995D01*
X239000Y50950D01*
X238506Y51806D01*
X237806Y52505D01*
X236950Y53000D01*
X235995Y53256D01*
D02*
G37*
G36*
X62994Y46256D02*
X62006D01*
X61050Y46000D01*
X60194Y45505D01*
X59495Y44806D01*
X59000Y43950D01*
X58744Y42994D01*
Y42006D01*
X59000Y41050D01*
X59495Y40194D01*
X60194Y39494D01*
X61050Y39000D01*
X62006Y38744D01*
X62994D01*
X63950Y39000D01*
X64806Y39494D01*
X65505Y40194D01*
X66000Y41050D01*
X66256Y42006D01*
Y42994D01*
X66000Y43950D01*
X65505Y44806D01*
X64806Y45505D01*
X63950Y46000D01*
X62994Y46256D01*
D02*
G37*
G36*
X128495Y39756D02*
X127506D01*
X126550Y39500D01*
X125694Y39006D01*
X124995Y38306D01*
X124546Y37529D01*
X106243D01*
X106034Y37669D01*
X105448Y37785D01*
X81338D01*
X81193Y37756D01*
X81149Y37801D01*
X80351Y38262D01*
X79461Y38500D01*
X78539D01*
X77649Y38262D01*
X76851Y37801D01*
X76199Y37149D01*
X75739Y36351D01*
X75500Y35461D01*
Y34539D01*
X75739Y33649D01*
X76199Y32851D01*
X76851Y32199D01*
X77649Y31738D01*
X78539Y31500D01*
X79461D01*
X80351Y31738D01*
X81149Y32199D01*
X81801Y32851D01*
X82262Y33649D01*
X82500Y34539D01*
Y34727D01*
X83784D01*
X83948Y34227D01*
X83500Y33450D01*
X83244Y32495D01*
Y31506D01*
X83500Y30550D01*
X83995Y29694D01*
X84694Y28995D01*
X85550Y28500D01*
X86506Y28244D01*
X87494D01*
X88450Y28500D01*
X89306Y28995D01*
X90005Y29694D01*
X90500Y30550D01*
X90756Y31506D01*
Y32495D01*
X90500Y33450D01*
X90052Y34227D01*
X90216Y34727D01*
X93783D01*
X93949Y34227D01*
X93500Y33450D01*
X93246Y32500D01*
X97000D01*
X100754D01*
X100500Y33450D01*
X100051Y34227D01*
X100216Y34727D01*
X104910D01*
X105119Y34587D01*
X105704Y34471D01*
X124546D01*
X124995Y33694D01*
X125694Y32994D01*
X126550Y32500D01*
X127506Y32244D01*
X128495D01*
X129450Y32500D01*
X130306Y32994D01*
X131006Y33694D01*
X131500Y34550D01*
X131756Y35506D01*
Y36494D01*
X131500Y37450D01*
X131006Y38306D01*
X130306Y39006D01*
X129450Y39500D01*
X128495Y39756D01*
D02*
G37*
G36*
X176000Y39990D02*
Y37000D01*
X178990D01*
X178761Y37851D01*
X178301Y38649D01*
X177649Y39301D01*
X176851Y39761D01*
X176000Y39990D01*
D02*
G37*
G36*
X175000D02*
X174149Y39761D01*
X173351Y39301D01*
X172699Y38649D01*
X172239Y37851D01*
X172011Y37000D01*
X175000D01*
Y39990D01*
D02*
G37*
G36*
X235995Y43256D02*
X235005D01*
X234050Y43000D01*
X233194Y42505D01*
X232494Y41806D01*
X232000Y40950D01*
X231744Y39994D01*
Y39006D01*
X232000Y38050D01*
X232494Y37194D01*
X233194Y36494D01*
X234050Y36000D01*
X235005Y35744D01*
X235995D01*
X236950Y36000D01*
X237806Y36494D01*
X238506Y37194D01*
X239000Y38050D01*
X239256Y39006D01*
Y39994D01*
X239000Y40950D01*
X238506Y41806D01*
X237806Y42505D01*
X236950Y43000D01*
X235995Y43256D01*
D02*
G37*
G36*
X12897Y37000D02*
X8500D01*
Y34506D01*
X9968D01*
X10743Y34608D01*
X11466Y34907D01*
X12086Y35383D01*
X12562Y36003D01*
X12861Y36725D01*
X12897Y37000D01*
D02*
G37*
G36*
X7500D02*
X3103D01*
X3139Y36725D01*
X3438Y36003D01*
X3914Y35383D01*
X4534Y34907D01*
X5257Y34608D01*
X6032Y34506D01*
X7500D01*
Y37000D01*
D02*
G37*
G36*
X178990Y36000D02*
X176000D01*
Y33011D01*
X176851Y33239D01*
X177649Y33699D01*
X178301Y34351D01*
X178761Y35149D01*
X178990Y36000D01*
D02*
G37*
G36*
X175000D02*
X172011D01*
X172239Y35149D01*
X172699Y34351D01*
X173351Y33699D01*
X174149Y33239D01*
X175000Y33011D01*
Y36000D01*
D02*
G37*
G36*
X138495Y39756D02*
X137505D01*
X136550Y39500D01*
X135694Y39006D01*
X134994Y38306D01*
X134500Y37450D01*
X134244Y36494D01*
Y35506D01*
X134500Y34550D01*
X134994Y33694D01*
X135694Y32994D01*
X136550Y32500D01*
X137505Y32244D01*
X138495D01*
X139450Y32500D01*
X140306Y32994D01*
X141006Y33694D01*
X141500Y34550D01*
X141756Y35506D01*
Y36494D01*
X141500Y37450D01*
X141006Y38306D01*
X140306Y39006D01*
X139450Y39500D01*
X138495Y39756D01*
D02*
G37*
G36*
X36494Y39256D02*
X35506D01*
X34550Y39000D01*
X33694Y38506D01*
X32994Y37806D01*
X32500Y36950D01*
X32244Y35994D01*
Y35006D01*
X32500Y34050D01*
X32994Y33194D01*
X33694Y32495D01*
X34550Y32000D01*
X35506Y31744D01*
X36494D01*
X37450Y32000D01*
X38306Y32495D01*
X39006Y33194D01*
X39500Y34050D01*
X39756Y35006D01*
Y35994D01*
X39500Y36950D01*
X39006Y37806D01*
X38306Y38506D01*
X37450Y39000D01*
X36494Y39256D01*
D02*
G37*
G36*
X167500Y32489D02*
Y29500D01*
X170490D01*
X170262Y30351D01*
X169801Y31149D01*
X169149Y31801D01*
X168351Y32261D01*
X167500Y32489D01*
D02*
G37*
G36*
X166500D02*
X165649Y32261D01*
X164851Y31801D01*
X164199Y31149D01*
X163739Y30351D01*
X163511Y29500D01*
X166500D01*
Y32489D01*
D02*
G37*
G36*
X100754Y31500D02*
X97500D01*
Y28246D01*
X98450Y28500D01*
X99306Y28995D01*
X100005Y29694D01*
X100500Y30550D01*
X100754Y31500D01*
D02*
G37*
G36*
X96500D02*
X93246D01*
X93500Y30550D01*
X93994Y29694D01*
X94694Y28995D01*
X95550Y28500D01*
X96500Y28246D01*
Y31500D01*
D02*
G37*
G36*
X5500Y30990D02*
Y28000D01*
X8489D01*
X8262Y28851D01*
X7801Y29649D01*
X7149Y30301D01*
X6351Y30762D01*
X5500Y30990D01*
D02*
G37*
G36*
X8489Y27000D02*
X5500D01*
Y24011D01*
X6351Y24238D01*
X7149Y24699D01*
X7801Y25351D01*
X8262Y26149D01*
X8489Y27000D01*
D02*
G37*
G36*
X191495Y26256D02*
X190506D01*
X189550Y26000D01*
X188694Y25506D01*
X187995Y24806D01*
X187500Y23950D01*
X187244Y22995D01*
Y22005D01*
X187500Y21050D01*
X187995Y20194D01*
X188694Y19494D01*
X189550Y19000D01*
X190506Y18744D01*
X191495D01*
X192450Y19000D01*
X193306Y19494D01*
X194006Y20194D01*
X194500Y21050D01*
X194756Y22005D01*
Y22995D01*
X194500Y23950D01*
X194006Y24806D01*
X193306Y25506D01*
X192450Y26000D01*
X191495Y26256D01*
D02*
G37*
G36*
X52500Y21754D02*
Y18500D01*
X55754D01*
X55500Y19450D01*
X55006Y20306D01*
X54306Y21005D01*
X53450Y21500D01*
X52500Y21754D01*
D02*
G37*
G36*
X51500D02*
X50550Y21500D01*
X49694Y21005D01*
X48994Y20306D01*
X48500Y19450D01*
X48246Y18500D01*
X51500D01*
Y21754D01*
D02*
G37*
G36*
X6000Y20490D02*
Y17500D01*
X8990D01*
X8761Y18351D01*
X8301Y19149D01*
X7649Y19801D01*
X6851Y20261D01*
X6000Y20490D01*
D02*
G37*
G36*
X213500Y18754D02*
Y15500D01*
X216754D01*
X216500Y16450D01*
X216005Y17306D01*
X215306Y18006D01*
X214450Y18500D01*
X213500Y18754D01*
D02*
G37*
G36*
X212500D02*
X211550Y18500D01*
X210694Y18006D01*
X209995Y17306D01*
X209500Y16450D01*
X209246Y15500D01*
X212500D01*
Y18754D01*
D02*
G37*
G36*
X81953Y18453D02*
X78500D01*
Y15000D01*
X81953D01*
Y18453D01*
D02*
G37*
G36*
X77500D02*
X74047D01*
Y15000D01*
X77500D01*
Y18453D01*
D02*
G37*
G36*
X55754Y17500D02*
X52500D01*
Y14246D01*
X53450Y14500D01*
X54306Y14995D01*
X55006Y15694D01*
X55500Y16550D01*
X55754Y17500D01*
D02*
G37*
G36*
X62494Y21756D02*
X61506D01*
X60550Y21500D01*
X59694Y21005D01*
X58995Y20306D01*
X58500Y19450D01*
X58244Y18495D01*
Y17505D01*
X58500Y16550D01*
X58995Y15694D01*
X59694Y14995D01*
X60550Y14500D01*
X61506Y14244D01*
X62494D01*
X63450Y14500D01*
X64306Y14995D01*
X65005Y15694D01*
X65500Y16550D01*
X65756Y17505D01*
Y18495D01*
X65500Y19450D01*
X65005Y20306D01*
X64306Y21005D01*
X63450Y21500D01*
X62494Y21756D01*
D02*
G37*
G36*
X8990Y16500D02*
X6000D01*
Y13510D01*
X6851Y13738D01*
X7649Y14199D01*
X8301Y14851D01*
X8761Y15649D01*
X8990Y16500D01*
D02*
G37*
G36*
X167000Y16254D02*
Y13000D01*
X170254D01*
X170000Y13950D01*
X169506Y14806D01*
X168806Y15506D01*
X167950Y16000D01*
X167000Y16254D01*
D02*
G37*
G36*
X166000D02*
X165050Y16000D01*
X164194Y15506D01*
X163495Y14806D01*
X163000Y13950D01*
X162746Y13000D01*
X166000D01*
Y16254D01*
D02*
G37*
G36*
X216754Y14500D02*
X213500D01*
Y11246D01*
X214450Y11500D01*
X215306Y11994D01*
X216005Y12694D01*
X216500Y13550D01*
X216754Y14500D01*
D02*
G37*
G36*
X212500D02*
X209246D01*
X209500Y13550D01*
X209995Y12694D01*
X210694Y11994D01*
X211550Y11500D01*
X212500Y11246D01*
Y14500D01*
D02*
G37*
G36*
X81953Y14000D02*
X78500D01*
Y10547D01*
X81953D01*
Y14000D01*
D02*
G37*
G36*
X77500D02*
X74047D01*
Y10547D01*
X77500D01*
Y14000D01*
D02*
G37*
G36*
X110520Y13953D02*
X110500D01*
Y10500D01*
X113953D01*
Y10520D01*
X113683Y11526D01*
X113163Y12427D01*
X112427Y13163D01*
X111526Y13683D01*
X110520Y13953D01*
D02*
G37*
G36*
X109500D02*
X109480D01*
X108474Y13683D01*
X107573Y13163D01*
X106837Y12427D01*
X106317Y11526D01*
X106047Y10520D01*
Y10500D01*
X109500D01*
Y13953D01*
D02*
G37*
G36*
X170254Y12000D02*
X167000D01*
Y8746D01*
X167950Y9000D01*
X168806Y9494D01*
X169506Y10194D01*
X170000Y11050D01*
X170254Y12000D01*
D02*
G37*
G36*
X166000D02*
X162746D01*
X163000Y11050D01*
X163495Y10194D01*
X164194Y9494D01*
X165050Y9000D01*
X166000Y8746D01*
Y12000D01*
D02*
G37*
G36*
X170490Y28500D02*
X163511D01*
X163739Y27649D01*
X164199Y26851D01*
X164766Y26284D01*
X164646Y25784D01*
X104000D01*
X103317Y25648D01*
X102738Y25262D01*
X102351Y24683D01*
X102310Y24473D01*
X93866Y16029D01*
X91681D01*
X91163Y16927D01*
X90427Y17663D01*
X89526Y18183D01*
X88520Y18453D01*
X87480D01*
X86474Y18183D01*
X85573Y17663D01*
X84837Y16927D01*
X84317Y16026D01*
X84047Y15020D01*
Y13980D01*
X84317Y12974D01*
X84837Y12073D01*
X85573Y11337D01*
X86474Y10817D01*
X87480Y10547D01*
X88520D01*
X89526Y10817D01*
X90427Y11337D01*
X91163Y12073D01*
X91681Y12971D01*
X94500D01*
X95085Y13087D01*
X95581Y13419D01*
X104379Y22216D01*
X178761D01*
X187400Y13577D01*
X187244Y12994D01*
Y12005D01*
X187500Y11050D01*
X187995Y10194D01*
X188694Y9494D01*
X189550Y9000D01*
X190506Y8744D01*
X191495D01*
X192450Y9000D01*
X193306Y9494D01*
X194006Y10194D01*
X194500Y11050D01*
X194756Y12005D01*
Y12994D01*
X194500Y13950D01*
X194006Y14806D01*
X193306Y15506D01*
X192450Y16000D01*
X191495Y16256D01*
X190506D01*
X189923Y16100D01*
X180762Y25262D01*
X180183Y25648D01*
X179500Y25784D01*
X169354D01*
X169234Y26284D01*
X169801Y26851D01*
X170262Y27649D01*
X170490Y28500D01*
D02*
G37*
G36*
X176995Y16256D02*
X176005D01*
X175050Y16000D01*
X174194Y15506D01*
X173495Y14806D01*
X173000Y13950D01*
X172744Y12994D01*
Y12005D01*
X173000Y11050D01*
X173495Y10194D01*
X174194Y9494D01*
X175050Y9000D01*
X176005Y8744D01*
X176995D01*
X177950Y9000D01*
X178806Y9494D01*
X179506Y10194D01*
X180000Y11050D01*
X180256Y12005D01*
Y12994D01*
X180000Y13950D01*
X179506Y14806D01*
X178806Y15506D01*
X177950Y16000D01*
X176995Y16256D01*
D02*
G37*
G36*
X154500Y9489D02*
Y6500D01*
X157490D01*
X157262Y7351D01*
X156801Y8149D01*
X156149Y8801D01*
X155351Y9262D01*
X154500Y9489D01*
D02*
G37*
G36*
X153500D02*
X152649Y9262D01*
X151851Y8801D01*
X151199Y8149D01*
X150739Y7351D01*
X150511Y6500D01*
X153500D01*
Y9489D01*
D02*
G37*
G36*
X29453Y9953D02*
X26000D01*
Y6500D01*
X29453D01*
Y9953D01*
D02*
G37*
G36*
X25000D02*
X21547D01*
Y6500D01*
X25000D01*
Y9953D01*
D02*
G37*
G36*
X244500Y7989D02*
X243649Y7762D01*
X242851Y7301D01*
X242199Y6649D01*
X241739Y5851D01*
X241511Y5000D01*
X244500D01*
Y7989D01*
D02*
G37*
G36*
X6000D02*
Y5000D01*
X8990D01*
X8761Y5851D01*
X8301Y6649D01*
X7649Y7301D01*
X6851Y7762D01*
X6000Y7989D01*
D02*
G37*
G36*
X157490Y5500D02*
X154500D01*
Y2510D01*
X155351Y2739D01*
X156149Y3199D01*
X156801Y3851D01*
X157262Y4649D01*
X157490Y5500D01*
D02*
G37*
G36*
X153500D02*
X150511D01*
X150739Y4649D01*
X151199Y3851D01*
X151851Y3199D01*
X152649Y2739D01*
X153500Y2510D01*
Y5500D01*
D02*
G37*
G36*
X36020Y9953D02*
X34980D01*
X33974Y9683D01*
X33073Y9163D01*
X32337Y8427D01*
X31817Y7526D01*
X31547Y6520D01*
Y5480D01*
X31817Y4474D01*
X32337Y3573D01*
X33073Y2837D01*
X33974Y2317D01*
X34980Y2047D01*
X36020D01*
X37026Y2317D01*
X37927Y2837D01*
X38663Y3573D01*
X39183Y4474D01*
X39453Y5480D01*
Y6520D01*
X39183Y7526D01*
X38663Y8427D01*
X37927Y9163D01*
X37026Y9683D01*
X36020Y9953D01*
D02*
G37*
G36*
X29453Y5500D02*
X26000D01*
Y2047D01*
X29453D01*
Y5500D01*
D02*
G37*
G36*
X25000D02*
X21547D01*
Y2047D01*
X25000D01*
Y5500D01*
D02*
G37*
%LPD*%
D11*
X228500Y131500D02*
X240000Y120000D01*
X213500Y131500D02*
X228500D01*
X213500Y118996D02*
Y131500D01*
X212502Y117998D02*
X213500Y118996D01*
X223132Y112132D02*
Y117998D01*
X213000Y102000D02*
X223132Y112132D01*
X94500Y14500D02*
X104000Y24000D01*
X88000Y14500D02*
X94500D01*
X143500Y104500D02*
X160500Y87500D01*
X143500Y104500D02*
Y105500D01*
X167000Y74000D02*
Y78500D01*
X162500Y83000D02*
X167000Y78500D01*
X156000Y83000D02*
X162500D01*
X149000Y90000D02*
X156000Y83000D01*
X137000Y90000D02*
X149000D01*
X10000Y120000D02*
Y130000D01*
X12500Y52000D02*
X74000D01*
X8000Y47500D02*
X12500Y52000D01*
X74000D02*
X95500Y73500D01*
X119500Y65000D02*
X137000Y82500D01*
Y90000D01*
X72500Y42500D02*
X117000D01*
X143000Y68500D01*
X143500Y69000D01*
X176815Y97685D02*
X180500Y94000D01*
X176815Y97685D02*
Y104000D01*
X180500Y94000D02*
X222524D01*
X228524Y100000D02*
X240000D01*
X222524Y94000D02*
X228524Y100000D01*
X79000Y35000D02*
X80082D01*
X81338Y36256D01*
X105448D01*
X105704Y36000D01*
X128000D01*
X31364Y70636D02*
X35000D01*
X42136Y63500D02*
X56000D01*
X30500Y71500D02*
X31364Y70636D01*
X35000D02*
X42136Y63500D01*
X30500Y81500D02*
X40500Y71500D01*
X160500Y67500D02*
X167000Y74000D01*
X146500Y77500D02*
X160500D01*
X144500Y75500D02*
X146500Y77500D01*
X143500Y74914D02*
X144086Y75500D01*
X144500D01*
X143500Y69000D02*
Y74914D01*
D15*
X223132Y117998D02*
D03*
X212502D02*
D03*
X176815Y104000D02*
D03*
X166185D02*
D03*
D32*
X60500Y91500D02*
X100000D01*
X107930Y99430D02*
Y104930D01*
X100000Y91500D02*
X107930Y99430D01*
Y104930D02*
X108500Y105500D01*
X40500Y71500D02*
X60500Y91500D01*
X141500Y121000D02*
X149500Y129000D01*
X124500Y121000D02*
X141500D01*
X124500Y104500D02*
Y121000D01*
X107000Y87000D02*
X124500Y104500D01*
X107000Y56500D02*
Y87000D01*
X36000Y25500D02*
X57500Y4000D01*
X134000D01*
X140000Y10000D01*
D33*
X181000Y49500D02*
X189000Y41500D01*
X166185Y98815D02*
X181000Y84000D01*
Y49500D02*
Y84000D01*
X179500Y24000D02*
X191000Y12500D01*
X104000Y24000D02*
X179500D01*
X223132Y117998D02*
X223224Y118091D01*
X226907Y88592D02*
X227000Y88500D01*
X223000Y15000D02*
Y30500D01*
X189000Y41500D02*
X212000D01*
X223000Y30500D01*
X166185Y98815D02*
Y104000D01*
X143500Y115500D02*
X154685D01*
X166185Y104000D02*
Y105181D01*
X164770Y106597D02*
X166185Y105181D01*
X163589Y106597D02*
X164770D01*
X154685Y115500D02*
X163589Y106597D01*
X166500Y120000D02*
Y131500D01*
X176815Y104000D02*
Y109685D01*
X166500Y120000D02*
X176815Y109685D01*
X227000Y88500D02*
X227408Y88092D01*
D34*
X190500Y87500D02*
D03*
Y77500D02*
D03*
Y67500D02*
D03*
Y57500D02*
D03*
X160500D02*
D03*
Y67500D02*
D03*
Y77500D02*
D03*
D35*
Y87500D02*
D03*
D36*
X137000Y90000D02*
D03*
X127000D02*
D03*
X36000Y35500D02*
D03*
Y25500D02*
D03*
X49000Y58000D02*
D03*
X39000D02*
D03*
X227000Y88500D02*
D03*
Y78500D02*
D03*
X176500Y12500D02*
D03*
X166500D02*
D03*
X119500Y55000D02*
D03*
Y65000D02*
D03*
X87000Y32000D02*
D03*
X97000D02*
D03*
X133000Y68500D02*
D03*
X143000D02*
D03*
X124500Y121000D02*
D03*
Y131000D02*
D03*
X143500Y115500D02*
D03*
Y105500D02*
D03*
X108500D02*
D03*
X98500D02*
D03*
X166500Y131500D02*
D03*
X176500D02*
D03*
X223000Y15000D02*
D03*
X213000D02*
D03*
X72500Y42500D02*
D03*
X62500D02*
D03*
X235500Y49500D02*
D03*
Y39500D02*
D03*
X213500Y131500D02*
D03*
X203500D02*
D03*
X221000Y56000D02*
D03*
X211000D02*
D03*
X191000Y22500D02*
D03*
Y12500D02*
D03*
X138000Y36000D02*
D03*
X128000D02*
D03*
X43500Y99000D02*
D03*
Y109000D02*
D03*
X62000Y18000D02*
D03*
X52000D02*
D03*
X79000Y105000D02*
D03*
X69000D02*
D03*
D37*
X78000Y14500D02*
D03*
X140000Y10000D02*
D03*
X91000Y134000D02*
D03*
X25500Y6000D02*
D03*
X49000Y133500D02*
D03*
D38*
X88000Y14500D02*
D03*
X240000Y130000D02*
D03*
Y120000D02*
D03*
Y110000D02*
D03*
X10000Y130000D02*
D03*
Y120000D02*
D03*
Y110000D02*
D03*
X110000Y10000D02*
D03*
X120000D02*
D03*
X130000D02*
D03*
X81000Y134000D02*
D03*
X35500Y6000D02*
D03*
X59000Y133500D02*
D03*
D39*
X240000Y100000D02*
D03*
X10000D02*
D03*
D40*
X40500Y81500D02*
D03*
D41*
Y71500D02*
D03*
X30500Y81500D02*
D03*
Y71500D02*
D03*
X20500Y81500D02*
D03*
Y71500D02*
D03*
D42*
X8000Y47500D02*
D03*
D43*
Y42500D02*
D03*
Y37500D02*
D03*
D44*
X213000Y102000D02*
D03*
X65000Y144000D02*
D03*
X245000Y4500D02*
D03*
X226500Y143500D02*
D03*
X148500D02*
D03*
X20500Y106000D02*
D03*
Y117500D02*
D03*
Y128000D02*
D03*
X32000Y141500D02*
D03*
X20500D02*
D03*
X6000Y71500D02*
D03*
X6500Y82500D02*
D03*
X5500Y17000D02*
D03*
X5000Y27500D02*
D03*
X5500Y4500D02*
D03*
X154000Y6000D02*
D03*
X167000Y29000D02*
D03*
X175500Y36500D02*
D03*
X171000Y57000D02*
D03*
Y65500D02*
D03*
X67500Y73000D02*
D03*
X95500Y73500D02*
D03*
X149500Y129000D02*
D03*
X107000Y56500D02*
D03*
X79000Y35000D02*
D03*
X56000Y63500D02*
D03*
M02*
