G04*
G04 #@! TF.GenerationSoftware,Altium Limited,Altium Designer,22.2.1 (43)*
G04*
G04 Layer_Color=255*
%FSLAX25Y25*%
%MOIN*%
G70*
G04*
G04 #@! TF.SameCoordinates,22AEFC0F-6C44-4056-8772-BC97FD4EFD78*
G04*
G04*
G04 #@! TF.FilePolarity,Positive*
G04*
G01*
G75*
%ADD15R,0.04331X0.06693*%
%ADD34C,0.05937*%
%ADD35R,0.05937X0.05937*%
%ADD36C,0.05512*%
%ADD37R,0.05906X0.05906*%
%ADD38C,0.05906*%
%ADD39R,0.05906X0.05906*%
%ADD40R,0.06000X0.06000*%
%ADD41C,0.06000*%
%ADD42O,0.07874X0.03937*%
%ADD43O,0.07874X0.03937*%
D15*
X223132Y117998D02*
D03*
X212502D02*
D03*
X176815Y104000D02*
D03*
X166185D02*
D03*
D34*
X190500Y87500D02*
D03*
Y77500D02*
D03*
Y67500D02*
D03*
Y57500D02*
D03*
X160500D02*
D03*
Y67500D02*
D03*
Y77500D02*
D03*
D35*
Y87500D02*
D03*
D36*
X137000Y90000D02*
D03*
X127000D02*
D03*
X36000Y35500D02*
D03*
Y25500D02*
D03*
X49000Y58000D02*
D03*
X39000D02*
D03*
X227000Y88500D02*
D03*
Y78500D02*
D03*
X176500Y12500D02*
D03*
X166500D02*
D03*
X119500Y55000D02*
D03*
Y65000D02*
D03*
X87000Y32000D02*
D03*
X97000D02*
D03*
X133000Y68500D02*
D03*
X143000D02*
D03*
X124500Y121000D02*
D03*
Y131000D02*
D03*
X143500Y115500D02*
D03*
Y105500D02*
D03*
X108500D02*
D03*
X98500D02*
D03*
X166500Y131500D02*
D03*
X176500D02*
D03*
X223000Y15000D02*
D03*
X213000D02*
D03*
X72500Y42500D02*
D03*
X62500D02*
D03*
X235500Y49500D02*
D03*
Y39500D02*
D03*
X213500Y131500D02*
D03*
X203500D02*
D03*
X221000Y56000D02*
D03*
X211000D02*
D03*
X191000Y22500D02*
D03*
Y12500D02*
D03*
X138000Y36000D02*
D03*
X128000D02*
D03*
X43500Y99000D02*
D03*
Y109000D02*
D03*
X62000Y18000D02*
D03*
X52000D02*
D03*
X79000Y105000D02*
D03*
X69000D02*
D03*
D37*
X78000Y14500D02*
D03*
X140000Y10000D02*
D03*
X91000Y134000D02*
D03*
X25500Y6000D02*
D03*
X49000Y133500D02*
D03*
D38*
X88000Y14500D02*
D03*
X240000Y130000D02*
D03*
Y120000D02*
D03*
Y110000D02*
D03*
X10000Y130000D02*
D03*
Y120000D02*
D03*
Y110000D02*
D03*
X110000Y10000D02*
D03*
X120000D02*
D03*
X130000D02*
D03*
X81000Y134000D02*
D03*
X35500Y6000D02*
D03*
X59000Y133500D02*
D03*
D39*
X240000Y100000D02*
D03*
X10000D02*
D03*
D40*
X40500Y81500D02*
D03*
D41*
Y71500D02*
D03*
X30500Y81500D02*
D03*
Y71500D02*
D03*
X20500Y81500D02*
D03*
Y71500D02*
D03*
D42*
X8000Y47500D02*
D03*
D43*
Y42500D02*
D03*
Y37500D02*
D03*
M02*
