G04*
G04 #@! TF.GenerationSoftware,Altium Limited,Altium Designer,22.2.1 (43)*
G04*
G04 Layer_Color=16711935*
%FSLAX25Y25*%
%MOIN*%
G70*
G04*
G04 #@! TF.SameCoordinates,22AEFC0F-6C44-4056-8772-BC97FD4EFD78*
G04*
G04*
G04 #@! TF.FilePolarity,Positive*
G04*
G01*
G75*
%ADD10C,0.00800*%
%ADD12C,0.00787*%
%ADD13C,0.00500*%
%ADD45C,0.00394*%
D10*
X153453Y88445D02*
G03*
X153453Y88445I-787J0D01*
G01*
D12*
X102862Y89075D02*
G03*
X102862Y89075I-394J0D01*
G01*
D13*
X155815Y52500D02*
Y92500D01*
Y52500D02*
X195185D01*
Y92500D01*
X155815D02*
X195185D01*
X102488Y65079D02*
Y80433D01*
X63512Y65079D02*
Y80433D01*
X102488D01*
X63512Y65079D02*
X102488D01*
D45*
X224510Y114455D02*
Y121541D01*
X211124Y114455D02*
Y121541D01*
X224510D01*
X211124Y114455D02*
X224510D01*
X94807Y52043D02*
X108193D01*
X94807Y44957D02*
X108193D01*
X94807D02*
Y52043D01*
X108193Y44957D02*
Y52043D01*
X164807Y107543D02*
X178193D01*
X164807Y100457D02*
X178193D01*
Y107543D01*
X164807Y100457D02*
Y107543D01*
X187957Y97307D02*
Y110693D01*
X195043Y97307D02*
Y110693D01*
X187957Y97307D02*
X195043D01*
X187957Y110693D02*
X195043D01*
M02*
