G04*
G04 #@! TF.GenerationSoftware,Altium Limited,Altium Designer,22.2.1 (43)*
G04*
G04 Layer_Physical_Order=1*
G04 Layer_Color=255*
%FSLAX25Y25*%
%MOIN*%
G70*
G04*
G04 #@! TF.SameCoordinates,22AEFC0F-6C44-4056-8772-BC97FD4EFD78*
G04*
G04*
G04 #@! TF.FilePolarity,Positive*
G04*
G01*
G75*
%ADD11C,0.01000*%
%ADD15R,0.04331X0.06693*%
G04:AMPARAMS|DCode=16|XSize=77.56mil|YSize=23.62mil|CornerRadius=2.95mil|HoleSize=0mil|Usage=FLASHONLY|Rotation=270.000|XOffset=0mil|YOffset=0mil|HoleType=Round|Shape=RoundedRectangle|*
%AMROUNDEDRECTD16*
21,1,0.07756,0.01772,0,0,270.0*
21,1,0.07165,0.02362,0,0,270.0*
1,1,0.00591,-0.00886,-0.03583*
1,1,0.00591,-0.00886,0.03583*
1,1,0.00591,0.00886,0.03583*
1,1,0.00591,0.00886,-0.03583*
%
%ADD16ROUNDEDRECTD16*%
%ADD17R,0.06693X0.04331*%
%ADD32C,0.02000*%
%ADD33C,0.01500*%
%ADD34C,0.05937*%
%ADD35R,0.05937X0.05937*%
%ADD36C,0.05512*%
%ADD37R,0.05906X0.05906*%
%ADD38C,0.05906*%
%ADD39R,0.05906X0.05906*%
%ADD40R,0.06000X0.06000*%
%ADD41C,0.06000*%
%ADD42O,0.07874X0.03937*%
%ADD43O,0.07874X0.03937*%
%ADD44C,0.05000*%
G36*
X248971Y5136D02*
X248471Y5071D01*
X248261Y5851D01*
X247801Y6649D01*
X247149Y7301D01*
X246351Y7762D01*
X245500Y7989D01*
Y4500D01*
X245000D01*
Y4000D01*
X241511D01*
X241739Y3149D01*
X242199Y2351D01*
X242521Y2029D01*
X242314Y1529D01*
X230760D01*
X230553Y2029D01*
X245262Y16738D01*
X245262Y16738D01*
X245649Y17317D01*
X245784Y18000D01*
Y81000D01*
X245649Y81683D01*
X245262Y82262D01*
X237762Y89762D01*
X237183Y90149D01*
X236500Y90284D01*
X230307D01*
X230006Y90806D01*
X229306Y91505D01*
X228450Y92000D01*
X227495Y92256D01*
X226505D01*
X225550Y92000D01*
X225305Y91858D01*
X216315Y100848D01*
X216500Y101539D01*
Y102461D01*
X216262Y103351D01*
X215801Y104149D01*
X215149Y104801D01*
X214351Y105262D01*
X213461Y105500D01*
X212539D01*
X211649Y105262D01*
X210851Y104801D01*
X210199Y104149D01*
X209738Y103351D01*
X209500Y102461D01*
Y101539D01*
X209738Y100649D01*
X210199Y99851D01*
X210851Y99199D01*
X211649Y98738D01*
X212539Y98500D01*
X213461D01*
X214152Y98685D01*
X223371Y89467D01*
X223244Y88994D01*
Y88006D01*
X223500Y87050D01*
X223994Y86194D01*
X224694Y85495D01*
X225550Y85000D01*
X226505Y84744D01*
X227495D01*
X228450Y85000D01*
X229306Y85495D01*
X230006Y86194D01*
X230307Y86716D01*
X235761D01*
X242216Y80261D01*
Y18739D01*
X228261Y4784D01*
X186739D01*
X180100Y11423D01*
X180256Y12005D01*
Y12994D01*
X180000Y13950D01*
X179506Y14806D01*
X178806Y15506D01*
X177950Y16000D01*
X176995Y16256D01*
X176005D01*
X175050Y16000D01*
X174194Y15506D01*
X173495Y14806D01*
X173000Y13950D01*
X172744Y12994D01*
Y12005D01*
X173000Y11050D01*
X173495Y10194D01*
X174194Y9494D01*
X175050Y9000D01*
X176005Y8744D01*
X176995D01*
X177577Y8900D01*
X184447Y2029D01*
X184240Y1529D01*
X8186D01*
X7979Y2029D01*
X8301Y2351D01*
X8761Y3149D01*
X8990Y4000D01*
X5500D01*
Y4500D01*
X5000D01*
Y7989D01*
X4149Y7762D01*
X3351Y7301D01*
X2699Y6649D01*
X2238Y5851D01*
X2029Y5071D01*
X1529Y5136D01*
Y16364D01*
X2029Y16430D01*
X2238Y15649D01*
X2699Y14851D01*
X3351Y14199D01*
X4149Y13738D01*
X5000Y13510D01*
Y17000D01*
Y20490D01*
X4149Y20261D01*
X3351Y19801D01*
X2699Y19149D01*
X2238Y18351D01*
X2029Y17571D01*
X1529Y17636D01*
Y25511D01*
X2029Y25645D01*
X2199Y25351D01*
X2851Y24699D01*
X3649Y24238D01*
X4500Y24011D01*
Y27500D01*
Y30990D01*
X3649Y30762D01*
X2851Y30301D01*
X2199Y29649D01*
X2029Y29355D01*
X1529Y29489D01*
Y148471D01*
X248971D01*
Y5136D01*
D02*
G37*
%LPC*%
G36*
X65500Y147490D02*
Y144500D01*
X68489D01*
X68261Y145351D01*
X67801Y146149D01*
X67149Y146801D01*
X66351Y147262D01*
X65500Y147490D01*
D02*
G37*
G36*
X64500D02*
X63649Y147262D01*
X62851Y146801D01*
X62199Y146149D01*
X61739Y145351D01*
X61510Y144500D01*
X64500D01*
Y147490D01*
D02*
G37*
G36*
X227000Y146990D02*
Y144000D01*
X229990D01*
X229762Y144851D01*
X229301Y145649D01*
X228649Y146301D01*
X227851Y146762D01*
X227000Y146990D01*
D02*
G37*
G36*
X226000D02*
X225149Y146762D01*
X224351Y146301D01*
X223699Y145649D01*
X223238Y144851D01*
X223010Y144000D01*
X226000D01*
Y146990D01*
D02*
G37*
G36*
X149000D02*
Y144000D01*
X151989D01*
X151761Y144851D01*
X151301Y145649D01*
X150649Y146301D01*
X149851Y146762D01*
X149000Y146990D01*
D02*
G37*
G36*
X148000D02*
X147149Y146762D01*
X146351Y146301D01*
X145699Y145649D01*
X145238Y144851D01*
X145010Y144000D01*
X148000D01*
Y146990D01*
D02*
G37*
G36*
X32500Y144990D02*
Y142000D01*
X35489D01*
X35261Y142851D01*
X34801Y143649D01*
X34149Y144301D01*
X33351Y144762D01*
X32500Y144990D01*
D02*
G37*
G36*
X31500D02*
X30649Y144762D01*
X29851Y144301D01*
X29199Y143649D01*
X28738Y142851D01*
X28510Y142000D01*
X31500D01*
Y144990D01*
D02*
G37*
G36*
X21000D02*
Y142000D01*
X23990D01*
X23762Y142851D01*
X23301Y143649D01*
X22649Y144301D01*
X21851Y144762D01*
X21000Y144990D01*
D02*
G37*
G36*
X20000D02*
X19149Y144762D01*
X18351Y144301D01*
X17699Y143649D01*
X17239Y142851D01*
X17010Y142000D01*
X20000D01*
Y144990D01*
D02*
G37*
G36*
X68489Y143500D02*
X65500D01*
Y140510D01*
X66351Y140738D01*
X67149Y141199D01*
X67801Y141851D01*
X68261Y142649D01*
X68489Y143500D01*
D02*
G37*
G36*
X64500D02*
X61510D01*
X61739Y142649D01*
X62199Y141851D01*
X62851Y141199D01*
X63649Y140738D01*
X64500Y140510D01*
Y143500D01*
D02*
G37*
G36*
X229990Y143000D02*
X227000D01*
Y140010D01*
X227851Y140238D01*
X228649Y140699D01*
X229301Y141351D01*
X229762Y142149D01*
X229990Y143000D01*
D02*
G37*
G36*
X226000D02*
X223010D01*
X223238Y142149D01*
X223699Y141351D01*
X224351Y140699D01*
X225149Y140238D01*
X226000Y140010D01*
Y143000D01*
D02*
G37*
G36*
X151989D02*
X149000D01*
Y140010D01*
X149851Y140238D01*
X150649Y140699D01*
X151301Y141351D01*
X151761Y142149D01*
X151989Y143000D01*
D02*
G37*
G36*
X148000D02*
X145010D01*
X145238Y142149D01*
X145699Y141351D01*
X146351Y140699D01*
X147149Y140238D01*
X148000Y140010D01*
Y143000D01*
D02*
G37*
G36*
X35489Y141000D02*
X32500D01*
Y138011D01*
X33351Y138239D01*
X34149Y138699D01*
X34801Y139351D01*
X35261Y140149D01*
X35489Y141000D01*
D02*
G37*
G36*
X31500D02*
X28510D01*
X28738Y140149D01*
X29199Y139351D01*
X29851Y138699D01*
X30649Y138239D01*
X31500Y138011D01*
Y141000D01*
D02*
G37*
G36*
X23990D02*
X21000D01*
Y138011D01*
X21851Y138239D01*
X22649Y138699D01*
X23301Y139351D01*
X23762Y140149D01*
X23990Y141000D01*
D02*
G37*
G36*
X20000D02*
X17010D01*
X17239Y140149D01*
X17699Y139351D01*
X18351Y138699D01*
X19149Y138239D01*
X20000Y138011D01*
Y141000D01*
D02*
G37*
G36*
X94953Y137953D02*
X91500D01*
Y134500D01*
X94953D01*
Y137953D01*
D02*
G37*
G36*
X90500D02*
X87047D01*
Y134500D01*
X90500D01*
Y137953D01*
D02*
G37*
G36*
X52953Y137453D02*
X49500D01*
Y134000D01*
X52953D01*
Y137453D01*
D02*
G37*
G36*
X48500D02*
X45047D01*
Y134000D01*
X48500D01*
Y137453D01*
D02*
G37*
G36*
X177000Y135254D02*
Y132000D01*
X180254D01*
X180000Y132950D01*
X179506Y133806D01*
X178806Y134505D01*
X177950Y135000D01*
X177000Y135254D01*
D02*
G37*
G36*
X204000D02*
Y132000D01*
X207254D01*
X207000Y132950D01*
X206505Y133806D01*
X205806Y134505D01*
X204950Y135000D01*
X204000Y135254D01*
D02*
G37*
G36*
X203000D02*
X202050Y135000D01*
X201194Y134505D01*
X200495Y133806D01*
X200000Y132950D01*
X199746Y132000D01*
X203000D01*
Y135254D01*
D02*
G37*
G36*
X176000D02*
X175050Y135000D01*
X174194Y134505D01*
X173495Y133806D01*
X173000Y132950D01*
X172746Y132000D01*
X176000D01*
Y135254D01*
D02*
G37*
G36*
X240520Y133953D02*
X240500D01*
Y130500D01*
X243953D01*
Y130520D01*
X243683Y131526D01*
X243163Y132427D01*
X242427Y133163D01*
X241526Y133683D01*
X240520Y133953D01*
D02*
G37*
G36*
X10520D02*
X10500D01*
Y130500D01*
X13953D01*
Y130520D01*
X13683Y131526D01*
X13163Y132427D01*
X12427Y133163D01*
X11526Y133683D01*
X10520Y133953D01*
D02*
G37*
G36*
X9500D02*
X9480D01*
X8474Y133683D01*
X7573Y133163D01*
X6837Y132427D01*
X6317Y131526D01*
X6047Y130520D01*
Y130500D01*
X9500D01*
Y133953D01*
D02*
G37*
G36*
X239500D02*
X239480D01*
X238474Y133683D01*
X237573Y133163D01*
X236837Y132427D01*
X236317Y131526D01*
X236047Y130520D01*
Y130500D01*
X239500D01*
Y133953D01*
D02*
G37*
G36*
X94953Y133500D02*
X91500D01*
Y130047D01*
X94953D01*
Y133500D01*
D02*
G37*
G36*
X90500D02*
X87047D01*
Y130047D01*
X90500D01*
Y133500D01*
D02*
G37*
G36*
X52953Y133000D02*
X49500D01*
Y129547D01*
X52953D01*
Y133000D01*
D02*
G37*
G36*
X48500D02*
X45047D01*
Y129547D01*
X48500D01*
Y133000D01*
D02*
G37*
G36*
X21000Y131490D02*
Y128500D01*
X23990D01*
X23762Y129351D01*
X23301Y130149D01*
X22649Y130801D01*
X21851Y131262D01*
X21000Y131490D01*
D02*
G37*
G36*
X20000D02*
X19149Y131262D01*
X18351Y130801D01*
X17699Y130149D01*
X17239Y129351D01*
X17010Y128500D01*
X20000D01*
Y131490D01*
D02*
G37*
G36*
X180254Y131000D02*
X177000D01*
Y127746D01*
X177950Y128000D01*
X178806Y128495D01*
X179506Y129194D01*
X180000Y130050D01*
X180254Y131000D01*
D02*
G37*
G36*
X207254D02*
X204000D01*
Y127746D01*
X204950Y128000D01*
X205806Y128495D01*
X206505Y129194D01*
X207000Y130050D01*
X207254Y131000D01*
D02*
G37*
G36*
X203000D02*
X199746D01*
X200000Y130050D01*
X200495Y129194D01*
X201194Y128495D01*
X202050Y128000D01*
X203000Y127746D01*
Y131000D01*
D02*
G37*
G36*
X176000D02*
X172746D01*
X173000Y130050D01*
X173495Y129194D01*
X174194Y128495D01*
X175050Y128000D01*
X176000Y127746D01*
Y131000D01*
D02*
G37*
G36*
X166995Y135256D02*
X166006D01*
X165050Y135000D01*
X164194Y134505D01*
X163495Y133806D01*
X163000Y132950D01*
X162744Y131994D01*
Y131006D01*
X163000Y130050D01*
X163495Y129194D01*
X164194Y128495D01*
X165050Y128000D01*
X166006Y127744D01*
X166995D01*
X167950Y128000D01*
X168806Y128495D01*
X169506Y129194D01*
X170000Y130050D01*
X170256Y131006D01*
Y131994D01*
X170000Y132950D01*
X169506Y133806D01*
X168806Y134505D01*
X167950Y135000D01*
X166995Y135256D01*
D02*
G37*
G36*
X124995Y134756D02*
X124005D01*
X123050Y134500D01*
X122194Y134005D01*
X121494Y133306D01*
X121000Y132450D01*
X120744Y131494D01*
Y130506D01*
X120824Y130208D01*
X107058Y116442D01*
X106616Y115780D01*
X106461Y115000D01*
Y108660D01*
X106194Y108505D01*
X105494Y107806D01*
X105000Y106950D01*
X104744Y105994D01*
Y105006D01*
X105000Y104050D01*
X105494Y103194D01*
X106194Y102495D01*
X106461Y102340D01*
Y93000D01*
X106616Y92220D01*
X107058Y91558D01*
X129324Y69292D01*
X129244Y68994D01*
Y68006D01*
X129500Y67050D01*
X129994Y66194D01*
X130694Y65495D01*
X131550Y65000D01*
X132506Y64744D01*
X133494D01*
X134450Y65000D01*
X135306Y65495D01*
X136005Y66194D01*
X136500Y67050D01*
X136756Y68006D01*
Y68994D01*
X136676Y69292D01*
X142942Y75558D01*
X142942Y75558D01*
X143384Y76220D01*
X143539Y77000D01*
X143539Y77000D01*
Y86655D01*
X152845Y95961D01*
X163155D01*
X167961Y91155D01*
Y81500D01*
X168116Y80720D01*
X168558Y80058D01*
X177590Y71027D01*
X177590Y71027D01*
X178251Y70585D01*
X179032Y70429D01*
X179032Y70429D01*
X187164D01*
X187355Y69967D01*
X187324Y69937D01*
X186802Y69032D01*
X186531Y68023D01*
Y66978D01*
X186650Y66534D01*
X158155Y38039D01*
X141160D01*
X141006Y38306D01*
X140306Y39006D01*
X139450Y39500D01*
X138495Y39756D01*
X137505D01*
X136550Y39500D01*
X135694Y39006D01*
X134994Y38306D01*
X134500Y37450D01*
X134244Y36494D01*
Y35506D01*
X134500Y34550D01*
X134994Y33694D01*
X135694Y32994D01*
X136550Y32500D01*
X137505Y32244D01*
X138495D01*
X139450Y32500D01*
X140306Y32994D01*
X141006Y33694D01*
X141160Y33961D01*
X159000D01*
X159780Y34116D01*
X160442Y34558D01*
X189534Y63650D01*
X189978Y63532D01*
X191023D01*
X191750Y63727D01*
X200738Y54738D01*
X200738Y54738D01*
X201317Y54352D01*
X202000Y54216D01*
X202000Y54216D01*
X207693D01*
X207995Y53694D01*
X208694Y52995D01*
X209550Y52500D01*
X210506Y52244D01*
X211494D01*
X212450Y52500D01*
X213306Y52995D01*
X214005Y53694D01*
X214500Y54550D01*
X214756Y55506D01*
Y56494D01*
X214500Y57450D01*
X214005Y58306D01*
X213306Y59005D01*
X212450Y59500D01*
X211494Y59756D01*
X210506D01*
X209550Y59500D01*
X208694Y59005D01*
X207995Y58306D01*
X207693Y57784D01*
X202739D01*
X194273Y66250D01*
X194468Y66978D01*
Y68023D01*
X194198Y69032D01*
X193676Y69937D01*
X193645Y69967D01*
X193836Y70429D01*
X203687D01*
X217324Y56792D01*
X217244Y56494D01*
Y55506D01*
X217500Y54550D01*
X217994Y53694D01*
X218694Y52995D01*
X219550Y52500D01*
X220505Y52244D01*
X221495D01*
X222450Y52500D01*
X223306Y52995D01*
X224006Y53694D01*
X224500Y54550D01*
X224756Y55506D01*
Y56494D01*
X224500Y57450D01*
X224006Y58306D01*
X223306Y59005D01*
X222450Y59500D01*
X221495Y59756D01*
X220505D01*
X220208Y59676D01*
X205973Y73910D01*
X205312Y74353D01*
X204532Y74508D01*
X193773D01*
X193582Y74970D01*
X193676Y75063D01*
X194198Y75968D01*
X194264Y76216D01*
X223982D01*
X223994Y76194D01*
X224694Y75494D01*
X225550Y75000D01*
X226505Y74744D01*
X227495D01*
X228077Y74900D01*
X234216Y68761D01*
Y53044D01*
X234050Y53000D01*
X233194Y52505D01*
X232494Y51806D01*
X232000Y50950D01*
X231744Y49995D01*
Y49005D01*
X232000Y48050D01*
X232494Y47194D01*
X233194Y46494D01*
X234050Y46000D01*
X235005Y45744D01*
X235995D01*
X236950Y46000D01*
X237806Y46494D01*
X238506Y47194D01*
X239000Y48050D01*
X239256Y49005D01*
Y49995D01*
X239000Y50950D01*
X238506Y51806D01*
X237806Y52505D01*
X237784Y52518D01*
Y69500D01*
X237649Y70183D01*
X237262Y70762D01*
X230600Y77423D01*
X230756Y78005D01*
Y78995D01*
X230500Y79950D01*
X230006Y80806D01*
X229306Y81506D01*
X228450Y82000D01*
X227495Y82256D01*
X226505D01*
X225550Y82000D01*
X224694Y81506D01*
X223994Y80806D01*
X223500Y79950D01*
X223456Y79784D01*
X193764D01*
X193676Y79937D01*
X192937Y80676D01*
X192032Y81198D01*
X191023Y81468D01*
X189978D01*
X188968Y81198D01*
X188063Y80676D01*
X187324Y79937D01*
X186802Y79032D01*
X186531Y78022D01*
Y76977D01*
X186802Y75968D01*
X187324Y75063D01*
X187418Y74970D01*
X187227Y74508D01*
X179876D01*
X172039Y82345D01*
Y92000D01*
X171884Y92780D01*
X171442Y93442D01*
X165442Y99442D01*
X164780Y99884D01*
X164000Y100039D01*
X152000D01*
X151220Y99884D01*
X150558Y99442D01*
X141218Y90102D01*
X140756Y90293D01*
Y90495D01*
X140500Y91450D01*
X140006Y92306D01*
X139306Y93006D01*
X138450Y93500D01*
X137495Y93756D01*
X136505D01*
X135550Y93500D01*
X134694Y93006D01*
X133994Y92306D01*
X133500Y91450D01*
X133244Y90495D01*
Y89505D01*
X133500Y88550D01*
X133994Y87694D01*
X134694Y86994D01*
X135550Y86500D01*
X136505Y86244D01*
X137495D01*
X138450Y86500D01*
X138961Y86795D01*
X139461Y86506D01*
Y77845D01*
X133792Y72176D01*
X133494Y72256D01*
X132506D01*
X132208Y72176D01*
X110539Y93845D01*
Y102340D01*
X110806Y102495D01*
X111505Y103194D01*
X112000Y104050D01*
X112256Y105006D01*
Y105994D01*
X112000Y106950D01*
X111505Y107806D01*
X110806Y108505D01*
X110539Y108660D01*
Y114155D01*
X123708Y127324D01*
X124005Y127244D01*
X124995D01*
X125950Y127500D01*
X126806Y127995D01*
X127506Y128694D01*
X128000Y129550D01*
X128256Y130506D01*
Y131494D01*
X128000Y132450D01*
X127506Y133306D01*
X126806Y134005D01*
X125950Y134500D01*
X124995Y134756D01*
D02*
G37*
G36*
X243953Y129500D02*
X240500D01*
Y126047D01*
X240520D01*
X241526Y126317D01*
X242427Y126837D01*
X243163Y127573D01*
X243683Y128474D01*
X243953Y129480D01*
Y129500D01*
D02*
G37*
G36*
X239500D02*
X236047D01*
Y129480D01*
X236317Y128474D01*
X236837Y127573D01*
X237573Y126837D01*
X238474Y126317D01*
X239480Y126047D01*
X239500D01*
Y129500D01*
D02*
G37*
G36*
X13953D02*
X10500D01*
Y126047D01*
X10520D01*
X11526Y126317D01*
X12427Y126837D01*
X13163Y127573D01*
X13683Y128474D01*
X13953Y129480D01*
Y129500D01*
D02*
G37*
G36*
X9500D02*
X6047D01*
Y129480D01*
X6317Y128474D01*
X6837Y127573D01*
X7573Y126837D01*
X8474Y126317D01*
X9480Y126047D01*
X9500D01*
Y129500D01*
D02*
G37*
G36*
X23990Y127500D02*
X21000D01*
Y124511D01*
X21851Y124739D01*
X22649Y125199D01*
X23301Y125851D01*
X23762Y126649D01*
X23990Y127500D01*
D02*
G37*
G36*
X20000D02*
X17010D01*
X17239Y126649D01*
X17699Y125851D01*
X18351Y125199D01*
X19149Y124739D01*
X20000Y124511D01*
Y127500D01*
D02*
G37*
G36*
X10520Y123953D02*
X10500D01*
Y120500D01*
X13953D01*
Y120520D01*
X13683Y121526D01*
X13163Y122427D01*
X12427Y123163D01*
X11526Y123683D01*
X10520Y123953D01*
D02*
G37*
G36*
X9500D02*
X9480D01*
X8474Y123683D01*
X7573Y123163D01*
X6837Y122427D01*
X6317Y121526D01*
X6047Y120520D01*
Y120500D01*
X9500D01*
Y123953D01*
D02*
G37*
G36*
X21000Y120990D02*
Y118000D01*
X23990D01*
X23762Y118851D01*
X23301Y119649D01*
X22649Y120301D01*
X21851Y120762D01*
X21000Y120990D01*
D02*
G37*
G36*
X20000D02*
X19149Y120762D01*
X18351Y120301D01*
X17699Y119649D01*
X17239Y118851D01*
X17010Y118000D01*
X20000D01*
Y120990D01*
D02*
G37*
G36*
X124995Y124756D02*
X124005D01*
X123050Y124500D01*
X122194Y124005D01*
X121494Y123306D01*
X121000Y122450D01*
X120744Y121494D01*
Y120505D01*
X121000Y119550D01*
X121494Y118694D01*
X122194Y117994D01*
X123050Y117500D01*
X124005Y117244D01*
X124995D01*
X125950Y117500D01*
X126806Y117994D01*
X127506Y118694D01*
X128000Y119550D01*
X128256Y120505D01*
Y121494D01*
X128000Y122450D01*
X127506Y123306D01*
X126806Y124005D01*
X125950Y124500D01*
X124995Y124756D01*
D02*
G37*
G36*
X213995Y135256D02*
X213005D01*
X212050Y135000D01*
X211194Y134505D01*
X210494Y133806D01*
X210000Y132950D01*
X209744Y131994D01*
Y131006D01*
X210000Y130050D01*
X210494Y129194D01*
X211194Y128495D01*
X212050Y128000D01*
X213005Y127744D01*
X213995D01*
X214577Y127900D01*
X223738Y118738D01*
X223738Y118738D01*
X224317Y118351D01*
X225000Y118216D01*
X225000Y118216D01*
X236466D01*
X236837Y117573D01*
X237573Y116837D01*
X238474Y116317D01*
X239480Y116047D01*
X240520D01*
X241526Y116317D01*
X242427Y116837D01*
X243163Y117573D01*
X243683Y118474D01*
X243953Y119480D01*
Y120520D01*
X243683Y121526D01*
X243163Y122427D01*
X242427Y123163D01*
X241526Y123683D01*
X240520Y123953D01*
X239480D01*
X238474Y123683D01*
X237573Y123163D01*
X236837Y122427D01*
X236466Y121784D01*
X225739D01*
X217100Y130423D01*
X217256Y131006D01*
Y131994D01*
X217000Y132950D01*
X216506Y133806D01*
X215806Y134505D01*
X214950Y135000D01*
X213995Y135256D01*
D02*
G37*
G36*
X13953Y119500D02*
X10500D01*
Y116047D01*
X10520D01*
X11526Y116317D01*
X12427Y116837D01*
X13163Y117573D01*
X13683Y118474D01*
X13953Y119480D01*
Y119500D01*
D02*
G37*
G36*
X9500D02*
X6047D01*
Y119480D01*
X6317Y118474D01*
X6837Y117573D01*
X7573Y116837D01*
X8474Y116317D01*
X9480Y116047D01*
X9500D01*
Y119500D01*
D02*
G37*
G36*
X23990Y117000D02*
X21000D01*
Y114011D01*
X21851Y114239D01*
X22649Y114699D01*
X23301Y115351D01*
X23762Y116149D01*
X23990Y117000D01*
D02*
G37*
G36*
X20000D02*
X17010D01*
X17239Y116149D01*
X17699Y115351D01*
X18351Y114699D01*
X19149Y114239D01*
X20000Y114011D01*
Y117000D01*
D02*
G37*
G36*
X143994Y119256D02*
X143006D01*
X142050Y119000D01*
X141194Y118506D01*
X140495Y117806D01*
X140000Y116950D01*
X139744Y115995D01*
Y115006D01*
X140000Y114050D01*
X140495Y113194D01*
X141194Y112495D01*
X142050Y112000D01*
X143006Y111744D01*
X143994D01*
X144950Y112000D01*
X145806Y112495D01*
X146505Y113194D01*
X147000Y114050D01*
X147256Y115006D01*
Y115995D01*
X147000Y116950D01*
X146505Y117806D01*
X145806Y118506D01*
X144950Y119000D01*
X143994Y119256D01*
D02*
G37*
G36*
X195846Y112480D02*
X192000D01*
Y109815D01*
X195846D01*
Y112480D01*
D02*
G37*
G36*
X191000D02*
X187153D01*
Y109815D01*
X191000D01*
Y112480D01*
D02*
G37*
G36*
X44000Y112754D02*
Y109500D01*
X47254D01*
X47000Y110450D01*
X46505Y111306D01*
X45806Y112005D01*
X44950Y112500D01*
X44000Y112754D01*
D02*
G37*
G36*
X43000D02*
X42050Y112500D01*
X41194Y112005D01*
X40494Y111306D01*
X40000Y110450D01*
X39746Y109500D01*
X43000D01*
Y112754D01*
D02*
G37*
G36*
X21000Y109490D02*
Y106500D01*
X23990D01*
X23762Y107351D01*
X23301Y108149D01*
X22649Y108801D01*
X21851Y109262D01*
X21000Y109490D01*
D02*
G37*
G36*
X20000D02*
X19149Y109262D01*
X18351Y108801D01*
X17699Y108149D01*
X17239Y107351D01*
X17010Y106500D01*
X20000D01*
Y109490D01*
D02*
G37*
G36*
X195846Y108815D02*
X192000D01*
Y106150D01*
X195846D01*
Y108815D01*
D02*
G37*
G36*
X191000D02*
X187153D01*
Y106150D01*
X191000D01*
Y108815D01*
D02*
G37*
G36*
X149961Y132500D02*
X149039D01*
X148149Y132262D01*
X147351Y131801D01*
X146699Y131149D01*
X146239Y130351D01*
X146000Y129461D01*
Y128539D01*
X146239Y127649D01*
X146699Y126851D01*
X147351Y126199D01*
X148149Y125739D01*
X149039Y125500D01*
X149961D01*
X150083Y125533D01*
X164058Y111558D01*
X164720Y111116D01*
X165500Y110961D01*
X175655D01*
X181461Y105155D01*
Y100500D01*
X181616Y99720D01*
X182058Y99058D01*
X183873Y97243D01*
X184535Y96801D01*
X185315Y96646D01*
X187153D01*
Y95520D01*
X188461D01*
Y90905D01*
X188063Y90676D01*
X187324Y89937D01*
X186802Y89032D01*
X186531Y88023D01*
Y86977D01*
X186802Y85968D01*
X187324Y85063D01*
X188063Y84324D01*
X188968Y83802D01*
X189978Y83531D01*
X191023D01*
X192032Y83802D01*
X192937Y84324D01*
X193676Y85063D01*
X194198Y85968D01*
X194468Y86977D01*
Y88023D01*
X194198Y89032D01*
X193676Y89937D01*
X192937Y90676D01*
X192539Y90905D01*
Y95520D01*
X195846D01*
Y98057D01*
X197097D01*
X197877Y98212D01*
X198538Y98655D01*
X207845Y107961D01*
X236613D01*
X236837Y107573D01*
X237573Y106837D01*
X238474Y106317D01*
X239480Y106047D01*
X240520D01*
X241526Y106317D01*
X242427Y106837D01*
X243163Y107573D01*
X243683Y108474D01*
X243953Y109480D01*
Y110520D01*
X243683Y111526D01*
X243163Y112427D01*
X242427Y113163D01*
X241526Y113683D01*
X240520Y113953D01*
X239480D01*
X238474Y113683D01*
X237573Y113163D01*
X236837Y112427D01*
X236613Y112039D01*
X207000D01*
X206220Y111884D01*
X205558Y111442D01*
X196252Y102136D01*
X192911D01*
X192131Y101980D01*
X191937Y101850D01*
X187153D01*
Y100724D01*
X186160D01*
X185539Y101345D01*
Y106000D01*
X185384Y106780D01*
X184942Y107442D01*
X184942Y107442D01*
X177942Y114442D01*
X177280Y114884D01*
X176500Y115039D01*
X166345D01*
X152967Y128417D01*
X153000Y128539D01*
Y129461D01*
X152761Y130351D01*
X152301Y131149D01*
X151649Y131801D01*
X150851Y132262D01*
X149961Y132500D01*
D02*
G37*
G36*
X10520Y113953D02*
X9480D01*
X8474Y113683D01*
X7573Y113163D01*
X6837Y112427D01*
X6317Y111526D01*
X6047Y110520D01*
Y109480D01*
X6317Y108474D01*
X6837Y107573D01*
X7573Y106837D01*
X8474Y106317D01*
X9480Y106047D01*
X10520D01*
X11526Y106317D01*
X12427Y106837D01*
X13163Y107573D01*
X13683Y108474D01*
X13953Y109480D01*
Y110520D01*
X13683Y111526D01*
X13163Y112427D01*
X12427Y113163D01*
X11526Y113683D01*
X10520Y113953D01*
D02*
G37*
G36*
X99000Y109254D02*
Y106000D01*
X102254D01*
X102000Y106950D01*
X101505Y107806D01*
X100806Y108505D01*
X99950Y109000D01*
X99000Y109254D01*
D02*
G37*
G36*
X98000D02*
X97050Y109000D01*
X96194Y108505D01*
X95495Y107806D01*
X95000Y106950D01*
X94746Y106000D01*
X98000D01*
Y109254D01*
D02*
G37*
G36*
X69500Y108754D02*
Y105500D01*
X72754D01*
X72500Y106450D01*
X72005Y107306D01*
X71306Y108005D01*
X70450Y108500D01*
X69500Y108754D01*
D02*
G37*
G36*
X68500D02*
X67550Y108500D01*
X66694Y108005D01*
X65995Y107306D01*
X65500Y106450D01*
X65246Y105500D01*
X68500D01*
Y108754D01*
D02*
G37*
G36*
X47254Y108500D02*
X44000D01*
Y105246D01*
X44950Y105500D01*
X45806Y105994D01*
X46505Y106694D01*
X47000Y107550D01*
X47254Y108500D01*
D02*
G37*
G36*
X43000D02*
X39746D01*
X40000Y107550D01*
X40494Y106694D01*
X41194Y105994D01*
X42050Y105500D01*
X43000Y105246D01*
Y108500D01*
D02*
G37*
G36*
X23990Y105500D02*
X21000D01*
Y102510D01*
X21851Y102738D01*
X22649Y103199D01*
X23301Y103851D01*
X23762Y104649D01*
X23990Y105500D01*
D02*
G37*
G36*
X20000D02*
X17010D01*
X17239Y104649D01*
X17699Y103851D01*
X18351Y103199D01*
X19149Y102738D01*
X20000Y102510D01*
Y105500D01*
D02*
G37*
G36*
X102254Y105000D02*
X99000D01*
Y101746D01*
X99950Y102000D01*
X100806Y102495D01*
X101505Y103194D01*
X102000Y104050D01*
X102254Y105000D01*
D02*
G37*
G36*
X98000D02*
X94746D01*
X95000Y104050D01*
X95495Y103194D01*
X96194Y102495D01*
X97050Y102000D01*
X98000Y101746D01*
Y105000D01*
D02*
G37*
G36*
X143994Y109256D02*
X143006D01*
X142050Y109000D01*
X141194Y108505D01*
X140495Y107806D01*
X140000Y106950D01*
X139744Y105994D01*
Y105006D01*
X140000Y104050D01*
X140495Y103194D01*
X141194Y102495D01*
X142050Y102000D01*
X143006Y101744D01*
X143994D01*
X144950Y102000D01*
X145806Y102495D01*
X146505Y103194D01*
X147000Y104050D01*
X147256Y105006D01*
Y105994D01*
X147000Y106950D01*
X146505Y107806D01*
X145806Y108505D01*
X144950Y109000D01*
X143994Y109256D01*
D02*
G37*
G36*
X72754Y104500D02*
X69500D01*
Y101246D01*
X70450Y101500D01*
X71306Y101995D01*
X72005Y102694D01*
X72500Y103550D01*
X72754Y104500D01*
D02*
G37*
G36*
X68500D02*
X65246D01*
X65500Y103550D01*
X65995Y102694D01*
X66694Y101995D01*
X67550Y101500D01*
X68500Y101246D01*
Y104500D01*
D02*
G37*
G36*
X243953Y103953D02*
X236047D01*
Y96047D01*
X243953D01*
Y103953D01*
D02*
G37*
G36*
X128500Y145529D02*
X111000D01*
X110415Y145413D01*
X109919Y145081D01*
X104919Y140081D01*
X104587Y139585D01*
X104471Y139000D01*
Y132633D01*
X89419Y117581D01*
X89087Y117085D01*
X88971Y116500D01*
Y97846D01*
X88509Y97654D01*
X82524Y103639D01*
X82756Y104506D01*
Y105494D01*
X82500Y106450D01*
X82092Y107156D01*
X82413Y107636D01*
X82529Y108221D01*
Y130319D01*
X83427Y130837D01*
X84163Y131573D01*
X84683Y132474D01*
X84953Y133480D01*
Y134520D01*
X84683Y135526D01*
X84163Y136427D01*
X83427Y137163D01*
X82526Y137683D01*
X81520Y137953D01*
X80480D01*
X79474Y137683D01*
X78573Y137163D01*
X77837Y136427D01*
X77317Y135526D01*
X77047Y134520D01*
Y133480D01*
X77317Y132474D01*
X77837Y131573D01*
X78573Y130837D01*
X79471Y130319D01*
Y108854D01*
X79372Y108756D01*
X78505D01*
X77550Y108500D01*
X76694Y108005D01*
X75994Y107306D01*
X75500Y106450D01*
X75244Y105494D01*
Y104506D01*
X75500Y103550D01*
X75994Y102694D01*
X76694Y101995D01*
X77550Y101500D01*
X78505Y101244D01*
X79495D01*
X80361Y101476D01*
X88971Y92866D01*
Y87211D01*
X88680Y87016D01*
X88394Y86588D01*
X88293Y86083D01*
Y78917D01*
X88394Y78412D01*
X88680Y77983D01*
X88971Y77789D01*
Y71342D01*
X87659Y70031D01*
X87198Y70277D01*
X87284Y70709D01*
X87284Y70709D01*
Y77960D01*
X87320Y77983D01*
X87606Y78412D01*
X87707Y78917D01*
Y86083D01*
X87606Y86588D01*
X87320Y87016D01*
X86891Y87303D01*
X86386Y87403D01*
X84614D01*
X84109Y87303D01*
X83680Y87016D01*
X83394Y86588D01*
X83293Y86083D01*
Y78917D01*
X83394Y78412D01*
X83680Y77983D01*
X83716Y77960D01*
Y71448D01*
X82431Y70163D01*
X81970Y70409D01*
X82029Y70709D01*
Y77789D01*
X82320Y77983D01*
X82606Y78412D01*
X82706Y78917D01*
Y86083D01*
X82606Y86588D01*
X82320Y87016D01*
X81891Y87303D01*
X81386Y87403D01*
X79614D01*
X79109Y87303D01*
X78680Y87016D01*
X78394Y86588D01*
X78294Y86083D01*
Y78917D01*
X78394Y78412D01*
X78680Y77983D01*
X78971Y77789D01*
Y71342D01*
X77036Y69408D01*
X76648Y69726D01*
X76913Y70123D01*
X77029Y70709D01*
Y77789D01*
X77320Y77983D01*
X77606Y78412D01*
X77706Y78917D01*
Y86083D01*
X77606Y86588D01*
X77320Y87016D01*
X77029Y87211D01*
Y94500D01*
X76913Y95085D01*
X76581Y95581D01*
X72081Y100081D01*
X71585Y100413D01*
X71000Y100529D01*
X47846D01*
X47654Y100991D01*
X60081Y113419D01*
X60413Y113915D01*
X60529Y114500D01*
Y129819D01*
X61427Y130337D01*
X62163Y131073D01*
X62683Y131974D01*
X62953Y132980D01*
Y134020D01*
X62683Y135026D01*
X62163Y135927D01*
X61427Y136663D01*
X60526Y137183D01*
X59520Y137453D01*
X58480D01*
X57474Y137183D01*
X56573Y136663D01*
X55837Y135927D01*
X55317Y135026D01*
X55047Y134020D01*
Y132980D01*
X55317Y131974D01*
X55837Y131073D01*
X56573Y130337D01*
X57471Y129819D01*
Y115134D01*
X44861Y102524D01*
X43995Y102756D01*
X43005D01*
X42050Y102500D01*
X41194Y102006D01*
X40494Y101306D01*
X40000Y100450D01*
X39744Y99494D01*
Y98506D01*
X40000Y97550D01*
X40494Y96694D01*
X41194Y95995D01*
X42050Y95500D01*
X43005Y95244D01*
X43995D01*
X44950Y95500D01*
X45806Y95995D01*
X46505Y96694D01*
X46954Y97471D01*
X70367D01*
X73971Y93866D01*
Y87211D01*
X73680Y87016D01*
X73394Y86588D01*
X73294Y86083D01*
Y78917D01*
X73394Y78412D01*
X73680Y77983D01*
X73971Y77789D01*
Y71342D01*
X70544Y67915D01*
X69614D01*
X69109Y67815D01*
X68680Y67528D01*
X68394Y67100D01*
X68293Y66594D01*
Y59429D01*
X68394Y58924D01*
X68680Y58495D01*
X68971Y58301D01*
Y51134D01*
X63861Y46024D01*
X62994Y46256D01*
X62006D01*
X61050Y46000D01*
X60194Y45505D01*
X59495Y44806D01*
X59000Y43950D01*
X58744Y42994D01*
Y42006D01*
X59000Y41050D01*
X59495Y40194D01*
X60194Y39494D01*
X61050Y39000D01*
X62006Y38744D01*
X62994D01*
X63950Y39000D01*
X64806Y39494D01*
X65505Y40194D01*
X66000Y41050D01*
X66256Y42006D01*
Y42994D01*
X66024Y43861D01*
X71581Y49419D01*
X71913Y49915D01*
X72029Y50500D01*
Y58301D01*
X72320Y58495D01*
X72606Y58924D01*
X72707Y59429D01*
Y65388D01*
X72794Y65446D01*
X73294Y65179D01*
Y59429D01*
X73394Y58924D01*
X73680Y58495D01*
X73971Y58301D01*
Y52500D01*
X74087Y51915D01*
X74419Y51419D01*
X77471Y48366D01*
Y38159D01*
X76851Y37801D01*
X76199Y37149D01*
X75739Y36351D01*
X75500Y35461D01*
Y34539D01*
X75685Y33848D01*
X63361Y21524D01*
X62494Y21756D01*
X61506D01*
X60550Y21500D01*
X59694Y21005D01*
X58995Y20306D01*
X58500Y19450D01*
X58244Y18495D01*
Y17505D01*
X58476Y16639D01*
X49367Y7529D01*
X39181D01*
X38663Y8427D01*
X37927Y9163D01*
X37026Y9683D01*
X36020Y9953D01*
X34980D01*
X33974Y9683D01*
X33073Y9163D01*
X32337Y8427D01*
X31817Y7526D01*
X31547Y6520D01*
Y5480D01*
X31817Y4474D01*
X32337Y3573D01*
X33073Y2837D01*
X33974Y2317D01*
X34980Y2047D01*
X36020D01*
X37026Y2317D01*
X37927Y2837D01*
X38663Y3573D01*
X39181Y4471D01*
X50000D01*
X50585Y4587D01*
X51081Y4919D01*
X60639Y14476D01*
X61506Y14244D01*
X62494D01*
X63450Y14500D01*
X64306Y14995D01*
X65005Y15694D01*
X65500Y16550D01*
X65756Y17505D01*
Y18495D01*
X65524Y19361D01*
X77848Y31685D01*
X78539Y31500D01*
X79461D01*
X80351Y31738D01*
X81149Y32199D01*
X81801Y32851D01*
X82262Y33649D01*
X82500Y34539D01*
Y35461D01*
X82262Y36351D01*
X81801Y37149D01*
X81149Y37801D01*
X80529Y38159D01*
Y49000D01*
X80413Y49585D01*
X80081Y50081D01*
X77029Y53133D01*
Y58301D01*
X77320Y58495D01*
X77606Y58924D01*
X77706Y59429D01*
Y65388D01*
X77794Y65446D01*
X78294Y65179D01*
Y59429D01*
X78394Y58924D01*
X78680Y58495D01*
X79109Y58209D01*
X79614Y58109D01*
X80183D01*
X85216Y53076D01*
Y35307D01*
X84694Y35006D01*
X83995Y34306D01*
X83500Y33450D01*
X83244Y32495D01*
Y31506D01*
X83500Y30550D01*
X83995Y29694D01*
X84694Y28995D01*
X85550Y28500D01*
X85971Y28387D01*
Y17893D01*
X85573Y17663D01*
X84837Y16927D01*
X84317Y16026D01*
X84047Y15020D01*
Y13980D01*
X84317Y12974D01*
X84837Y12073D01*
X85573Y11337D01*
X86474Y10817D01*
X87480Y10547D01*
X88520D01*
X89526Y10817D01*
X90427Y11337D01*
X91163Y12073D01*
X91683Y12974D01*
X91953Y13980D01*
Y15020D01*
X91683Y16026D01*
X91163Y16927D01*
X90427Y17663D01*
X89526Y18183D01*
X89029Y18316D01*
Y28835D01*
X89306Y28995D01*
X90005Y29694D01*
X90500Y30550D01*
X90756Y31506D01*
Y32495D01*
X90500Y33450D01*
X90005Y34306D01*
X89306Y35006D01*
X88784Y35307D01*
Y40625D01*
X89284Y40832D01*
X91558Y38558D01*
X92220Y38116D01*
X93000Y37961D01*
X97155D01*
X103961Y31155D01*
Y24000D01*
X104116Y23220D01*
X104558Y22558D01*
X116163Y10953D01*
X116047Y10520D01*
Y9480D01*
X116317Y8474D01*
X116837Y7573D01*
X117573Y6837D01*
X118474Y6317D01*
X119480Y6047D01*
X120520D01*
X121526Y6317D01*
X122427Y6837D01*
X123163Y7573D01*
X123683Y8474D01*
X123953Y9480D01*
Y10520D01*
X123683Y11526D01*
X123163Y12427D01*
X122427Y13163D01*
X121526Y13683D01*
X120520Y13953D01*
X119480D01*
X119047Y13837D01*
X108039Y24845D01*
Y32000D01*
X107884Y32780D01*
X107442Y33442D01*
X99442Y41442D01*
X98780Y41884D01*
X98000Y42039D01*
X93845D01*
X92539Y43345D01*
Y44107D01*
X93020Y44153D01*
Y44154D01*
X94823D01*
X95020Y44114D01*
X95217Y44154D01*
X99350D01*
Y52846D01*
X98224D01*
Y54002D01*
X101077Y56854D01*
X102299Y55632D01*
X102961Y55190D01*
X103741Y55035D01*
X103805D01*
X104199Y54351D01*
X104851Y53699D01*
X105462Y53347D01*
X105328Y52846D01*
X103650D01*
Y49000D01*
X106815D01*
X109980D01*
Y52846D01*
X108672D01*
X108538Y53347D01*
X109149Y53699D01*
X109801Y54351D01*
X110261Y55149D01*
X110500Y56039D01*
Y56961D01*
X110261Y57851D01*
X109856Y58553D01*
X110256Y58860D01*
X111961Y57155D01*
Y33500D01*
X112116Y32720D01*
X112558Y32058D01*
X127961Y16655D01*
Y13387D01*
X127573Y13163D01*
X126837Y12427D01*
X126317Y11526D01*
X126047Y10520D01*
Y9480D01*
X126317Y8474D01*
X126837Y7573D01*
X127573Y6837D01*
X128474Y6317D01*
X129480Y6047D01*
X130520D01*
X131526Y6317D01*
X132427Y6837D01*
X133163Y7573D01*
X133683Y8474D01*
X133953Y9480D01*
Y10520D01*
X133683Y11526D01*
X133163Y12427D01*
X132427Y13163D01*
X132039Y13387D01*
Y17500D01*
X131884Y18280D01*
X131442Y18942D01*
X116039Y34345D01*
Y52572D01*
X116139Y52599D01*
X116539Y52649D01*
X117194Y51995D01*
X118050Y51500D01*
X119006Y51244D01*
X119994D01*
X120950Y51500D01*
X121806Y51995D01*
X122505Y52694D01*
X122954Y53471D01*
X144000D01*
X144585Y53587D01*
X145081Y53919D01*
X153581Y62419D01*
X153913Y62915D01*
X154029Y63500D01*
Y83867D01*
X156032Y85869D01*
X156532Y85724D01*
Y83531D01*
X164469D01*
Y91469D01*
X156532D01*
Y89029D01*
X155500D01*
X154915Y88913D01*
X154419Y88581D01*
X151419Y85581D01*
X151087Y85085D01*
X150971Y84500D01*
Y64134D01*
X143367Y56529D01*
X122954D01*
X122505Y57306D01*
X121806Y58005D01*
X120950Y58500D01*
X119994Y58756D01*
X119006D01*
X118050Y58500D01*
X117194Y58005D01*
X116539Y57351D01*
X116139Y57401D01*
X116039Y57428D01*
Y58000D01*
X115884Y58780D01*
X115442Y59442D01*
X111539Y63345D01*
Y84500D01*
X111384Y85280D01*
X110942Y85942D01*
X106442Y90442D01*
X105780Y90884D01*
X105000Y91039D01*
X97000D01*
X97000Y91039D01*
X96220Y90884D01*
X95558Y90442D01*
X94239Y89123D01*
X93797Y88462D01*
X93642Y87681D01*
Y86959D01*
X93394Y86588D01*
X93293Y86083D01*
Y78917D01*
X93394Y78412D01*
X93680Y77983D01*
X94109Y77697D01*
X94614Y77597D01*
X96386D01*
X96891Y77697D01*
X97320Y77983D01*
X97606Y78412D01*
X97707Y78917D01*
Y82612D01*
X97720Y82681D01*
Y86594D01*
X97941Y86651D01*
X98326Y86247D01*
X98294Y86083D01*
Y78917D01*
X98394Y78412D01*
X98680Y77983D01*
X98971Y77789D01*
Y75489D01*
X98471Y75355D01*
X98301Y75649D01*
X97649Y76301D01*
X96851Y76762D01*
X95961Y77000D01*
X95039D01*
X94149Y76762D01*
X93351Y76301D01*
X92699Y75649D01*
X92529Y75355D01*
X92029Y75489D01*
Y77789D01*
X92320Y77983D01*
X92606Y78412D01*
X92707Y78917D01*
Y86083D01*
X92606Y86588D01*
X92320Y87016D01*
X92029Y87211D01*
Y93500D01*
Y115866D01*
X107081Y130919D01*
X107413Y131415D01*
X107529Y132000D01*
Y138366D01*
X111634Y142471D01*
X127866D01*
X132971Y137366D01*
Y128133D01*
X131919Y127081D01*
X131587Y126585D01*
X131471Y126000D01*
Y96633D01*
X128361Y93524D01*
X127495Y93756D01*
X126505D01*
X125550Y93500D01*
X124694Y93006D01*
X123995Y92306D01*
X123500Y91450D01*
X123244Y90495D01*
Y89505D01*
X123500Y88550D01*
X123995Y87694D01*
X124694Y86994D01*
X125550Y86500D01*
X126505Y86244D01*
X127495D01*
X128450Y86500D01*
X129306Y86994D01*
X130006Y87694D01*
X130500Y88550D01*
X130756Y89505D01*
Y90495D01*
X130524Y91361D01*
X134081Y94919D01*
X134413Y95415D01*
X134529Y96000D01*
Y125366D01*
X135581Y126419D01*
X135913Y126915D01*
X136029Y127500D01*
Y138000D01*
X135913Y138585D01*
X135581Y139081D01*
X129581Y145081D01*
X129085Y145413D01*
X128500Y145529D01*
D02*
G37*
G36*
X66386Y87403D02*
X66000D01*
Y83000D01*
X67707D01*
Y86083D01*
X67606Y86588D01*
X67320Y87016D01*
X66891Y87303D01*
X66386Y87403D01*
D02*
G37*
G36*
X7000Y85989D02*
Y83000D01*
X9990D01*
X9762Y83851D01*
X9301Y84649D01*
X8649Y85301D01*
X7851Y85761D01*
X7000Y85989D01*
D02*
G37*
G36*
X6000D02*
X5149Y85761D01*
X4351Y85301D01*
X3699Y84649D01*
X3238Y83851D01*
X3011Y83000D01*
X6000D01*
Y85989D01*
D02*
G37*
G36*
X65000Y87403D02*
X64614D01*
X64109Y87303D01*
X63680Y87016D01*
X63394Y86588D01*
X63293Y86083D01*
Y83000D01*
X65000D01*
Y87403D01*
D02*
G37*
G36*
X9990Y82000D02*
X7000D01*
Y79010D01*
X7851Y79238D01*
X8649Y79699D01*
X9301Y80351D01*
X9762Y81149D01*
X9990Y82000D01*
D02*
G37*
G36*
X6000D02*
X3011D01*
X3238Y81149D01*
X3699Y80351D01*
X4351Y79699D01*
X5149Y79238D01*
X6000Y79010D01*
Y82000D01*
D02*
G37*
G36*
X67500Y94529D02*
X52000D01*
X51415Y94413D01*
X50919Y94081D01*
X42337Y85500D01*
X36500D01*
Y77500D01*
X44500D01*
Y83337D01*
X52634Y91471D01*
X66866D01*
X68971Y89367D01*
Y87211D01*
X68680Y87016D01*
X68394Y86588D01*
X68293Y86083D01*
Y78917D01*
X68394Y78412D01*
X68680Y77983D01*
X69109Y77697D01*
X69614Y77597D01*
X71386D01*
X71891Y77697D01*
X72320Y77983D01*
X72606Y78412D01*
X72707Y78917D01*
Y86083D01*
X72606Y86588D01*
X72320Y87016D01*
X72029Y87211D01*
Y90000D01*
X71913Y90585D01*
X71581Y91081D01*
X68581Y94081D01*
X68085Y94413D01*
X67500Y94529D01*
D02*
G37*
G36*
X67707Y82000D02*
X66000D01*
Y77597D01*
X66386D01*
X66891Y77697D01*
X67320Y77983D01*
X67606Y78412D01*
X67707Y78917D01*
Y82000D01*
D02*
G37*
G36*
X65000D02*
X63293D01*
Y78917D01*
X63394Y78412D01*
X63680Y77983D01*
X64109Y77697D01*
X64614Y77597D01*
X65000D01*
Y82000D01*
D02*
G37*
G36*
X31027Y85500D02*
X29973D01*
X28956Y85227D01*
X28044Y84701D01*
X27299Y83956D01*
X26773Y83044D01*
X26500Y82027D01*
Y80973D01*
X26773Y79956D01*
X27299Y79044D01*
X28044Y78299D01*
X28956Y77773D01*
X29973Y77500D01*
X31027D01*
X32044Y77773D01*
X32956Y78299D01*
X33701Y79044D01*
X34227Y79956D01*
X34500Y80973D01*
Y82027D01*
X34227Y83044D01*
X33701Y83956D01*
X32956Y84701D01*
X32044Y85227D01*
X31027Y85500D01*
D02*
G37*
G36*
X13953Y103953D02*
X6047D01*
Y96047D01*
X8471D01*
Y92000D01*
X8587Y91415D01*
X8919Y90919D01*
X16780Y83057D01*
X16773Y83044D01*
X16500Y82027D01*
Y80973D01*
X16773Y79956D01*
X17299Y79044D01*
X18044Y78299D01*
X18956Y77773D01*
X19973Y77500D01*
X21027D01*
X22044Y77773D01*
X22956Y78299D01*
X23701Y79044D01*
X24227Y79956D01*
X24500Y80973D01*
Y82027D01*
X24227Y83044D01*
X23701Y83956D01*
X22956Y84701D01*
X22044Y85227D01*
X21027Y85500D01*
X19973D01*
X18956Y85227D01*
X18943Y85220D01*
X11529Y92633D01*
Y96047D01*
X13953D01*
Y103953D01*
D02*
G37*
G36*
X161022Y81468D02*
X159977D01*
X158968Y81198D01*
X158063Y80676D01*
X157324Y79937D01*
X156802Y79032D01*
X156532Y78022D01*
Y76977D01*
X156802Y75968D01*
X157324Y75063D01*
X158063Y74324D01*
X158968Y73802D01*
X159977Y73532D01*
X161022D01*
X162032Y73802D01*
X162937Y74324D01*
X163676Y75063D01*
X164198Y75968D01*
X164469Y76977D01*
Y78022D01*
X164198Y79032D01*
X163676Y79937D01*
X162937Y80676D01*
X162032Y81198D01*
X161022Y81468D01*
D02*
G37*
G36*
X68000Y76490D02*
Y73500D01*
X70990D01*
X70762Y74351D01*
X70301Y75149D01*
X69649Y75801D01*
X68851Y76262D01*
X68000Y76490D01*
D02*
G37*
G36*
X67000D02*
X66149Y76262D01*
X65351Y75801D01*
X64699Y75149D01*
X64239Y74351D01*
X64011Y73500D01*
X67000D01*
Y76490D01*
D02*
G37*
G36*
X21027Y75500D02*
X21000D01*
Y72000D01*
X24500D01*
Y72027D01*
X24227Y73044D01*
X23701Y73956D01*
X22956Y74701D01*
X22044Y75227D01*
X21027Y75500D01*
D02*
G37*
G36*
X6500Y74989D02*
Y72000D01*
X9489D01*
X9262Y72851D01*
X8801Y73649D01*
X8149Y74301D01*
X7351Y74761D01*
X6500Y74989D01*
D02*
G37*
G36*
X5500D02*
X4649Y74761D01*
X3851Y74301D01*
X3199Y73649D01*
X2739Y72851D01*
X2510Y72000D01*
X5500D01*
Y74989D01*
D02*
G37*
G36*
X20000Y75500D02*
X19973D01*
X18956Y75227D01*
X18044Y74701D01*
X17299Y73956D01*
X16773Y73044D01*
X16500Y72027D01*
Y72000D01*
X20000D01*
Y75500D01*
D02*
G37*
G36*
X70990Y72500D02*
X68000D01*
Y69511D01*
X68851Y69739D01*
X69649Y70199D01*
X70301Y70851D01*
X70762Y71649D01*
X70990Y72500D01*
D02*
G37*
G36*
X67000D02*
X64011D01*
X64239Y71649D01*
X64699Y70851D01*
X65351Y70199D01*
X66149Y69739D01*
X67000Y69511D01*
Y72500D01*
D02*
G37*
G36*
X9489Y71000D02*
X6500D01*
Y68010D01*
X7351Y68239D01*
X8149Y68699D01*
X8801Y69351D01*
X9262Y70149D01*
X9489Y71000D01*
D02*
G37*
G36*
X5500D02*
X2510D01*
X2739Y70149D01*
X3199Y69351D01*
X3851Y68699D01*
X4649Y68239D01*
X5500Y68010D01*
Y71000D01*
D02*
G37*
G36*
X41027Y75500D02*
X39973D01*
X38956Y75227D01*
X38044Y74701D01*
X37299Y73956D01*
X36773Y73044D01*
X36500Y72027D01*
Y70973D01*
X36773Y69956D01*
X37299Y69044D01*
X38044Y68299D01*
X38956Y67773D01*
X39973Y67500D01*
X41027D01*
X42044Y67773D01*
X42956Y68299D01*
X43701Y69044D01*
X44227Y69956D01*
X44500Y70973D01*
Y72027D01*
X44227Y73044D01*
X43701Y73956D01*
X42956Y74701D01*
X42044Y75227D01*
X41027Y75500D01*
D02*
G37*
G36*
X31027D02*
X29973D01*
X28956Y75227D01*
X28044Y74701D01*
X27299Y73956D01*
X26773Y73044D01*
X26500Y72027D01*
Y70973D01*
X26773Y69956D01*
X27299Y69044D01*
X28044Y68299D01*
X28956Y67773D01*
X29973Y67500D01*
X31027D01*
X32044Y67773D01*
X32956Y68299D01*
X33701Y69044D01*
X34227Y69956D01*
X34500Y70973D01*
Y72027D01*
X34227Y73044D01*
X33701Y73956D01*
X32956Y74701D01*
X32044Y75227D01*
X31027Y75500D01*
D02*
G37*
G36*
X24500Y71000D02*
X21000D01*
Y67500D01*
X21027D01*
X22044Y67773D01*
X22956Y68299D01*
X23701Y69044D01*
X24227Y69956D01*
X24500Y70973D01*
Y71000D01*
D02*
G37*
G36*
X20000D02*
X16500D01*
Y70973D01*
X16773Y69956D01*
X17299Y69044D01*
X18044Y68299D01*
X18956Y67773D01*
X19973Y67500D01*
X20000D01*
Y71000D01*
D02*
G37*
G36*
X171500Y68989D02*
Y66000D01*
X174489D01*
X174261Y66851D01*
X173801Y67649D01*
X173149Y68301D01*
X172351Y68761D01*
X171500Y68989D01*
D02*
G37*
G36*
X170500D02*
X169649Y68761D01*
X168851Y68301D01*
X168199Y67649D01*
X167738Y66851D01*
X167510Y66000D01*
X170500D01*
Y68989D01*
D02*
G37*
G36*
X66386Y67915D02*
X64614D01*
X64109Y67815D01*
X63680Y67528D01*
X63394Y67100D01*
X63293Y66594D01*
Y65029D01*
X59158D01*
X58801Y65649D01*
X58149Y66301D01*
X57351Y66761D01*
X56461Y67000D01*
X55539D01*
X54649Y66761D01*
X53851Y66301D01*
X53199Y65649D01*
X52738Y64851D01*
X52500Y63961D01*
Y63039D01*
X52738Y62149D01*
X53199Y61351D01*
X53851Y60699D01*
X54649Y60238D01*
X55539Y60000D01*
X56461D01*
X57351Y60238D01*
X58149Y60699D01*
X58801Y61351D01*
X59158Y61971D01*
X63293D01*
Y59429D01*
X63394Y58924D01*
X63680Y58495D01*
X64109Y58209D01*
X64614Y58109D01*
X66386D01*
X66891Y58209D01*
X67320Y58495D01*
X67606Y58924D01*
X67707Y59429D01*
Y66594D01*
X67606Y67100D01*
X67320Y67528D01*
X66891Y67815D01*
X66386Y67915D01*
D02*
G37*
G36*
X143494Y72256D02*
X142506D01*
X141550Y72000D01*
X140694Y71505D01*
X139995Y70806D01*
X139500Y69950D01*
X139244Y68994D01*
Y68006D01*
X139500Y67050D01*
X139995Y66194D01*
X140694Y65495D01*
X141550Y65000D01*
X142506Y64744D01*
X143494D01*
X144450Y65000D01*
X145306Y65495D01*
X146005Y66194D01*
X146500Y67050D01*
X146756Y68006D01*
Y68994D01*
X146500Y69950D01*
X146005Y70806D01*
X145306Y71505D01*
X144450Y72000D01*
X143494Y72256D01*
D02*
G37*
G36*
X161022Y71469D02*
X159977D01*
X158968Y71198D01*
X158063Y70676D01*
X157324Y69937D01*
X156802Y69032D01*
X156532Y68023D01*
Y66978D01*
X156802Y65968D01*
X157324Y65063D01*
X158063Y64324D01*
X158968Y63802D01*
X159977Y63532D01*
X161022D01*
X162032Y63802D01*
X162937Y64324D01*
X163676Y65063D01*
X164198Y65968D01*
X164469Y66978D01*
Y68023D01*
X164198Y69032D01*
X163676Y69937D01*
X162937Y70676D01*
X162032Y71198D01*
X161022Y71469D01*
D02*
G37*
G36*
X174489Y65000D02*
X171500D01*
Y62011D01*
X172351Y62239D01*
X173149Y62699D01*
X173801Y63351D01*
X174261Y64149D01*
X174489Y65000D01*
D02*
G37*
G36*
X170500D02*
X167510D01*
X167738Y64149D01*
X168199Y63351D01*
X168851Y62699D01*
X169649Y62239D01*
X170500Y62011D01*
Y65000D01*
D02*
G37*
G36*
X119994Y68756D02*
X119006D01*
X118050Y68500D01*
X117194Y68006D01*
X116495Y67306D01*
X116000Y66450D01*
X115744Y65495D01*
Y64505D01*
X116000Y63550D01*
X116495Y62694D01*
X117194Y61994D01*
X118050Y61500D01*
X119006Y61244D01*
X119994D01*
X120950Y61500D01*
X121806Y61994D01*
X122505Y62694D01*
X123000Y63550D01*
X123256Y64505D01*
Y65495D01*
X123000Y66450D01*
X122505Y67306D01*
X121806Y68006D01*
X120950Y68500D01*
X119994Y68756D01*
D02*
G37*
G36*
X39500Y61754D02*
Y58500D01*
X42754D01*
X42500Y59450D01*
X42006Y60306D01*
X41306Y61006D01*
X40450Y61500D01*
X39500Y61754D01*
D02*
G37*
G36*
X38500D02*
X37550Y61500D01*
X36694Y61006D01*
X35994Y60306D01*
X35500Y59450D01*
X35246Y58500D01*
X38500D01*
Y61754D01*
D02*
G37*
G36*
X161022Y61468D02*
X161000D01*
Y58000D01*
X164469D01*
Y58022D01*
X164198Y59032D01*
X163676Y59937D01*
X162937Y60676D01*
X162032Y61198D01*
X161022Y61468D01*
D02*
G37*
G36*
X160000D02*
X159977D01*
X158968Y61198D01*
X158063Y60676D01*
X157324Y59937D01*
X156802Y59032D01*
X156532Y58022D01*
Y58000D01*
X160000D01*
Y61468D01*
D02*
G37*
G36*
X171500Y60489D02*
Y57500D01*
X174489D01*
X174261Y58351D01*
X173801Y59149D01*
X173149Y59801D01*
X172351Y60261D01*
X171500Y60489D01*
D02*
G37*
G36*
X170500D02*
X169649Y60261D01*
X168851Y59801D01*
X168199Y59149D01*
X167738Y58351D01*
X167510Y57500D01*
X170500D01*
Y60489D01*
D02*
G37*
G36*
X42754Y57500D02*
X39500D01*
Y54246D01*
X40450Y54500D01*
X41306Y54994D01*
X42006Y55694D01*
X42500Y56550D01*
X42754Y57500D01*
D02*
G37*
G36*
X38500D02*
X35246D01*
X35500Y56550D01*
X35994Y55694D01*
X36694Y54994D01*
X37550Y54500D01*
X38500Y54246D01*
Y57500D01*
D02*
G37*
G36*
X164469Y57000D02*
X161000D01*
Y53531D01*
X161022D01*
X162032Y53802D01*
X162937Y54324D01*
X163676Y55063D01*
X164198Y55968D01*
X164469Y56977D01*
Y57000D01*
D02*
G37*
G36*
X160000D02*
X156532D01*
Y56977D01*
X156802Y55968D01*
X157324Y55063D01*
X158063Y54324D01*
X158968Y53802D01*
X159977Y53531D01*
X160000D01*
Y57000D01*
D02*
G37*
G36*
X174489Y56500D02*
X171500D01*
Y53510D01*
X172351Y53738D01*
X173149Y54199D01*
X173801Y54851D01*
X174261Y55649D01*
X174489Y56500D01*
D02*
G37*
G36*
X170500D02*
X167510D01*
X167738Y55649D01*
X168199Y54851D01*
X168851Y54199D01*
X169649Y53738D01*
X170500Y53510D01*
Y56500D01*
D02*
G37*
G36*
X109980Y48000D02*
X107315D01*
Y44154D01*
X109980D01*
Y48000D01*
D02*
G37*
G36*
X106315D02*
X103650D01*
Y44154D01*
X106315D01*
Y48000D01*
D02*
G37*
G36*
X49494Y61756D02*
X48505D01*
X47550Y61500D01*
X46694Y61006D01*
X45994Y60306D01*
X45500Y59450D01*
X45244Y58495D01*
Y57506D01*
X45500Y56550D01*
X45994Y55694D01*
X46694Y54994D01*
X47471Y54546D01*
Y49134D01*
X37361Y39024D01*
X36494Y39256D01*
X35506D01*
X34639Y39024D01*
X30081Y43581D01*
X29585Y43913D01*
X29000Y44029D01*
X12537D01*
X12086Y44617D01*
X11913Y44750D01*
Y45250D01*
X12086Y45383D01*
X12562Y46003D01*
X12861Y46725D01*
X12963Y47500D01*
X12861Y48275D01*
X12562Y48997D01*
X12086Y49617D01*
X11466Y50093D01*
X10743Y50392D01*
X9968Y50494D01*
X6032D01*
X5257Y50392D01*
X4534Y50093D01*
X3914Y49617D01*
X3438Y48997D01*
X3139Y48275D01*
X3037Y47500D01*
X3139Y46725D01*
X3438Y46003D01*
X3914Y45383D01*
X4087Y45250D01*
Y44750D01*
X3914Y44617D01*
X3438Y43997D01*
X3139Y43275D01*
X3037Y42500D01*
X3139Y41725D01*
X3438Y41003D01*
X3914Y40383D01*
X4087Y40250D01*
Y39750D01*
X3914Y39617D01*
X3438Y38997D01*
X3139Y38275D01*
X3103Y38000D01*
X12897D01*
X12861Y38275D01*
X12562Y38997D01*
X12086Y39617D01*
X11913Y39750D01*
Y40250D01*
X12086Y40383D01*
X12537Y40971D01*
X28367D01*
X32476Y36861D01*
X32244Y35994D01*
Y35006D01*
X32500Y34050D01*
X32994Y33194D01*
X33694Y32495D01*
X34550Y32000D01*
X35506Y31744D01*
X36494D01*
X37450Y32000D01*
X38306Y32495D01*
X39006Y33194D01*
X39500Y34050D01*
X39756Y35006D01*
Y35994D01*
X39524Y36861D01*
X50081Y47419D01*
X50413Y47915D01*
X50529Y48500D01*
Y54546D01*
X51306Y54994D01*
X52005Y55694D01*
X52500Y56550D01*
X52756Y57506D01*
Y58495D01*
X52500Y59450D01*
X52005Y60306D01*
X51306Y61006D01*
X50450Y61500D01*
X49494Y61756D01*
D02*
G37*
G36*
X72995Y46256D02*
X72005D01*
X71050Y46000D01*
X70194Y45505D01*
X69494Y44806D01*
X69000Y43950D01*
X68744Y42994D01*
Y42006D01*
X69000Y41050D01*
X69494Y40194D01*
X70194Y39494D01*
X71050Y39000D01*
X72005Y38744D01*
X72995D01*
X73950Y39000D01*
X74806Y39494D01*
X75506Y40194D01*
X76000Y41050D01*
X76256Y42006D01*
Y42994D01*
X76000Y43950D01*
X75506Y44806D01*
X74806Y45505D01*
X73950Y46000D01*
X72995Y46256D01*
D02*
G37*
G36*
X176000Y39990D02*
Y37000D01*
X178990D01*
X178761Y37851D01*
X178301Y38649D01*
X177649Y39301D01*
X176851Y39761D01*
X176000Y39990D01*
D02*
G37*
G36*
X175000D02*
X174149Y39761D01*
X173351Y39301D01*
X172699Y38649D01*
X172239Y37851D01*
X172011Y37000D01*
X175000D01*
Y39990D01*
D02*
G37*
G36*
X191023Y61468D02*
X189978D01*
X188968Y61198D01*
X188063Y60676D01*
X187324Y59937D01*
X186802Y59032D01*
X186531Y58022D01*
Y56977D01*
X186802Y55968D01*
X187324Y55063D01*
X188063Y54324D01*
X188966Y53803D01*
Y25662D01*
X188694Y25506D01*
X187995Y24806D01*
X187500Y23950D01*
X187244Y22995D01*
Y22005D01*
X187500Y21050D01*
X187995Y20194D01*
X188694Y19494D01*
X189550Y19000D01*
X190506Y18744D01*
X191495D01*
X192450Y19000D01*
X193306Y19494D01*
X194006Y20194D01*
X194307Y20716D01*
X207500D01*
X208183Y20852D01*
X208762Y21238D01*
X225239Y37716D01*
X232193D01*
X232494Y37194D01*
X233194Y36494D01*
X234050Y36000D01*
X235005Y35744D01*
X235995D01*
X236950Y36000D01*
X237806Y36494D01*
X238506Y37194D01*
X239000Y38050D01*
X239256Y39006D01*
Y39994D01*
X239000Y40950D01*
X238506Y41806D01*
X237806Y42505D01*
X236950Y43000D01*
X235995Y43256D01*
X235005D01*
X234050Y43000D01*
X233194Y42505D01*
X232494Y41806D01*
X232193Y41284D01*
X224500D01*
X223817Y41148D01*
X223238Y40762D01*
X206761Y24284D01*
X194307D01*
X194006Y24806D01*
X193306Y25506D01*
X192534Y25951D01*
Y54092D01*
X192937Y54324D01*
X193676Y55063D01*
X194198Y55968D01*
X194468Y56977D01*
Y58022D01*
X194198Y59032D01*
X193676Y59937D01*
X192937Y60676D01*
X192032Y61198D01*
X191023Y61468D01*
D02*
G37*
G36*
X12897Y37000D02*
X8500D01*
Y34506D01*
X9968D01*
X10743Y34608D01*
X11466Y34907D01*
X12086Y35383D01*
X12562Y36003D01*
X12861Y36725D01*
X12897Y37000D01*
D02*
G37*
G36*
X7500D02*
X3103D01*
X3139Y36725D01*
X3438Y36003D01*
X3914Y35383D01*
X4534Y34907D01*
X5257Y34608D01*
X6032Y34506D01*
X7500D01*
Y37000D01*
D02*
G37*
G36*
X178990Y36000D02*
X176000D01*
Y33011D01*
X176851Y33239D01*
X177649Y33699D01*
X178301Y34351D01*
X178761Y35149D01*
X178990Y36000D01*
D02*
G37*
G36*
X175000D02*
X172011D01*
X172239Y35149D01*
X172699Y34351D01*
X173351Y33699D01*
X174149Y33239D01*
X175000Y33011D01*
Y36000D01*
D02*
G37*
G36*
X97500Y35754D02*
Y32500D01*
X100754D01*
X100500Y33450D01*
X100005Y34306D01*
X99306Y35006D01*
X98450Y35500D01*
X97500Y35754D01*
D02*
G37*
G36*
X96500D02*
X95550Y35500D01*
X94694Y35006D01*
X93994Y34306D01*
X93500Y33450D01*
X93246Y32500D01*
X96500D01*
Y35754D01*
D02*
G37*
G36*
X128495Y39756D02*
X127506D01*
X126550Y39500D01*
X125694Y39006D01*
X124995Y38306D01*
X124500Y37450D01*
X124244Y36494D01*
Y35506D01*
X124500Y34550D01*
X124995Y33694D01*
X125694Y32994D01*
X126550Y32500D01*
X127506Y32244D01*
X128495D01*
X129450Y32500D01*
X130306Y32994D01*
X131006Y33694D01*
X131500Y34550D01*
X131756Y35506D01*
Y36494D01*
X131500Y37450D01*
X131006Y38306D01*
X130306Y39006D01*
X129450Y39500D01*
X128495Y39756D01*
D02*
G37*
G36*
X167500Y32489D02*
Y29500D01*
X170490D01*
X170262Y30351D01*
X169801Y31149D01*
X169149Y31801D01*
X168351Y32261D01*
X167500Y32489D01*
D02*
G37*
G36*
X166500D02*
X165649Y32261D01*
X164851Y31801D01*
X164199Y31149D01*
X163739Y30351D01*
X163511Y29500D01*
X166500D01*
Y32489D01*
D02*
G37*
G36*
X100754Y31500D02*
X97500D01*
Y28246D01*
X98450Y28500D01*
X99306Y28995D01*
X100005Y29694D01*
X100500Y30550D01*
X100754Y31500D01*
D02*
G37*
G36*
X96500D02*
X93246D01*
X93500Y30550D01*
X93994Y29694D01*
X94694Y28995D01*
X95550Y28500D01*
X96500Y28246D01*
Y31500D01*
D02*
G37*
G36*
X5500Y30990D02*
Y28000D01*
X8489D01*
X8262Y28851D01*
X7801Y29649D01*
X7149Y30301D01*
X6351Y30762D01*
X5500Y30990D01*
D02*
G37*
G36*
X170490Y28500D02*
X167500D01*
Y25510D01*
X168351Y25738D01*
X169149Y26199D01*
X169801Y26851D01*
X170262Y27649D01*
X170490Y28500D01*
D02*
G37*
G36*
X166500D02*
X163511D01*
X163739Y27649D01*
X164199Y26851D01*
X164851Y26199D01*
X165649Y25738D01*
X166500Y25510D01*
Y28500D01*
D02*
G37*
G36*
X8489Y27000D02*
X5500D01*
Y24011D01*
X6351Y24238D01*
X7149Y24699D01*
X7801Y25351D01*
X8262Y26149D01*
X8489Y27000D01*
D02*
G37*
G36*
X36494Y29256D02*
X35506D01*
X34550Y29000D01*
X33694Y28506D01*
X32994Y27806D01*
X32500Y26950D01*
X32244Y25995D01*
Y25005D01*
X32500Y24050D01*
X32994Y23194D01*
X33694Y22494D01*
X34550Y22000D01*
X35506Y21744D01*
X36494D01*
X37450Y22000D01*
X38306Y22494D01*
X39006Y23194D01*
X39500Y24050D01*
X39756Y25005D01*
Y25995D01*
X39500Y26950D01*
X39006Y27806D01*
X38306Y28506D01*
X37450Y29000D01*
X36494Y29256D01*
D02*
G37*
G36*
X52500Y21754D02*
Y18500D01*
X55754D01*
X55500Y19450D01*
X55006Y20306D01*
X54306Y21005D01*
X53450Y21500D01*
X52500Y21754D01*
D02*
G37*
G36*
X51500D02*
X50550Y21500D01*
X49694Y21005D01*
X48994Y20306D01*
X48500Y19450D01*
X48246Y18500D01*
X51500D01*
Y21754D01*
D02*
G37*
G36*
X6000Y20490D02*
Y17500D01*
X8990D01*
X8761Y18351D01*
X8301Y19149D01*
X7649Y19801D01*
X6851Y20261D01*
X6000Y20490D01*
D02*
G37*
G36*
X213500Y18754D02*
Y15500D01*
X216754D01*
X216500Y16450D01*
X216005Y17306D01*
X215306Y18006D01*
X214450Y18500D01*
X213500Y18754D01*
D02*
G37*
G36*
X212500D02*
X211550Y18500D01*
X210694Y18006D01*
X209995Y17306D01*
X209500Y16450D01*
X209246Y15500D01*
X212500D01*
Y18754D01*
D02*
G37*
G36*
X81953Y18453D02*
X78500D01*
Y15000D01*
X81953D01*
Y18453D01*
D02*
G37*
G36*
X77500D02*
X74047D01*
Y15000D01*
X77500D01*
Y18453D01*
D02*
G37*
G36*
X55754Y17500D02*
X52500D01*
Y14246D01*
X53450Y14500D01*
X54306Y14995D01*
X55006Y15694D01*
X55500Y16550D01*
X55754Y17500D01*
D02*
G37*
G36*
X51500D02*
X48246D01*
X48500Y16550D01*
X48994Y15694D01*
X49694Y14995D01*
X50550Y14500D01*
X51500Y14246D01*
Y17500D01*
D02*
G37*
G36*
X8990Y16500D02*
X6000D01*
Y13510D01*
X6851Y13738D01*
X7649Y14199D01*
X8301Y14851D01*
X8761Y15649D01*
X8990Y16500D01*
D02*
G37*
G36*
X167000Y16254D02*
Y13000D01*
X170254D01*
X170000Y13950D01*
X169506Y14806D01*
X168806Y15506D01*
X167950Y16000D01*
X167000Y16254D01*
D02*
G37*
G36*
X166000D02*
X165050Y16000D01*
X164194Y15506D01*
X163495Y14806D01*
X163000Y13950D01*
X162746Y13000D01*
X166000D01*
Y16254D01*
D02*
G37*
G36*
X216754Y14500D02*
X213500D01*
Y11246D01*
X214450Y11500D01*
X215306Y11994D01*
X216005Y12694D01*
X216500Y13550D01*
X216754Y14500D01*
D02*
G37*
G36*
X212500D02*
X209246D01*
X209500Y13550D01*
X209995Y12694D01*
X210694Y11994D01*
X211550Y11500D01*
X212500Y11246D01*
Y14500D01*
D02*
G37*
G36*
X223495Y18756D02*
X222505D01*
X221550Y18500D01*
X220694Y18006D01*
X219994Y17306D01*
X219500Y16450D01*
X219244Y15495D01*
Y14505D01*
X219500Y13550D01*
X219994Y12694D01*
X220694Y11994D01*
X221550Y11500D01*
X222505Y11244D01*
X223495D01*
X224450Y11500D01*
X225306Y11994D01*
X226006Y12694D01*
X226500Y13550D01*
X226756Y14505D01*
Y15495D01*
X226500Y16450D01*
X226006Y17306D01*
X225306Y18006D01*
X224450Y18500D01*
X223495Y18756D01*
D02*
G37*
G36*
X81953Y14000D02*
X78500D01*
Y10547D01*
X81953D01*
Y14000D01*
D02*
G37*
G36*
X77500D02*
X74047D01*
Y10547D01*
X77500D01*
Y14000D01*
D02*
G37*
G36*
X110520Y13953D02*
X110500D01*
Y10500D01*
X113953D01*
Y10520D01*
X113683Y11526D01*
X113163Y12427D01*
X112427Y13163D01*
X111526Y13683D01*
X110520Y13953D01*
D02*
G37*
G36*
X109500D02*
X109480D01*
X108474Y13683D01*
X107573Y13163D01*
X106837Y12427D01*
X106317Y11526D01*
X106047Y10520D01*
Y10500D01*
X109500D01*
Y13953D01*
D02*
G37*
G36*
X170254Y12000D02*
X167000D01*
Y8746D01*
X167950Y9000D01*
X168806Y9494D01*
X169506Y10194D01*
X170000Y11050D01*
X170254Y12000D01*
D02*
G37*
G36*
X166000D02*
X162746D01*
X163000Y11050D01*
X163495Y10194D01*
X164194Y9494D01*
X165050Y9000D01*
X166000Y8746D01*
Y12000D01*
D02*
G37*
G36*
X191495Y16256D02*
X190506D01*
X189550Y16000D01*
X188694Y15506D01*
X187995Y14806D01*
X187500Y13950D01*
X187244Y12994D01*
Y12005D01*
X187500Y11050D01*
X187995Y10194D01*
X188694Y9494D01*
X189550Y9000D01*
X190506Y8744D01*
X191495D01*
X192450Y9000D01*
X193306Y9494D01*
X194006Y10194D01*
X194500Y11050D01*
X194756Y12005D01*
Y12994D01*
X194500Y13950D01*
X194006Y14806D01*
X193306Y15506D01*
X192450Y16000D01*
X191495Y16256D01*
D02*
G37*
G36*
X154500Y9489D02*
Y6500D01*
X157490D01*
X157262Y7351D01*
X156801Y8149D01*
X156149Y8801D01*
X155351Y9262D01*
X154500Y9489D01*
D02*
G37*
G36*
X153500D02*
X152649Y9262D01*
X151851Y8801D01*
X151199Y8149D01*
X150739Y7351D01*
X150511Y6500D01*
X153500D01*
Y9489D01*
D02*
G37*
G36*
X29453Y9953D02*
X26000D01*
Y6500D01*
X29453D01*
Y9953D01*
D02*
G37*
G36*
X25000D02*
X21547D01*
Y6500D01*
X25000D01*
Y9953D01*
D02*
G37*
G36*
X143953Y13953D02*
X136047D01*
Y6047D01*
X143953D01*
Y13953D01*
D02*
G37*
G36*
X113953Y9500D02*
X110500D01*
Y6047D01*
X110520D01*
X111526Y6317D01*
X112427Y6837D01*
X113163Y7573D01*
X113683Y8474D01*
X113953Y9480D01*
Y9500D01*
D02*
G37*
G36*
X109500D02*
X106047D01*
Y9480D01*
X106317Y8474D01*
X106837Y7573D01*
X107573Y6837D01*
X108474Y6317D01*
X109480Y6047D01*
X109500D01*
Y9500D01*
D02*
G37*
G36*
X244500Y7989D02*
X243649Y7762D01*
X242851Y7301D01*
X242199Y6649D01*
X241739Y5851D01*
X241511Y5000D01*
X244500D01*
Y7989D01*
D02*
G37*
G36*
X6000D02*
Y5000D01*
X8990D01*
X8761Y5851D01*
X8301Y6649D01*
X7649Y7301D01*
X6851Y7762D01*
X6000Y7989D01*
D02*
G37*
G36*
X157490Y5500D02*
X154500D01*
Y2510D01*
X155351Y2739D01*
X156149Y3199D01*
X156801Y3851D01*
X157262Y4649D01*
X157490Y5500D01*
D02*
G37*
G36*
X153500D02*
X150511D01*
X150739Y4649D01*
X151199Y3851D01*
X151851Y3199D01*
X152649Y2739D01*
X153500Y2510D01*
Y5500D01*
D02*
G37*
G36*
X29453D02*
X26000D01*
Y2047D01*
X29453D01*
Y5500D01*
D02*
G37*
G36*
X25000D02*
X21547D01*
Y2047D01*
X25000D01*
Y5500D01*
D02*
G37*
%LPD*%
G36*
X107461Y83655D02*
Y62500D01*
X107616Y61720D01*
X108058Y61058D01*
X109360Y59756D01*
X109053Y59356D01*
X108351Y59762D01*
X107461Y60000D01*
X106539D01*
X105649Y59762D01*
X104851Y59301D01*
X104663Y59113D01*
X104586D01*
X102707Y60992D01*
Y66594D01*
X102606Y67100D01*
X102320Y67528D01*
X101891Y67815D01*
X101386Y67915D01*
X100523D01*
X100331Y68377D01*
X101581Y69627D01*
X101913Y70123D01*
X102029Y70709D01*
Y77789D01*
X102320Y77983D01*
X102606Y78412D01*
X102707Y78917D01*
Y86083D01*
X102631Y86461D01*
X102912Y86961D01*
X104155D01*
X107461Y83655D01*
D02*
G37*
G36*
X92699Y71351D02*
X93351Y70699D01*
X93971Y70341D01*
Y67722D01*
X93680Y67528D01*
X93394Y67100D01*
X93293Y66594D01*
Y59429D01*
X93394Y58924D01*
X93680Y58495D01*
X94109Y58209D01*
X94614Y58109D01*
X95856D01*
X96063Y57608D01*
X94743Y56288D01*
X94301Y55627D01*
X94146Y54847D01*
Y52846D01*
X93020D01*
Y52846D01*
X92539Y52894D01*
Y58824D01*
X92606Y58924D01*
X92707Y59429D01*
Y66594D01*
X92606Y67100D01*
X92320Y67528D01*
X91891Y67815D01*
X91386Y67915D01*
X90523D01*
X90331Y68377D01*
X91581Y69627D01*
X91913Y70123D01*
X92029Y70709D01*
Y71511D01*
X92529Y71645D01*
X92699Y71351D01*
D02*
G37*
D11*
X226500Y88500D02*
X227000D01*
X213000Y102000D02*
X226500Y88500D01*
X87500Y15000D02*
Y31500D01*
Y15000D02*
X88000Y14500D01*
X87000Y32000D02*
X87500Y31500D01*
X95500Y65709D02*
Y73500D01*
Y63012D02*
Y65709D01*
X90500Y93500D02*
Y116500D01*
X106000Y132000D01*
Y139000D01*
X111000Y144000D01*
X127000Y90000D02*
X133000Y96000D01*
X134500Y127500D02*
Y138000D01*
X128500Y144000D02*
X134500Y138000D01*
X111000Y144000D02*
X128500D01*
X133000Y126000D02*
X134500Y127500D01*
X133000Y96000D02*
Y126000D01*
X100500Y70709D02*
Y82500D01*
X95500Y65709D02*
X100500Y70709D01*
X90500D02*
Y82500D01*
X85500Y65709D02*
X90500Y70709D01*
X85500Y63012D02*
Y65709D01*
X75500Y63012D02*
Y65709D01*
X80500Y70709D02*
Y82500D01*
X75500Y65709D02*
X80500Y70709D01*
X75500D02*
Y82500D01*
X70500Y65709D02*
X75500Y70709D01*
X70500Y63012D02*
Y65709D01*
X152500Y84500D02*
X155500Y87500D01*
X160500D01*
X144000Y55000D02*
X152500Y63500D01*
Y84500D01*
X62000Y18000D02*
X79000Y35000D01*
Y49000D01*
X75500Y82500D02*
Y94500D01*
X71000Y99000D02*
X75500Y94500D01*
X43500Y99000D02*
X71000D01*
X59000Y114500D02*
Y133500D01*
X43500Y99000D02*
X59000Y114500D01*
X79000Y106221D02*
X81000Y108221D01*
Y134000D01*
X79000Y105000D02*
Y106221D01*
Y105000D02*
X90500Y93500D01*
Y82500D02*
Y93500D01*
X65012Y63500D02*
X65500Y63012D01*
X56000Y63500D02*
X65012D01*
X70500Y82500D02*
Y90000D01*
X67500Y93000D02*
X70500Y90000D01*
X52000Y93000D02*
X67500D01*
X40500Y81500D02*
X52000Y93000D01*
X10000Y92000D02*
Y100000D01*
Y92000D02*
X20500Y81500D01*
X29000Y42500D02*
X36000Y35500D01*
X8000Y42500D02*
X29000D01*
X8000Y47500D02*
X9968D01*
X50000Y6000D02*
X62000Y18000D01*
X35500Y6000D02*
X50000D01*
X62500Y42500D02*
X70500Y50500D01*
Y63012D01*
X75500Y52500D02*
Y63012D01*
Y52500D02*
X79000Y49000D01*
X36000Y35500D02*
X49000Y48500D01*
Y58000D01*
X119500Y55000D02*
X144000D01*
D15*
X96185Y48500D02*
D03*
X106815D02*
D03*
D16*
X100500Y82500D02*
D03*
X95500D02*
D03*
X90500D02*
D03*
X85500D02*
D03*
X80500D02*
D03*
X75500D02*
D03*
X70500D02*
D03*
X65500D02*
D03*
Y63012D02*
D03*
X70500D02*
D03*
X75500D02*
D03*
X80500D02*
D03*
X85500D02*
D03*
X90500D02*
D03*
X95500D02*
D03*
X100500D02*
D03*
D17*
X191500Y98685D02*
D03*
Y109315D02*
D03*
D32*
X114000Y33500D02*
Y58000D01*
Y33500D02*
X130000Y17500D01*
X185315Y98685D02*
X191500D01*
X183500Y100500D02*
X185315Y98685D01*
X183500Y100500D02*
Y106000D01*
X176500Y113000D02*
X183500Y106000D01*
X149500Y129000D02*
X165500Y113000D01*
X176500D01*
X108500Y93000D02*
X133000Y68500D01*
X108500Y93000D02*
Y105500D01*
X103741Y57074D02*
X106426D01*
X107000Y56500D01*
X100500Y60315D02*
X103741Y57074D01*
X105000Y89000D02*
X109500Y84500D01*
X97000Y89000D02*
X105000D01*
X130000Y10000D02*
Y17500D01*
X109500Y62500D02*
X114000Y58000D01*
X109500Y62500D02*
Y84500D01*
X96185Y54847D02*
X100319Y58980D01*
X96185Y48500D02*
Y54847D01*
Y47319D02*
Y48500D01*
X95020Y46154D02*
X96185Y47319D01*
X95681Y82681D02*
Y87681D01*
X97000Y89000D01*
X95500Y82500D02*
X95681Y82681D01*
X98000Y40000D02*
X106000Y32000D01*
X93000Y40000D02*
X98000D01*
X106000Y24000D02*
Y32000D01*
X108500Y115000D02*
X124500Y131000D01*
X108500Y105500D02*
Y115000D01*
X133000Y68500D02*
X141500Y77000D01*
Y87500D01*
X152000Y98000D01*
X164000D01*
X170000Y92000D01*
Y81500D02*
Y92000D01*
Y81500D02*
X179032Y72469D01*
X204532D01*
X221000Y56000D01*
X138000Y36000D02*
X159000D01*
X190500Y67500D01*
X90500Y42500D02*
Y63012D01*
Y42500D02*
X93000Y40000D01*
X106000Y24000D02*
X120000Y10000D01*
X190500Y87500D02*
Y97685D01*
X192911Y100096D02*
X197097D01*
X207000Y110000D01*
X240000D01*
D33*
X87000Y32000D02*
Y53815D01*
X80500Y60315D02*
X87000Y53815D01*
X80500Y60315D02*
Y63012D01*
Y65709D02*
X85500Y70709D01*
X80500Y63012D02*
Y65709D01*
X85500Y70709D02*
Y82500D01*
X190750Y22750D02*
Y57250D01*
X190500Y57500D02*
X190750Y57250D01*
Y22750D02*
X191000Y22500D01*
X190500Y77500D02*
X191000Y78000D01*
X226500D01*
X227000Y78500D01*
X236500Y88500D02*
X244000Y81000D01*
X227000Y88500D02*
X236500D01*
X227000Y78500D02*
X236000Y69500D01*
Y50000D02*
Y69500D01*
X244000Y18000D02*
Y81000D01*
X229000Y3000D02*
X244000Y18000D01*
X186000Y3000D02*
X229000D01*
X176500Y12500D02*
X186000Y3000D01*
X191000Y22500D02*
X207500D01*
X224500Y39500D02*
X235500D01*
X207500Y22500D02*
X224500Y39500D01*
X190500Y67500D02*
X202000Y56000D01*
X211000D01*
X235500Y49500D02*
X236000Y50000D01*
X225000Y120000D02*
X240000D01*
X213500Y131500D02*
X225000Y120000D01*
X190500Y97685D02*
X191500Y98685D01*
X192911Y100096D01*
D34*
X190500Y87500D02*
D03*
Y77500D02*
D03*
Y67500D02*
D03*
Y57500D02*
D03*
X160500D02*
D03*
Y67500D02*
D03*
Y77500D02*
D03*
D35*
Y87500D02*
D03*
D36*
X137000Y90000D02*
D03*
X127000D02*
D03*
X36000Y35500D02*
D03*
Y25500D02*
D03*
X49000Y58000D02*
D03*
X39000D02*
D03*
X227000Y88500D02*
D03*
Y78500D02*
D03*
X176500Y12500D02*
D03*
X166500D02*
D03*
X119500Y55000D02*
D03*
Y65000D02*
D03*
X87000Y32000D02*
D03*
X97000D02*
D03*
X133000Y68500D02*
D03*
X143000D02*
D03*
X124500Y121000D02*
D03*
Y131000D02*
D03*
X143500Y115500D02*
D03*
Y105500D02*
D03*
X108500D02*
D03*
X98500D02*
D03*
X166500Y131500D02*
D03*
X176500D02*
D03*
X223000Y15000D02*
D03*
X213000D02*
D03*
X72500Y42500D02*
D03*
X62500D02*
D03*
X235500Y49500D02*
D03*
Y39500D02*
D03*
X213500Y131500D02*
D03*
X203500D02*
D03*
X221000Y56000D02*
D03*
X211000D02*
D03*
X191000Y22500D02*
D03*
Y12500D02*
D03*
X138000Y36000D02*
D03*
X128000D02*
D03*
X43500Y99000D02*
D03*
Y109000D02*
D03*
X62000Y18000D02*
D03*
X52000D02*
D03*
X79000Y105000D02*
D03*
X69000D02*
D03*
D37*
X78000Y14500D02*
D03*
X140000Y10000D02*
D03*
X91000Y134000D02*
D03*
X25500Y6000D02*
D03*
X49000Y133500D02*
D03*
D38*
X88000Y14500D02*
D03*
X240000Y130000D02*
D03*
Y120000D02*
D03*
Y110000D02*
D03*
X10000Y130000D02*
D03*
Y120000D02*
D03*
Y110000D02*
D03*
X110000Y10000D02*
D03*
X120000D02*
D03*
X130000D02*
D03*
X81000Y134000D02*
D03*
X35500Y6000D02*
D03*
X59000Y133500D02*
D03*
D39*
X240000Y100000D02*
D03*
X10000D02*
D03*
D40*
X40500Y81500D02*
D03*
D41*
Y71500D02*
D03*
X30500Y81500D02*
D03*
Y71500D02*
D03*
X20500Y81500D02*
D03*
Y71500D02*
D03*
D42*
X8000Y47500D02*
D03*
D43*
Y42500D02*
D03*
Y37500D02*
D03*
D44*
X213000Y102000D02*
D03*
X65000Y144000D02*
D03*
X245000Y4500D02*
D03*
X226500Y143500D02*
D03*
X148500D02*
D03*
X20500Y106000D02*
D03*
Y117500D02*
D03*
Y128000D02*
D03*
X32000Y141500D02*
D03*
X20500D02*
D03*
X6000Y71500D02*
D03*
X6500Y82500D02*
D03*
X5500Y17000D02*
D03*
X5000Y27500D02*
D03*
X5500Y4500D02*
D03*
X154000Y6000D02*
D03*
X167000Y29000D02*
D03*
X175500Y36500D02*
D03*
X171000Y57000D02*
D03*
Y65500D02*
D03*
X67500Y73000D02*
D03*
X95500Y73500D02*
D03*
X149500Y129000D02*
D03*
X107000Y56500D02*
D03*
X79000Y35000D02*
D03*
X56000Y63500D02*
D03*
M02*
