G04*
G04 #@! TF.GenerationSoftware,Altium Limited,Altium Designer,22.2.1 (43)*
G04*
G04 Layer_Color=32896*
%FSLAX25Y25*%
%MOIN*%
G70*
G04*
G04 #@! TF.SameCoordinates,22AEFC0F-6C44-4056-8772-BC97FD4EFD78*
G04*
G04*
G04 #@! TF.FilePolarity,Positive*
G04*
G01*
G75*
%ADD11C,0.01000*%
%ADD12C,0.00787*%
G36*
X203118Y72541D02*
X203214Y72489D01*
X203254Y72456D01*
X203313Y72397D01*
X203321Y72382D01*
X203372Y72330D01*
X203380Y72316D01*
X203431Y72242D01*
X203468Y72176D01*
X203483Y72161D01*
X203505Y72109D01*
X203524Y72061D01*
X203557Y71984D01*
X203572Y71925D01*
X203564Y71851D01*
X203546Y71818D01*
X203531Y71810D01*
X203509Y71803D01*
X203465Y71810D01*
X203439Y71836D01*
X203409Y71888D01*
X203387Y71910D01*
X203335Y72006D01*
X203298Y72043D01*
X203291Y72057D01*
X203258Y72098D01*
X203217Y72139D01*
X203210Y72153D01*
X203151Y72212D01*
X203144Y72227D01*
X203118Y72260D01*
X203088Y72268D01*
X203051Y72260D01*
X203033Y72249D01*
X203026Y72234D01*
X203011Y72220D01*
X203003Y72205D01*
X202970Y72172D01*
X202955Y72164D01*
X202944Y72153D01*
X202937Y72139D01*
X202907Y72109D01*
X202900Y72094D01*
X202841Y72035D01*
X202834Y72021D01*
X202804Y71991D01*
X202797Y71976D01*
X202764Y71936D01*
X202738Y71910D01*
X202730Y71895D01*
X202716Y71880D01*
X202708Y71866D01*
X202668Y71847D01*
X202638Y71840D01*
X202609Y71847D01*
X202594Y71855D01*
X202568Y71873D01*
X202561Y71902D01*
X202568Y71961D01*
X202590Y72013D01*
X202598Y72028D01*
X202642Y72087D01*
Y72094D01*
X202686Y72176D01*
X202701Y72190D01*
X202708Y72205D01*
X202723Y72220D01*
X202752Y72271D01*
X202782Y72301D01*
X202789Y72316D01*
X202904Y72430D01*
X202919Y72437D01*
X202930Y72448D01*
X202937Y72463D01*
X202955Y72482D01*
X203037Y72526D01*
X203088Y72548D01*
X203118Y72541D01*
D02*
G37*
G36*
X208238Y72297D02*
X208275Y72282D01*
X208331Y72271D01*
X208445Y72209D01*
X208474Y72201D01*
X208563Y72142D01*
X208615Y72113D01*
X208637Y72091D01*
X208652Y72083D01*
X208722Y72035D01*
X208733Y72024D01*
X208748Y72017D01*
X208762Y72002D01*
X208799Y71980D01*
X208843Y71936D01*
X208880Y71913D01*
X208925Y71869D01*
X208939Y71862D01*
X208954Y71847D01*
X208969Y71840D01*
X209116Y71692D01*
X209131Y71685D01*
X209150Y71666D01*
X209157Y71652D01*
X209187Y71622D01*
X209194Y71607D01*
X209227Y71574D01*
X209242Y71567D01*
X209260Y71541D01*
X209286Y71515D01*
X209301Y71508D01*
X209338Y71493D01*
X209566Y71500D01*
X209769Y71489D01*
X209840Y71478D01*
X209913Y71449D01*
X209961Y71438D01*
X209991Y71430D01*
X210017Y71419D01*
X210057Y71386D01*
X210065Y71371D01*
X210079Y71334D01*
X210072Y71297D01*
X210046Y71272D01*
X210031Y71264D01*
X210017Y71250D01*
X209980Y71235D01*
X209906Y71242D01*
X209884Y71250D01*
X209832Y71257D01*
X209692Y71264D01*
X209378Y71253D01*
X209349Y71246D01*
X209308Y71235D01*
X209279Y71227D01*
X209212Y71235D01*
X209172Y71268D01*
X209105Y71305D01*
X209098Y71320D01*
X209076Y71342D01*
X209068Y71356D01*
X209054Y71364D01*
X209046Y71379D01*
X209032Y71393D01*
X209024Y71408D01*
X208973Y71460D01*
X208965Y71474D01*
X208950Y71489D01*
X208947Y71500D01*
X208932Y71508D01*
X208799Y71640D01*
X208784Y71648D01*
X208759Y71666D01*
X208751Y71681D01*
X208718Y71714D01*
X208703Y71722D01*
X208663Y71755D01*
X208637Y71781D01*
X208622Y71788D01*
X208570Y71840D01*
X208519Y71869D01*
X208482Y71906D01*
X208467Y71913D01*
X208386Y71958D01*
X208364Y71980D01*
X208312Y72002D01*
X208283Y72009D01*
X208238Y72002D01*
X208220Y71984D01*
X208205Y71947D01*
X208190Y71895D01*
X208183Y71866D01*
X208165Y71744D01*
X208150Y71655D01*
X208135Y71582D01*
X208124Y71482D01*
X208117Y71342D01*
X208109Y71224D01*
X208102Y71083D01*
X208087Y70847D01*
X208080Y70825D01*
X208069Y70733D01*
X208061Y70696D01*
X208050Y70596D01*
X208032Y70408D01*
X208024Y70327D01*
X208006Y70176D01*
X207991Y70117D01*
X207977Y69881D01*
X207984Y69851D01*
X207991Y69689D01*
X207999Y69667D01*
X208013Y69615D01*
X208028Y69556D01*
X208039Y69493D01*
X208047Y69456D01*
X208102Y69335D01*
X208109Y69305D01*
X208135Y69235D01*
X208161Y69172D01*
X208168Y69143D01*
X208176Y69091D01*
X208183Y68973D01*
X208176Y68877D01*
X208168Y68848D01*
X208157Y68807D01*
X208124Y68752D01*
X208109Y68700D01*
X208091Y68652D01*
X208065Y68612D01*
X208050Y68597D01*
X208006Y68516D01*
X207984Y68494D01*
X207977Y68479D01*
X207940Y68427D01*
X207910Y68398D01*
X207903Y68383D01*
X207855Y68320D01*
X207844Y68317D01*
X207836Y68302D01*
X207799Y68250D01*
X207763Y68213D01*
X207755Y68199D01*
X207722Y68158D01*
X207689Y68125D01*
X207667Y68088D01*
X207633Y68047D01*
X207615Y68029D01*
X207608Y68014D01*
X207556Y67948D01*
X207526Y67896D01*
X207489Y67859D01*
X207453Y67793D01*
X207419Y67752D01*
X207368Y67671D01*
X207349Y67652D01*
X207298Y67557D01*
X207283Y67542D01*
X207224Y67431D01*
X207209Y67416D01*
X207194Y67379D01*
X207176Y67331D01*
X207150Y67291D01*
X207113Y67210D01*
X207098Y67173D01*
X207091Y67158D01*
X207062Y67106D01*
X207036Y67036D01*
X206988Y66929D01*
X206966Y66878D01*
X206951Y66826D01*
X206936Y66789D01*
X206914Y66738D01*
X206899Y66686D01*
X206892Y66656D01*
X206873Y66608D01*
X206840Y66531D01*
X206829Y66476D01*
X206814Y66417D01*
X206785Y66343D01*
X206774Y66302D01*
X206766Y66250D01*
X206759Y66221D01*
X206748Y66166D01*
X206733Y66107D01*
X206715Y66044D01*
X206707Y66014D01*
X206700Y65963D01*
X206693Y65933D01*
X206681Y65856D01*
X206652Y65664D01*
X206637Y65590D01*
X206630Y65531D01*
X206623Y65435D01*
X206615Y65295D01*
X206608Y65037D01*
X206604Y64878D01*
X206611Y64856D01*
X206623Y64638D01*
X206630Y64572D01*
X206637Y64498D01*
X206652Y64439D01*
X206678Y64354D01*
X206693Y64295D01*
X206704Y64240D01*
X206718Y64203D01*
X206744Y64155D01*
X206759Y64118D01*
X206777Y64070D01*
X206796Y64044D01*
X206825Y64000D01*
X206833Y63971D01*
X206866Y63930D01*
X206892Y63904D01*
X206921Y63853D01*
X206973Y63801D01*
X206980Y63786D01*
X206999Y63768D01*
X207014Y63760D01*
X207032Y63742D01*
X207039Y63727D01*
X207050Y63716D01*
X207065Y63709D01*
X207121Y63668D01*
X207124Y63657D01*
X207139Y63650D01*
X207154Y63635D01*
X207205Y63605D01*
X207227Y63583D01*
X207324Y63532D01*
X207368Y63502D01*
X207397Y63495D01*
X207434Y63480D01*
X207545Y63428D01*
X207604Y63414D01*
X207652Y63395D01*
X207729Y63362D01*
X207781Y63354D01*
X207810Y63347D01*
X207851Y63336D01*
X207880Y63329D01*
X207965Y63303D01*
X207995Y63296D01*
X208047Y63288D01*
X208172Y63273D01*
X208202Y63266D01*
X208301Y63255D01*
X208338Y63248D01*
X208367Y63240D01*
X208412Y63233D01*
X208508Y63225D01*
X208633Y63218D01*
X208795Y63211D01*
X209127Y63203D01*
X209249Y63200D01*
X209271Y63207D01*
X209810Y63214D01*
X209832Y63222D01*
X209995Y63229D01*
X210017Y63236D01*
X210065Y63248D01*
X210105Y63259D01*
X210179Y63266D01*
X210231Y63273D01*
X210293Y63284D01*
X210367Y63299D01*
X210426Y63321D01*
X210474Y63340D01*
X210504Y63347D01*
X210581Y63366D01*
X210673Y63414D01*
X210743Y63439D01*
X210788Y63469D01*
X210799Y63480D01*
X210836Y63495D01*
X210850Y63502D01*
X210891Y63535D01*
X210917Y63561D01*
X210931Y63569D01*
X210946Y63583D01*
X210961Y63591D01*
X211016Y63646D01*
X211024Y63661D01*
X211098Y63735D01*
X211105Y63749D01*
X211142Y63786D01*
X211186Y63867D01*
X211216Y63912D01*
X211227Y63952D01*
X211241Y63989D01*
X211267Y64022D01*
X211282Y64059D01*
X211297Y64118D01*
X211308Y64181D01*
X211345Y64328D01*
X211352Y64373D01*
X211360Y64469D01*
X211363Y64760D01*
X211356Y64782D01*
X211348Y64871D01*
X211341Y64893D01*
X211319Y64967D01*
X211312Y64996D01*
X211293Y65081D01*
X211271Y65170D01*
X211238Y65225D01*
X211227Y65266D01*
X211212Y65302D01*
X211186Y65343D01*
X211127Y65454D01*
X211098Y65483D01*
X211053Y65564D01*
X211016Y65601D01*
X211009Y65616D01*
X210965Y65660D01*
X210957Y65675D01*
X210873Y65760D01*
X210858Y65767D01*
X210836Y65789D01*
X210821Y65797D01*
X210784Y65834D01*
X210732Y65863D01*
X210703Y65893D01*
X210651Y65915D01*
X210636Y65922D01*
X210585Y65959D01*
X210548Y65974D01*
X210478Y66000D01*
X210422Y66033D01*
X210293Y66059D01*
X210234Y66074D01*
X210194Y66084D01*
X210142Y66092D01*
X209998Y66096D01*
X209954Y66088D01*
X209895Y66066D01*
X209814Y66037D01*
X209773Y65996D01*
X209762Y65992D01*
X209755Y65978D01*
X209733Y65955D01*
X209710Y65882D01*
X209696Y65845D01*
X209681Y65786D01*
X209688Y65712D01*
X209718Y65660D01*
X209733Y65623D01*
X209762Y65572D01*
X209799Y65535D01*
X209806Y65520D01*
X209821Y65505D01*
X209828Y65491D01*
X209854Y65472D01*
X209895Y65439D01*
X209913Y65421D01*
X209928Y65413D01*
X209969Y65380D01*
X209995Y65354D01*
X210009Y65347D01*
X210079Y65299D01*
X210087Y65284D01*
X210149Y65243D01*
X210160Y65232D01*
X210168Y65218D01*
X210201Y65184D01*
X210216Y65177D01*
X210227Y65166D01*
X210264Y65100D01*
X210286Y65077D01*
X210308Y65026D01*
X210319Y64978D01*
X210327Y64948D01*
X210352Y64885D01*
X210360Y64834D01*
X210367Y64804D01*
X210360Y64753D01*
X210352Y64664D01*
X210323Y64590D01*
X210315Y64561D01*
X210290Y64491D01*
X210271Y64465D01*
X210256Y64450D01*
X210249Y64435D01*
X210201Y64365D01*
X210172Y64336D01*
X210160Y64332D01*
X210153Y64317D01*
X210127Y64292D01*
X210113Y64284D01*
X210061Y64247D01*
X210046Y64240D01*
X210024Y64218D01*
X209987Y64203D01*
X209910Y64185D01*
X209865Y64155D01*
X209825Y64144D01*
X209795Y64137D01*
X209633Y64122D01*
X209386Y64118D01*
X209238Y64133D01*
X209209Y64140D01*
X209172Y64155D01*
X209161Y64166D01*
X209146Y64174D01*
X209105Y64207D01*
X209098Y64258D01*
X209109Y64299D01*
X209131Y64321D01*
X209161Y64328D01*
X209212Y64336D01*
X209330Y64328D01*
X209519Y64325D01*
X209578Y64332D01*
X209644Y64340D01*
X209688Y64347D01*
X209725Y64354D01*
X209806Y64384D01*
X209917Y64428D01*
X209972Y64483D01*
X209987Y64491D01*
X210013Y64509D01*
X210020Y64524D01*
X210053Y64565D01*
X210065Y64576D01*
X210072Y64590D01*
X210087Y64627D01*
X210102Y64686D01*
X210109Y64760D01*
X210098Y64823D01*
X210090Y64860D01*
X210083Y64889D01*
X210046Y64948D01*
X210028Y64974D01*
X209976Y65040D01*
X209906Y65111D01*
X209840Y65148D01*
X209803Y65184D01*
X209751Y65214D01*
X209740Y65225D01*
X209733Y65240D01*
X209714Y65258D01*
X209699Y65266D01*
X209659Y65299D01*
X209651Y65314D01*
X209600Y65365D01*
X209592Y65380D01*
X209578Y65395D01*
X209570Y65409D01*
X209548Y65424D01*
X209541Y65439D01*
X209504Y65505D01*
X209471Y65546D01*
X209452Y65587D01*
X209441Y65664D01*
X209423Y65727D01*
X209415Y65756D01*
X209423Y65860D01*
X209430Y65882D01*
X209437Y65911D01*
X209456Y65996D01*
X209471Y66033D01*
X209474Y66037D01*
X209489Y66051D01*
X209496Y66066D01*
X209526Y66110D01*
X209533Y66125D01*
X209566Y66166D01*
X209614Y66214D01*
X209622Y66228D01*
X209714Y66284D01*
X209766Y66321D01*
X209817Y66328D01*
X209902Y66347D01*
X209932Y66354D01*
X209969Y66361D01*
X210068Y66372D01*
X210142Y66365D01*
X210223Y66357D01*
X210245Y66350D01*
X210275Y66343D01*
X210327Y66335D01*
X210389Y66324D01*
X210426Y66317D01*
X210500Y66287D01*
X210541Y66269D01*
X210611Y66243D01*
X210703Y66195D01*
X210751Y66177D01*
X210777Y66158D01*
X210791Y66144D01*
X210806Y66136D01*
X210873Y66099D01*
X210917Y66055D01*
X210983Y66018D01*
X210994Y66007D01*
X211002Y65992D01*
X211013Y65981D01*
X211027Y65974D01*
X211068Y65941D01*
X211149Y65860D01*
X211157Y65845D01*
X211216Y65786D01*
X211223Y65771D01*
X211275Y65705D01*
X211297Y65682D01*
X211326Y65631D01*
X211356Y65587D01*
X211400Y65505D01*
X211415Y65491D01*
X211444Y65424D01*
X211496Y65314D01*
X211511Y65262D01*
X211544Y65170D01*
X211555Y65129D01*
X211577Y65040D01*
X211592Y64937D01*
X211603Y64852D01*
X211614Y64753D01*
X211621Y64509D01*
X211614Y64487D01*
X211607Y64391D01*
X211599Y64369D01*
X211584Y64244D01*
X211577Y64214D01*
X211570Y64162D01*
X211562Y64133D01*
X211555Y64089D01*
X211518Y64008D01*
X211507Y63959D01*
X211485Y63901D01*
X211444Y63823D01*
X211426Y63775D01*
X211415Y63764D01*
X211407Y63749D01*
X211393Y63735D01*
X211385Y63720D01*
X211348Y63653D01*
X211315Y63613D01*
X211286Y63569D01*
X211223Y63506D01*
X211216Y63491D01*
X211160Y63436D01*
X211145Y63428D01*
X211123Y63406D01*
X211109Y63399D01*
X211064Y63354D01*
X211050Y63347D01*
X210976Y63296D01*
X210895Y63251D01*
X210873Y63229D01*
X210836Y63214D01*
X210788Y63196D01*
X210695Y63148D01*
X210636Y63133D01*
X210596Y63122D01*
X210504Y63082D01*
X210415Y63067D01*
X210385Y63059D01*
X210312Y63037D01*
X210282Y63030D01*
X210234Y63019D01*
X210197Y63011D01*
X210124Y63004D01*
X210065Y62997D01*
X209983Y62989D01*
X209888Y62982D01*
X209814Y62975D01*
X209747Y62967D01*
X209659Y62960D01*
X209474Y62952D01*
X208866Y62949D01*
X208843Y62956D01*
X208666Y62963D01*
X208644Y62971D01*
X208474Y62978D01*
X208452Y62986D01*
X208294Y62997D01*
X208205Y63004D01*
X208109Y63019D01*
X208080Y63026D01*
X208035Y63033D01*
X207999Y63041D01*
X207940Y63056D01*
X207851Y63070D01*
X207777Y63085D01*
X207718Y63107D01*
X207681Y63122D01*
X207641Y63133D01*
X207578Y63144D01*
X207548Y63152D01*
X207464Y63192D01*
X207412Y63207D01*
X207364Y63225D01*
X207338Y63236D01*
X207294Y63266D01*
X207257Y63281D01*
X207209Y63299D01*
X207154Y63340D01*
X207106Y63358D01*
X207065Y63384D01*
X207050Y63399D01*
X207036Y63406D01*
X207021Y63421D01*
X206969Y63450D01*
X206903Y63502D01*
X206844Y63561D01*
X206829Y63569D01*
X206766Y63631D01*
X206759Y63646D01*
X206737Y63668D01*
X206733Y63679D01*
X206718Y63687D01*
X206700Y63705D01*
X206693Y63720D01*
X206641Y63786D01*
X206611Y63838D01*
X206578Y63878D01*
X206567Y63889D01*
X206545Y63941D01*
X206527Y63989D01*
X206508Y64008D01*
X206486Y64059D01*
X206479Y64089D01*
X206468Y64137D01*
X206445Y64196D01*
X206434Y64207D01*
X206412Y64288D01*
X206401Y64351D01*
X206386Y64424D01*
X206364Y64513D01*
X206353Y64613D01*
X206346Y64642D01*
X206338Y64871D01*
X206331Y65011D01*
X206342Y65391D01*
X206349Y65509D01*
X206357Y65583D01*
X206364Y65620D01*
X206372Y65664D01*
X206379Y65723D01*
X206386Y65760D01*
X206394Y65804D01*
X206401Y65878D01*
X206412Y65978D01*
X206420Y66007D01*
X206431Y66062D01*
X206438Y66092D01*
X206456Y66155D01*
X206471Y66214D01*
X206490Y66328D01*
X206501Y66369D01*
X206545Y66509D01*
X206556Y66571D01*
X206563Y66601D01*
X206604Y66701D01*
X206611Y66730D01*
X206626Y66782D01*
X206634Y66811D01*
X206652Y66859D01*
X206685Y66937D01*
X206693Y66966D01*
X206711Y67014D01*
X206744Y67077D01*
X206766Y67151D01*
X206785Y67199D01*
X206796Y67210D01*
X206803Y67225D01*
X206825Y67276D01*
X206851Y67346D01*
X206892Y67402D01*
X206899Y67431D01*
X206936Y67497D01*
X206951Y67512D01*
X206973Y67564D01*
X206988Y67601D01*
X207039Y67675D01*
X207058Y67723D01*
X207076Y67741D01*
X207084Y67756D01*
X207098Y67770D01*
X207143Y67852D01*
X207172Y67881D01*
X207209Y67948D01*
X207239Y67977D01*
X207246Y67992D01*
X207279Y68032D01*
X207312Y68066D01*
X207334Y68103D01*
X207368Y68143D01*
X207394Y68169D01*
X207401Y68184D01*
X207416Y68199D01*
X207423Y68213D01*
X207460Y68250D01*
X207467Y68265D01*
X207501Y68305D01*
X207515Y68313D01*
X207534Y68331D01*
X207541Y68346D01*
X207574Y68387D01*
X207593Y68398D01*
X207600Y68412D01*
X207615Y68427D01*
X207622Y68442D01*
X207648Y68468D01*
X207663Y68475D01*
X207681Y68501D01*
X207748Y68567D01*
X207755Y68582D01*
X207788Y68623D01*
X207814Y68648D01*
X207821Y68663D01*
X207836Y68678D01*
X207844Y68693D01*
X207858Y68708D01*
X207866Y68722D01*
X207940Y68877D01*
X207954Y68929D01*
X207962Y69003D01*
X207951Y69065D01*
X207928Y69125D01*
X207917Y69135D01*
X207903Y69187D01*
X207877Y69257D01*
X207836Y69335D01*
X207829Y69364D01*
X207814Y69416D01*
X207799Y69453D01*
X207777Y69504D01*
X207763Y69564D01*
X207755Y69615D01*
X207737Y69774D01*
X207733Y70036D01*
X207740Y70058D01*
X207751Y70202D01*
X207759Y70290D01*
X207766Y70357D01*
X207773Y70416D01*
X207796Y70504D01*
X207803Y70548D01*
X207810Y70608D01*
X207825Y70770D01*
X207833Y70932D01*
X207840Y71065D01*
X207847Y71153D01*
X207855Y71213D01*
X207862Y71279D01*
X207870Y71382D01*
X207880Y71482D01*
X207888Y71578D01*
X207895Y71629D01*
X207903Y71725D01*
X207910Y71755D01*
X207917Y71814D01*
X207932Y71851D01*
X207947Y71902D01*
X207954Y71954D01*
X207969Y72013D01*
X207987Y72091D01*
X208047Y72238D01*
X208065Y72264D01*
X208076Y72275D01*
X208150Y72297D01*
X208179Y72305D01*
X208238Y72297D01*
D02*
G37*
G36*
X201941Y72352D02*
X201978Y72338D01*
X202022Y72308D01*
X202033Y72297D01*
X202048Y72290D01*
X202088Y72257D01*
X202111Y72234D01*
X202114Y72223D01*
X202129Y72216D01*
X202162Y72183D01*
X202170Y72168D01*
X202206Y72131D01*
X202214Y72116D01*
X202229Y72102D01*
X202251Y72065D01*
X202280Y72035D01*
X202288Y72021D01*
X202325Y71954D01*
X202354Y71925D01*
X202369Y71888D01*
X202398Y71836D01*
X202413Y71821D01*
X202420Y71807D01*
X202443Y71755D01*
X202450Y71711D01*
X202502Y71600D01*
X202516Y71548D01*
X202524Y71497D01*
X202531Y71467D01*
X202561Y71371D01*
X202568Y71342D01*
X202561Y71268D01*
X202527Y71227D01*
X202513Y71213D01*
X202483Y71205D01*
X202432Y71213D01*
X202391Y71246D01*
X202361Y71312D01*
X202332Y71364D01*
X202295Y71445D01*
X202277Y71493D01*
X202266Y71504D01*
X202258Y71519D01*
X202236Y71570D01*
X202214Y71629D01*
X202177Y71681D01*
X202162Y71718D01*
X202074Y71880D01*
X202055Y71906D01*
X202041Y71913D01*
X202022Y71932D01*
X202015Y71947D01*
X201978Y71998D01*
X201967Y72009D01*
X201952Y72017D01*
X201930Y72024D01*
X201893Y72017D01*
X201882Y72006D01*
X201845Y71939D01*
X201823Y71917D01*
X201815Y71902D01*
X201779Y71836D01*
X201756Y71814D01*
X201749Y71799D01*
X201697Y71703D01*
X201660Y71622D01*
X201646Y71585D01*
X201638Y71570D01*
X201616Y71534D01*
X201602Y71497D01*
X201590Y71441D01*
X201576Y71404D01*
X201568Y71375D01*
X201539Y71294D01*
X201528Y71253D01*
X201520Y71201D01*
X201513Y71172D01*
X201502Y71087D01*
X201495Y71050D01*
X201480Y70991D01*
X201472Y70947D01*
X201465Y70873D01*
X201458Y70748D01*
X201443Y70548D01*
X201435Y70490D01*
X201428Y70445D01*
X201417Y70405D01*
X201406Y70335D01*
X201388Y70272D01*
X201380Y70220D01*
X201369Y70135D01*
X201354Y70047D01*
X201347Y70010D01*
X201340Y69966D01*
X201332Y69929D01*
X201325Y69870D01*
X201317Y69744D01*
X201310Y69287D01*
X201303Y69206D01*
X201295Y69169D01*
X201280Y69132D01*
X201247Y69054D01*
X201229Y69006D01*
X201203Y68966D01*
X201192Y68947D01*
X201188Y68944D01*
X201151Y68877D01*
X201115Y68840D01*
X201107Y68826D01*
X201055Y68759D01*
X201019Y68722D01*
X201011Y68708D01*
X200923Y68619D01*
X200919Y68608D01*
X200904Y68601D01*
X200871Y68567D01*
X200864Y68553D01*
X200819Y68516D01*
X200797Y68494D01*
X200790Y68479D01*
X200746Y68442D01*
X200690Y68387D01*
X200676Y68379D01*
X200520Y68224D01*
X200506Y68217D01*
X200495Y68206D01*
X200487Y68191D01*
X200465Y68176D01*
X200462Y68165D01*
X200447Y68158D01*
X200391Y68103D01*
X200384Y68088D01*
X200244Y67948D01*
X200236Y67933D01*
X200170Y67866D01*
X200163Y67852D01*
X200152Y67833D01*
X200137Y67826D01*
X200096Y67785D01*
X200089Y67770D01*
X200052Y67734D01*
X200045Y67719D01*
X200030Y67704D01*
X200023Y67689D01*
X199989Y67649D01*
X199978Y67638D01*
X199949Y67586D01*
X199916Y67545D01*
X199904Y67534D01*
X199897Y67520D01*
X199867Y67468D01*
X199845Y67446D01*
X199838Y67431D01*
X199786Y67335D01*
X199764Y67313D01*
X199746Y67265D01*
X199731Y67228D01*
X199720Y67217D01*
X199713Y67202D01*
X199698Y67188D01*
X199683Y67151D01*
X199676Y67121D01*
X199631Y67040D01*
X199609Y66988D01*
X199591Y66940D01*
X199580Y66929D01*
X199572Y66915D01*
X199543Y66848D01*
X199532Y66800D01*
X199517Y66763D01*
X199484Y66686D01*
X199454Y66568D01*
X199425Y66501D01*
X199410Y66465D01*
X199403Y66435D01*
X199392Y66365D01*
X199384Y66328D01*
X199351Y66221D01*
X199329Y66132D01*
X199318Y66048D01*
X199303Y65966D01*
X199296Y65930D01*
X199277Y65867D01*
X199270Y65793D01*
X199262Y65764D01*
X199255Y65623D01*
X199248Y65594D01*
X199237Y65406D01*
X199229Y65302D01*
X199218Y65085D01*
X199226Y64731D01*
X199233Y64708D01*
X199240Y64568D01*
X199248Y64546D01*
X199240Y64391D01*
X199207Y64351D01*
X199141Y64321D01*
X199111Y64328D01*
X199060Y64365D01*
X199041Y64413D01*
X199008Y64505D01*
X198997Y64546D01*
X198989Y64576D01*
X198978Y64646D01*
X198971Y64727D01*
X198964Y64793D01*
X198953Y65011D01*
X198960Y65417D01*
X198967Y65439D01*
X198975Y65609D01*
X198982Y65631D01*
X198989Y65764D01*
X199004Y65800D01*
X199012Y65845D01*
X199019Y65867D01*
X199030Y65915D01*
X199041Y66014D01*
X199048Y66044D01*
X199060Y66107D01*
X199089Y66188D01*
X199097Y66217D01*
X199104Y66254D01*
X199119Y66343D01*
X199126Y66372D01*
X199141Y66409D01*
X199167Y66472D01*
X199181Y66531D01*
X199192Y66579D01*
X199207Y66616D01*
X199240Y66693D01*
X199248Y66723D01*
X199288Y66837D01*
X199321Y66915D01*
X199347Y66985D01*
X199358Y66996D01*
X199388Y67062D01*
X199414Y67132D01*
X199443Y67177D01*
X199469Y67239D01*
X199506Y67306D01*
X199572Y67431D01*
X199587Y67446D01*
X199639Y67542D01*
X199676Y67593D01*
X199705Y67645D01*
X199727Y67667D01*
X199735Y67682D01*
X199764Y67734D01*
X199797Y67774D01*
X199809Y67785D01*
X199838Y67837D01*
X199875Y67874D01*
X199882Y67889D01*
X199934Y67955D01*
X199956Y67977D01*
X199963Y67992D01*
X199982Y68018D01*
X199997Y68025D01*
X200030Y68058D01*
X200052Y68095D01*
X200063Y68106D01*
X200078Y68114D01*
X200089Y68125D01*
X200096Y68139D01*
X200111Y68154D01*
X200118Y68169D01*
X200144Y68187D01*
X200170Y68213D01*
X200177Y68228D01*
X200343Y68394D01*
X200358Y68401D01*
X200369Y68412D01*
X200377Y68427D01*
X200410Y68460D01*
X200425Y68468D01*
X200465Y68508D01*
X200469Y68519D01*
X200484Y68527D01*
X200565Y68608D01*
X200580Y68615D01*
X200591Y68626D01*
X200598Y68641D01*
X200613Y68656D01*
X200616Y68667D01*
X200631Y68674D01*
X200672Y68715D01*
X200679Y68730D01*
X200705Y68748D01*
X200731Y68774D01*
X200738Y68789D01*
X200771Y68829D01*
X200819Y68877D01*
X200827Y68892D01*
X200871Y68936D01*
X200878Y68951D01*
X200915Y69003D01*
X200937Y69025D01*
X200996Y69135D01*
X201026Y69202D01*
X201044Y69368D01*
X201052Y69884D01*
X201078Y70087D01*
X201092Y70191D01*
X201100Y70220D01*
X201111Y70290D01*
X201122Y70331D01*
X201137Y70382D01*
X201159Y70471D01*
X201166Y70523D01*
X201173Y70619D01*
X201192Y70807D01*
X201207Y70903D01*
X201229Y71080D01*
X201244Y71176D01*
X201251Y71220D01*
X201258Y71257D01*
X201273Y71294D01*
X201292Y71356D01*
X201303Y71404D01*
X201310Y71434D01*
X201336Y71504D01*
X201365Y71548D01*
X201376Y71589D01*
X201384Y71633D01*
X201399Y71670D01*
X201432Y71718D01*
X201447Y71755D01*
X201465Y71803D01*
X201491Y71836D01*
X201498Y71851D01*
X201565Y71976D01*
X201579Y71991D01*
X201624Y72072D01*
X201646Y72094D01*
X201697Y72190D01*
X201712Y72205D01*
X201749Y72271D01*
X201793Y72316D01*
X201801Y72330D01*
X201849Y72356D01*
X201900Y72364D01*
X201941Y72352D01*
D02*
G37*
G36*
X203177Y71773D02*
X203262Y71762D01*
X203298Y71755D01*
X203376Y71722D01*
X203417Y71711D01*
X203453Y71696D01*
X203513Y71659D01*
X203560Y71640D01*
X203597Y71626D01*
X203638Y71593D01*
X203653Y71578D01*
X203656Y71574D01*
X203712Y71541D01*
X203719Y71526D01*
X203737Y71508D01*
X203752Y71500D01*
X203819Y71434D01*
X203833Y71426D01*
X203844Y71416D01*
X203852Y71401D01*
X203867Y71386D01*
X203874Y71371D01*
X203892Y71353D01*
X203907Y71345D01*
X203918Y71334D01*
X203926Y71320D01*
X203963Y71268D01*
X203992Y71238D01*
X204022Y71187D01*
X204059Y71150D01*
X204095Y71083D01*
X204140Y71039D01*
X204147Y71024D01*
X204213Y70958D01*
X204221Y70943D01*
X204239Y70925D01*
X204254Y70917D01*
X204280Y70892D01*
X204287Y70877D01*
X204298Y70866D01*
X204313Y70858D01*
X204379Y70807D01*
X204416Y70792D01*
X204464Y70774D01*
X204490Y70748D01*
X204505Y70740D01*
X204556Y70711D01*
X204575Y70692D01*
X204568Y70611D01*
X204534Y70578D01*
X204505Y70571D01*
X204450Y70567D01*
X204376Y70574D01*
X204346Y70582D01*
X204309Y70596D01*
X204298Y70608D01*
X204283Y70615D01*
X204247Y70637D01*
X204166Y70681D01*
X204143Y70703D01*
X204129Y70711D01*
X204088Y70744D01*
X204047Y70785D01*
X204033Y70792D01*
X204007Y70810D01*
X203999Y70825D01*
X203933Y70892D01*
X203926Y70906D01*
X203911Y70921D01*
X203904Y70936D01*
X203874Y70958D01*
X203867Y70973D01*
X203852Y70987D01*
X203844Y71002D01*
X203808Y71039D01*
X203800Y71054D01*
X203785Y71069D01*
X203778Y71083D01*
X203727Y71135D01*
X203719Y71150D01*
X203686Y71190D01*
X203638Y71238D01*
X203630Y71253D01*
X203612Y71272D01*
X203597Y71279D01*
X203531Y71345D01*
X203516Y71353D01*
X203450Y71404D01*
X203339Y71463D01*
X203295Y71493D01*
X203239Y71504D01*
X203158Y71534D01*
X203110Y71552D01*
X203022Y71567D01*
X202992Y71574D01*
X202955Y71596D01*
X202937Y71615D01*
X202922Y71652D01*
X202930Y71711D01*
X202963Y71751D01*
X203000Y71766D01*
X203103Y71781D01*
X203177Y71773D01*
D02*
G37*
G36*
X203251Y70947D02*
X203302Y70940D01*
X203306Y70936D01*
X203343Y70921D01*
X203380Y70884D01*
X203387Y70869D01*
X203413Y70851D01*
X203431Y70833D01*
X203450Y70785D01*
X203461Y70774D01*
X203490Y70707D01*
X203498Y70656D01*
X203505Y70552D01*
X203498Y70530D01*
X203487Y70490D01*
X203468Y70464D01*
X203453Y70449D01*
X203446Y70434D01*
X203431Y70419D01*
X203424Y70405D01*
X203398Y70379D01*
X203361Y70364D01*
X203287Y70357D01*
X203225Y70368D01*
X203166Y70405D01*
X203092Y70478D01*
X203033Y70611D01*
X203018Y70663D01*
X203026Y70810D01*
X203048Y70847D01*
X203062Y70862D01*
X203070Y70877D01*
X203084Y70892D01*
X203092Y70906D01*
X203103Y70917D01*
X203140Y70932D01*
X203191Y70947D01*
X203221Y70954D01*
X203251Y70947D01*
D02*
G37*
G36*
X210806Y70054D02*
X210847Y70021D01*
X210869Y69999D01*
X210884Y69940D01*
X210873Y69884D01*
X210850Y69848D01*
X210847Y69844D01*
X210810Y69807D01*
X210802Y69792D01*
X210754Y69744D01*
X210740Y69737D01*
X210614Y69678D01*
X210585Y69670D01*
X210481Y69663D01*
X210459Y69670D01*
X210408Y69678D01*
X210253Y69759D01*
X210234Y69785D01*
X210183Y69836D01*
X210175Y69851D01*
X210160Y69866D01*
X210153Y69895D01*
X210146Y69918D01*
X210153Y69991D01*
X210186Y70032D01*
X210201Y70047D01*
X210253Y70061D01*
X210363Y70010D01*
X210411Y69991D01*
X210489Y69958D01*
X210585Y69966D01*
X210740Y70047D01*
X210777Y70061D01*
X210806Y70054D01*
D02*
G37*
G36*
X209282Y70043D02*
X209319Y70006D01*
X209342Y69955D01*
X209349Y69925D01*
X209290Y69814D01*
X209279Y69803D01*
X209264Y69796D01*
X209223Y69763D01*
X209198Y69737D01*
X209105Y69704D01*
X209094Y69693D01*
X209080Y69685D01*
X209043Y69670D01*
X208866Y69678D01*
X208784Y69715D01*
X208718Y69752D01*
X208626Y69844D01*
X208611Y69881D01*
X208596Y69932D01*
X208604Y69991D01*
X208622Y70017D01*
X208637Y70025D01*
X208674Y70047D01*
X208681D01*
X208711Y70054D01*
X208748Y70047D01*
X208858Y69988D01*
X208939Y69951D01*
X209020Y69958D01*
X209080Y69995D01*
X209127Y70014D01*
X209164Y70028D01*
X209212Y70054D01*
X209246Y70058D01*
X209282Y70043D01*
D02*
G37*
G36*
X211492Y72268D02*
X211518Y72242D01*
X211526Y72227D01*
X211559Y72186D01*
X211577Y72146D01*
X211588Y72098D01*
X211603Y72061D01*
X211621Y72021D01*
X211636Y71984D01*
X211647Y71906D01*
X211662Y71818D01*
X211677Y71744D01*
X211684Y71714D01*
X211695Y71674D01*
X211703Y71622D01*
X211710Y71593D01*
X211728Y71368D01*
X211751Y71058D01*
X211758Y70962D01*
X211762Y70611D01*
X211754Y70589D01*
X211747Y70397D01*
X211739Y70375D01*
X211728Y70135D01*
X211721Y69921D01*
X211714Y69744D01*
X211710Y69239D01*
X211717Y69217D01*
X211725Y68885D01*
X211732Y68862D01*
X211743Y68601D01*
X211751Y68534D01*
X211758Y68387D01*
X211762Y68346D01*
Y68339D01*
X211769Y68029D01*
X211762Y68007D01*
X211754Y67623D01*
X211747Y67601D01*
X211728Y67265D01*
X211721Y67169D01*
X211714Y67088D01*
X211706Y67029D01*
X211699Y66940D01*
X211691Y66904D01*
X211681Y66863D01*
X211673Y66833D01*
X211662Y66749D01*
X211632Y66549D01*
X211592Y66420D01*
X211574Y66299D01*
X211559Y66225D01*
X211544Y66188D01*
X211526Y66147D01*
X211477Y66055D01*
X211441Y66040D01*
X211374Y66048D01*
X211360Y66062D01*
X211348Y66066D01*
X211341Y66081D01*
X211326Y66096D01*
X211312Y66132D01*
X211304Y66162D01*
X211312Y66317D01*
X211319Y66339D01*
X211337Y66424D01*
X211352Y66498D01*
X211360Y66557D01*
X211367Y66631D01*
X211374Y66712D01*
X211396Y66859D01*
X211411Y66918D01*
X211419Y66977D01*
X211433Y67110D01*
X211441Y67191D01*
X211448Y67287D01*
X211455Y67391D01*
X211463Y67457D01*
X211470Y67494D01*
X211477Y67590D01*
X211485Y67656D01*
X211492Y67759D01*
X211500Y67981D01*
X211507Y68468D01*
X211511Y68567D01*
X211503Y68590D01*
X211496Y69032D01*
X211489Y69054D01*
X211481Y69342D01*
X211474Y69364D01*
X211467Y69726D01*
X211477Y70061D01*
X211485Y70268D01*
X211492Y70504D01*
X211496Y70692D01*
X211489Y70714D01*
X211481Y71172D01*
X211474Y71194D01*
X211463Y71375D01*
X211455Y71419D01*
X211444Y71519D01*
X211437Y71659D01*
X211430Y71681D01*
X211422Y71799D01*
X211415Y71821D01*
X211385Y71917D01*
X211374Y71958D01*
X211367Y71973D01*
X211337Y71987D01*
X211300Y71965D01*
X211264Y71928D01*
X211182Y71884D01*
X211168Y71869D01*
X211153Y71862D01*
X211083Y71814D01*
X211057Y71788D01*
X211002Y71755D01*
X210994Y71740D01*
X210983Y71729D01*
X210968Y71722D01*
X210902Y71670D01*
X210880Y71648D01*
X210865Y71640D01*
X210824Y71607D01*
X210784Y71567D01*
X210769Y71559D01*
X210743Y71541D01*
X210736Y71526D01*
X210710Y71500D01*
X210695Y71493D01*
X210655Y71460D01*
X210629Y71434D01*
X210614Y71426D01*
X210599Y71412D01*
X210585Y71404D01*
X210566Y71379D01*
X210555Y71368D01*
X210541Y71360D01*
X210500Y71327D01*
X210492Y71312D01*
X210481Y71301D01*
X210467Y71294D01*
X210430Y71279D01*
X210371Y71286D01*
X210338Y71320D01*
X210330Y71349D01*
X210397Y71474D01*
X210434Y71511D01*
X210441Y71526D01*
X210474Y71567D01*
X210507Y71600D01*
X210515Y71615D01*
X210548Y71655D01*
X210640Y71747D01*
X210648Y71762D01*
X210673Y71788D01*
X210688Y71795D01*
X210721Y71829D01*
X210729Y71843D01*
X210740Y71855D01*
X210754Y71862D01*
X210821Y71928D01*
X210836Y71936D01*
X210902Y72002D01*
X210917Y72009D01*
X210957Y72043D01*
X210968Y72054D01*
X211020Y72083D01*
X211050Y72113D01*
X211064Y72120D01*
X211145Y72164D01*
X211160Y72179D01*
X211175Y72186D01*
X211227Y72209D01*
X211275Y72227D01*
X211300Y72246D01*
X211315Y72260D01*
X211374Y72275D01*
X211467Y72279D01*
X211492Y72268D01*
D02*
G37*
G36*
X197436Y66350D02*
X197458Y66343D01*
X197543Y66324D01*
X197580Y66310D01*
X197606Y66291D01*
X197621Y66276D01*
X197672Y66247D01*
X197724Y66195D01*
X197739Y66188D01*
X197765Y66162D01*
X197779Y66125D01*
X197787Y66110D01*
X197824Y66059D01*
X197835Y66018D01*
X197850Y65944D01*
X197853Y65800D01*
X197846Y65778D01*
X197835Y65686D01*
X197827Y65657D01*
X197816Y65631D01*
X197779Y65550D01*
X197754Y65479D01*
X197724Y65435D01*
X197706Y65395D01*
X197680Y65324D01*
X197665Y65288D01*
X197639Y65225D01*
X197632Y65195D01*
X197625Y65144D01*
X197632Y64937D01*
X197639Y64915D01*
X197650Y64875D01*
X197691Y64782D01*
X197720Y64731D01*
X197757Y64694D01*
X197779Y64657D01*
X197805Y64631D01*
X197857Y64601D01*
X197879Y64579D01*
X197894Y64572D01*
X197931Y64557D01*
X197960Y64550D01*
X197997Y64535D01*
X198078Y64498D01*
X198204Y64483D01*
X198255Y64476D01*
X198373Y64469D01*
X198469Y64461D01*
X198783Y64465D01*
X198823Y64439D01*
X198838Y64424D01*
X198853Y64417D01*
X198886Y64384D01*
X198879Y64340D01*
X198846Y64299D01*
X198823Y64277D01*
X198772Y64262D01*
X198440Y64247D01*
X198418Y64240D01*
X198289Y64251D01*
X198185Y64258D01*
X198111Y64266D01*
X198052Y64273D01*
X197957Y64288D01*
X197927Y64295D01*
X197842Y64336D01*
X197813Y64343D01*
X197765Y64362D01*
X197739Y64380D01*
X197695Y64410D01*
X197643Y64439D01*
X197606Y64483D01*
X197591Y64491D01*
X197565Y64509D01*
X197558Y64524D01*
X197506Y64590D01*
X197492Y64605D01*
X197418Y64760D01*
X197403Y64819D01*
X197392Y64860D01*
X197385Y64889D01*
X197374Y64922D01*
X197366Y64952D01*
X197359Y65026D01*
X197366Y65181D01*
X197374Y65203D01*
X197388Y65254D01*
X197407Y65339D01*
X197414Y65376D01*
X197433Y65424D01*
X197469Y65483D01*
X197495Y65553D01*
X197525Y65598D01*
X197536Y65609D01*
X197551Y65645D01*
X197565Y65705D01*
X197602Y65786D01*
X197610Y65815D01*
X197602Y65933D01*
X197565Y65985D01*
X197536Y66037D01*
X197525Y66048D01*
X197473Y66077D01*
X197458Y66092D01*
X197411Y66103D01*
X197252Y66107D01*
X197230Y66099D01*
X197149Y66062D01*
X197078Y66037D01*
X197053Y66018D01*
X197023Y65989D01*
X197008Y65981D01*
X196946Y65933D01*
X196938Y65918D01*
X196864Y65845D01*
X196857Y65830D01*
X196805Y65764D01*
X196783Y65727D01*
X196765Y65679D01*
X196735Y65634D01*
X196717Y65601D01*
X196702Y65550D01*
X196676Y65479D01*
X196658Y65446D01*
X196643Y65395D01*
X196636Y65365D01*
X196621Y65277D01*
X196614Y65247D01*
X196606Y65203D01*
X196599Y65181D01*
X196591Y65151D01*
X196584Y65100D01*
X196577Y64981D01*
X196588Y64823D01*
X196595Y64786D01*
X196606Y64745D01*
X196614Y64716D01*
X196621Y64664D01*
X196628Y64635D01*
X196647Y64550D01*
X196673Y64495D01*
X196695Y64443D01*
X196721Y64373D01*
X196757Y64314D01*
X196791Y64251D01*
X196824Y64210D01*
X196857Y64148D01*
X196901Y64103D01*
X196923Y64066D01*
X196949Y64033D01*
X196960Y64030D01*
X196968Y64015D01*
X196997Y63985D01*
X197005Y63971D01*
X197045Y63930D01*
X197060Y63923D01*
X197126Y63856D01*
X197141Y63849D01*
X197163Y63827D01*
X197178Y63819D01*
X197215Y63782D01*
X197267Y63753D01*
X197303Y63716D01*
X197340Y63701D01*
X197377Y63679D01*
X197429Y63642D01*
X197499Y63616D01*
X197510Y63605D01*
X197525Y63598D01*
X197540Y63583D01*
X197576Y63569D01*
X197617Y63557D01*
X197676Y63535D01*
X197717Y63517D01*
X197754Y63502D01*
X197813Y63487D01*
X197890Y63476D01*
X197931Y63465D01*
X198004Y63443D01*
X198130Y63428D01*
X198181Y63421D01*
X198355Y63410D01*
X198890Y63406D01*
X198912Y63414D01*
X199502Y63421D01*
X199510D01*
X200118Y63432D01*
X200340Y63439D01*
X200487Y63447D01*
X200620Y63454D01*
X200738Y63469D01*
X200812Y63476D01*
X200901Y63484D01*
X200974Y63491D01*
X201074Y63502D01*
X201103Y63509D01*
X201159Y63520D01*
X201236Y63554D01*
X201266Y63561D01*
X201340Y63554D01*
X201365Y63535D01*
X201373Y63520D01*
X201388Y63484D01*
X201395Y63454D01*
X201388Y63425D01*
X201358Y63373D01*
X201185Y63296D01*
X201126Y63281D01*
X201033Y63270D01*
X201004Y63262D01*
X200959Y63255D01*
X200930Y63248D01*
X200893Y63240D01*
X200794Y63229D01*
X200764Y63222D01*
X200307Y63207D01*
X200037Y63203D01*
X199244Y63207D01*
X199222Y63200D01*
X198676Y63192D01*
X198654Y63185D01*
X198359Y63192D01*
X198263Y63200D01*
X198078Y63207D01*
X198056Y63214D01*
X197957Y63225D01*
X197920Y63233D01*
X197857Y63251D01*
X197827Y63259D01*
X197787Y63270D01*
X197757Y63277D01*
X197720Y63284D01*
X197676Y63292D01*
X197617Y63314D01*
X197606Y63325D01*
X197569Y63340D01*
X197518Y63354D01*
X197458Y63377D01*
X197414Y63406D01*
X197377Y63421D01*
X197329Y63439D01*
X197318Y63450D01*
X197303Y63458D01*
X197289Y63473D01*
X197274Y63480D01*
X197193Y63524D01*
X197171Y63546D01*
X197104Y63583D01*
X197067Y63620D01*
X197053Y63627D01*
X197001Y63664D01*
X196957Y63709D01*
X196942Y63716D01*
X196890Y63768D01*
X196876Y63775D01*
X196842Y63808D01*
X196835Y63823D01*
X196776Y63882D01*
X196769Y63897D01*
X196750Y63915D01*
X196735Y63923D01*
X196710Y63949D01*
X196673Y64015D01*
X196643Y64044D01*
X196599Y64126D01*
X196584Y64140D01*
X196562Y64192D01*
X196525Y64258D01*
X196510Y64273D01*
X196496Y64310D01*
X196484Y64351D01*
X196462Y64410D01*
X196451Y64421D01*
X196437Y64458D01*
X196422Y64517D01*
X196411Y64572D01*
X196403Y64601D01*
X196378Y64686D01*
X196370Y64738D01*
X196363Y64767D01*
X196348Y64959D01*
X196355Y65203D01*
X196363Y65225D01*
X196370Y65328D01*
X196392Y65380D01*
X196407Y65431D01*
X196414Y65461D01*
X196425Y65509D01*
X196433Y65539D01*
X196488Y65660D01*
X196499Y65701D01*
X196514Y65738D01*
X196540Y65764D01*
X196555Y65800D01*
X196584Y65852D01*
X196614Y65882D01*
X196636Y65933D01*
X196643Y65948D01*
X196687Y65992D01*
X196695Y66007D01*
X196728Y66048D01*
X196868Y66188D01*
X196883Y66195D01*
X196923Y66228D01*
X196935Y66240D01*
X196986Y66262D01*
X197053Y66299D01*
X197104Y66321D01*
X197134Y66328D01*
X197185Y66335D01*
X197245Y66350D01*
X197318Y66357D01*
X197436Y66350D01*
D02*
G37*
G36*
X202786Y65627D02*
X202848Y65594D01*
X202863Y65557D01*
X202871Y65527D01*
X202878Y65476D01*
X202885Y65446D01*
X202896Y65391D01*
X202904Y65361D01*
X202907Y65328D01*
X202911Y65324D01*
X202919Y65258D01*
X202926Y65155D01*
X202930Y64155D01*
X202922Y64133D01*
X202915Y63373D01*
X202867Y63303D01*
X202815Y63281D01*
X202764Y63288D01*
X202745Y63299D01*
X202738Y63314D01*
X202716Y63366D01*
X202701Y63425D01*
X202690Y63524D01*
X202682Y63650D01*
X202675Y63738D01*
X202668Y63893D01*
X202660Y65406D01*
X202657Y65535D01*
X202664Y65557D01*
X202671Y65587D01*
X202705Y65620D01*
X202764Y65634D01*
X202786Y65627D01*
D02*
G37*
G36*
X201362Y66667D02*
X201395Y66634D01*
X201402Y66619D01*
X201417Y66605D01*
X201424Y66590D01*
X201432Y66568D01*
Y66523D01*
X201428Y66520D01*
X201424Y66465D01*
X201432Y66442D01*
X201439Y66044D01*
X201447Y66022D01*
X201458Y65789D01*
X201465Y65708D01*
X201472Y65642D01*
X201480Y65612D01*
X201491Y65572D01*
X201498Y65542D01*
X201513Y65439D01*
X201524Y65369D01*
X201539Y65295D01*
X201546Y65251D01*
X201568Y65192D01*
X201579Y65151D01*
X201594Y65092D01*
X201605Y65044D01*
X201624Y64996D01*
X201646Y64945D01*
X201668Y64856D01*
X201694Y64786D01*
X201727Y64708D01*
X201745Y64631D01*
X201786Y64546D01*
X201801Y64495D01*
X201808Y64465D01*
X201834Y64395D01*
X201874Y64303D01*
X201886Y64255D01*
X201893Y64225D01*
X201908Y64188D01*
X201919Y64177D01*
X201937Y64129D01*
X201945Y64100D01*
X201952Y64063D01*
X201963Y64022D01*
X201981Y63974D01*
X201996Y63937D01*
X202007Y63897D01*
X202015Y63867D01*
X202041Y63753D01*
X202048Y63723D01*
X202066Y63675D01*
X202081Y63587D01*
X202092Y63495D01*
X202096Y63395D01*
X202088Y63373D01*
X202081Y63321D01*
X202055Y63288D01*
X202018Y63273D01*
X201981Y63266D01*
X201945Y63288D01*
X201904Y63329D01*
X201882Y63380D01*
X201874Y63432D01*
X201863Y63517D01*
X201856Y63546D01*
X201834Y63605D01*
X201815Y63653D01*
X201786Y63771D01*
X201749Y63853D01*
X201727Y63941D01*
X201708Y63989D01*
X201675Y64044D01*
X201657Y64129D01*
X201642Y64166D01*
X201609Y64222D01*
X201598Y64269D01*
X201583Y64328D01*
X201528Y64450D01*
X201487Y64565D01*
X201454Y64642D01*
X201443Y64690D01*
X201435Y64719D01*
X201421Y64756D01*
X201388Y64834D01*
X201369Y64919D01*
X201347Y64978D01*
X201328Y65018D01*
X201314Y65077D01*
X201303Y65140D01*
X201295Y65177D01*
X201273Y65266D01*
X201262Y65306D01*
X201251Y65354D01*
X201244Y65391D01*
X201236Y65450D01*
X201229Y65531D01*
X201203Y65734D01*
X201196Y65764D01*
X201188Y65860D01*
X201181Y66000D01*
X201188Y66435D01*
X201196Y66457D01*
X201207Y66505D01*
X201214Y66549D01*
X201221Y66579D01*
X201251Y66623D01*
X201262Y66634D01*
X201269Y66649D01*
X201280Y66660D01*
X201317Y66675D01*
X201362Y66667D01*
D02*
G37*
G36*
X204590Y70309D02*
X204634Y70279D01*
X204641Y70250D01*
X204649Y70213D01*
X204641Y70191D01*
X204634Y70006D01*
X204627Y69984D01*
X204616Y69914D01*
X204601Y69877D01*
X204582Y69829D01*
X204571Y69781D01*
X204556Y69722D01*
X204501Y69615D01*
X204483Y69567D01*
X204472Y69556D01*
X204464Y69541D01*
X204442Y69519D01*
X204405Y69453D01*
X204368Y69416D01*
X204346Y69379D01*
X204295Y69327D01*
X204287Y69313D01*
X204202Y69228D01*
X204188Y69220D01*
X204136Y69169D01*
X204121Y69161D01*
X204070Y69125D01*
X204029Y69091D01*
X204007Y69069D01*
X203999Y69017D01*
X204007Y68811D01*
X204014Y68648D01*
X204022Y68626D01*
X204033Y68512D01*
X204040Y68468D01*
X204047Y68438D01*
X204059Y68339D01*
X204088Y67962D01*
X204095Y67933D01*
X204103Y67815D01*
X204110Y67793D01*
X204121Y67678D01*
X204129Y67575D01*
X204136Y67413D01*
X204143Y67154D01*
X204147Y66324D01*
X204140Y66302D01*
X204132Y66007D01*
X204125Y65985D01*
X204114Y65812D01*
X204095Y65660D01*
X204084Y65561D01*
X204070Y65384D01*
X204062Y65324D01*
X204055Y65258D01*
X204047Y65199D01*
X204040Y65162D01*
X204033Y65118D01*
X204011Y65007D01*
X204003Y64948D01*
X203981Y64808D01*
X203974Y64779D01*
X203955Y64716D01*
X203948Y64664D01*
X203940Y64635D01*
X203926Y64531D01*
X203900Y64417D01*
X203881Y64354D01*
X203867Y64295D01*
X203848Y64181D01*
X203833Y64100D01*
X203808Y64015D01*
X203789Y63901D01*
X203778Y63801D01*
X203771Y63771D01*
X203760Y63709D01*
X203745Y63650D01*
X203737Y63613D01*
X203730Y63546D01*
X203723Y63443D01*
X203715Y63377D01*
X203708Y63340D01*
X203701Y63310D01*
X203682Y63284D01*
X203642Y63244D01*
X203616Y63240D01*
X203590Y63251D01*
X203535Y63306D01*
X203527Y63321D01*
X203513Y63358D01*
X203505Y63410D01*
X203513Y63609D01*
X203520Y63631D01*
X203531Y63716D01*
X203564Y63978D01*
X203575Y64055D01*
X203586Y64155D01*
X203605Y64240D01*
X203616Y64280D01*
X203630Y64340D01*
X203656Y64513D01*
X203671Y64601D01*
X203682Y64642D01*
X203690Y64672D01*
X203697Y64745D01*
X203704Y64775D01*
X203719Y64878D01*
X203730Y64970D01*
X203745Y65059D01*
X203752Y65088D01*
X203767Y65184D01*
X203774Y65229D01*
X203782Y65317D01*
X203789Y65391D01*
X203797Y65472D01*
X203804Y65546D01*
X203819Y65642D01*
X203826Y65708D01*
X203833Y65753D01*
X203841Y65789D01*
X203848Y65937D01*
X203856Y66055D01*
X203863Y66188D01*
X203870Y66343D01*
X203885Y66786D01*
X203889Y67084D01*
X203881Y67106D01*
X203874Y67409D01*
Y67416D01*
X203867Y67667D01*
X203848Y68047D01*
X203841Y68180D01*
X203833Y68254D01*
X203815Y68420D01*
X203808Y68471D01*
X203800Y68700D01*
X203793Y68730D01*
X203789Y68851D01*
X203793Y68922D01*
X203760Y68962D01*
X203664Y69014D01*
X203645Y69032D01*
X203638Y69062D01*
X203645Y69106D01*
X203678Y69147D01*
X203760Y69191D01*
X203782Y69213D01*
X203863Y69257D01*
X203885Y69279D01*
X203900Y69287D01*
X203966Y69338D01*
X203996Y69368D01*
X204011Y69375D01*
X204125Y69490D01*
X204132Y69504D01*
X204154Y69527D01*
X204162Y69541D01*
X204191Y69571D01*
X204199Y69586D01*
X204228Y69637D01*
X204261Y69678D01*
X204354Y69881D01*
X204361Y69910D01*
X204379Y69958D01*
X204413Y70036D01*
X204420Y70065D01*
X204431Y70135D01*
X204438Y70165D01*
X204450Y70205D01*
X204468Y70253D01*
X204505Y70298D01*
X204520Y70312D01*
X204549Y70320D01*
X204590Y70309D01*
D02*
G37*
G36*
X224242Y72430D02*
X224287Y72423D01*
X224324Y72400D01*
X224353Y72371D01*
X224368Y72364D01*
X224434Y72327D01*
X224471Y72290D01*
X224486Y72282D01*
X224534Y72249D01*
X224541Y72234D01*
X224567Y72209D01*
X224604Y72186D01*
X224648Y72142D01*
X224663Y72135D01*
X224681Y72116D01*
X224689Y72102D01*
X224711Y72079D01*
X224714Y72076D01*
X224729Y72061D01*
X224744Y72054D01*
X224755Y72043D01*
X224763Y72028D01*
X224777Y72013D01*
X224781Y72002D01*
X224796Y71995D01*
X224807Y71984D01*
X224814Y71969D01*
X224847Y71928D01*
X224888Y71888D01*
X224903Y71851D01*
X224917Y71792D01*
X224910Y71770D01*
X224881Y71718D01*
X224847Y71707D01*
X224781Y71714D01*
X224748Y71740D01*
X224740Y71755D01*
X224729Y71766D01*
X224714Y71773D01*
X224674Y71807D01*
X224641Y71840D01*
X224626Y71847D01*
X224593Y71873D01*
X224585Y71888D01*
X224567Y71906D01*
X224552Y71913D01*
X224482Y71961D01*
X224456Y71987D01*
X224442Y71995D01*
X224375Y72046D01*
X224335Y72079D01*
X224301Y72113D01*
X224279Y72120D01*
X224242Y72098D01*
X224209Y72072D01*
X224202Y72057D01*
X224180Y72006D01*
X224172Y71991D01*
X224139Y71950D01*
X224113Y71888D01*
X224095Y71840D01*
X224076Y71799D01*
X224061Y71762D01*
X224043Y71714D01*
X224006Y71655D01*
X223984Y71633D01*
X223955Y71626D01*
X223910Y71633D01*
X223877Y71666D01*
X223862Y71703D01*
X223855Y71777D01*
X223862Y71799D01*
X223873Y71840D01*
X223881Y71869D01*
X223888Y71906D01*
X223896Y71950D01*
X223918Y72039D01*
X223925Y72076D01*
X223940Y72113D01*
X223958Y72146D01*
X223973Y72183D01*
X223984Y72223D01*
X224010Y72264D01*
X224039Y72308D01*
X224061Y72345D01*
X224076Y72360D01*
X224080Y72371D01*
X224091Y72375D01*
X224098Y72389D01*
X224117Y72408D01*
X224132Y72415D01*
X224168Y72430D01*
X224220Y72437D01*
X224242Y72430D01*
D02*
G37*
G36*
X217742Y72135D02*
X217805Y72072D01*
X217838Y71980D01*
X217849Y71969D01*
X217864Y71917D01*
X217871Y71888D01*
X217882Y71840D01*
X217893Y71740D01*
X217900Y71711D01*
X217912Y71611D01*
X217919Y71552D01*
X217926Y71486D01*
X217930Y71083D01*
X217923Y71061D01*
X217915Y70921D01*
X217908Y70892D01*
X217897Y70836D01*
X217871Y70796D01*
X217838Y70785D01*
X217779Y70792D01*
X217753Y70818D01*
X217738Y70869D01*
X217731Y70899D01*
X217723Y71083D01*
X217716Y71106D01*
X217705Y71183D01*
X217698Y71227D01*
X217687Y71327D01*
X217675Y71434D01*
X217664Y71534D01*
X217657Y71563D01*
X217646Y71618D01*
X217628Y71681D01*
X217613Y71733D01*
X217591Y71836D01*
X217580Y71855D01*
X217565Y71862D01*
X217543Y71869D01*
X217513Y71862D01*
X217465Y71843D01*
X217425Y71818D01*
X217410Y71803D01*
X217395Y71795D01*
X217329Y71759D01*
X217299Y71729D01*
X217284Y71722D01*
X217233Y71685D01*
X217211Y71663D01*
X217196Y71655D01*
X217181Y71640D01*
X217166Y71633D01*
X217115Y71582D01*
X217100Y71574D01*
X217045Y71541D01*
X217037Y71526D01*
X217011Y71500D01*
X216997Y71493D01*
X216930Y71426D01*
X216915Y71419D01*
X216882Y71386D01*
X216875Y71371D01*
X216849Y71353D01*
X216823Y71327D01*
X216816Y71312D01*
X216797Y71294D01*
X216783Y71286D01*
X216742Y71246D01*
X216735Y71231D01*
X216650Y71146D01*
X216561Y71131D01*
X216399Y71139D01*
X216377Y71146D01*
X216082Y71153D01*
X215739Y71143D01*
X215650Y71135D01*
X215576Y71128D01*
X215517Y71120D01*
X215455Y71117D01*
X215388Y71153D01*
X215373Y71168D01*
X215359Y71176D01*
X215329Y71220D01*
X215311Y71246D01*
X215300Y71264D01*
X215285Y71272D01*
X215274Y71283D01*
X215266Y71297D01*
X215244Y71320D01*
X215237Y71334D01*
X215152Y71419D01*
X215137Y71426D01*
X215078Y71486D01*
X215064Y71493D01*
X215049Y71508D01*
X215034Y71515D01*
X214997Y71552D01*
X214982Y71559D01*
X214968Y71574D01*
X214953Y71582D01*
X214938Y71596D01*
X214923Y71604D01*
X214894Y71633D01*
X214827Y71670D01*
X214805Y71692D01*
X214754Y71714D01*
X214702Y71744D01*
X214680Y71766D01*
X214610Y71792D01*
X214565Y71821D01*
X214547Y71840D01*
X214506Y71843D01*
X214470Y71829D01*
X214440Y71762D01*
X214429Y71714D01*
X214422Y71670D01*
X214410Y71570D01*
X214403Y71497D01*
X214396Y71467D01*
X214385Y71412D01*
X214374Y71312D01*
X214366Y71260D01*
X214359Y71231D01*
X214352Y71069D01*
X214344Y70929D01*
X214352Y69969D01*
X214359Y69947D01*
X214370Y69516D01*
X214377Y69265D01*
X214381Y69202D01*
X214374Y69180D01*
X214381Y67807D01*
X214388Y67785D01*
X214399Y67376D01*
X214407Y67169D01*
X214414Y67000D01*
X214422Y66867D01*
X214429Y66741D01*
X214436Y66667D01*
X214444Y66601D01*
X214451Y66557D01*
X214458Y66498D01*
X214466Y66424D01*
X214473Y66321D01*
X214488Y66144D01*
X214503Y65996D01*
X214517Y65907D01*
X214528Y65808D01*
X214536Y65778D01*
X214543Y65705D01*
X214551Y65675D01*
X214562Y65546D01*
X214569Y65487D01*
X214577Y65443D01*
X214591Y65384D01*
X214599Y65347D01*
X214606Y65317D01*
X214621Y65184D01*
X214628Y65125D01*
X214635Y65059D01*
X214650Y64985D01*
X214658Y64956D01*
X214669Y64915D01*
X214676Y64885D01*
X214691Y64782D01*
X214709Y64661D01*
X214717Y64624D01*
X214754Y64476D01*
X214761Y64432D01*
X214772Y64332D01*
X214779Y64303D01*
X214791Y64255D01*
X214809Y64192D01*
X214816Y64162D01*
X214835Y64041D01*
X214842Y63982D01*
X214849Y63915D01*
X214857Y63856D01*
X214864Y63790D01*
X214872Y63753D01*
X214890Y63602D01*
X214894Y63458D01*
X214886Y63414D01*
X214879Y63384D01*
X214872Y63347D01*
X214857Y63310D01*
X214827Y63281D01*
X214791Y63266D01*
X214731Y63273D01*
X214728Y63277D01*
X214724Y63281D01*
X214698Y63306D01*
X214691Y63336D01*
X214684Y63388D01*
X214676Y63602D01*
X214669Y63624D01*
X214658Y63672D01*
X214650Y63701D01*
X214643Y63738D01*
X214632Y63838D01*
X214625Y63867D01*
X214613Y63937D01*
X214606Y63982D01*
X214599Y64019D01*
X214591Y64048D01*
X214573Y64089D01*
X214565Y64118D01*
X214547Y64232D01*
X214540Y64269D01*
X214532Y64299D01*
X214517Y64336D01*
X214499Y64398D01*
X214492Y64428D01*
X214484Y64480D01*
X214477Y64509D01*
X214458Y64594D01*
X214433Y64679D01*
X214425Y64731D01*
X214410Y64819D01*
X214392Y64904D01*
X214385Y64934D01*
X214366Y64996D01*
X214359Y65026D01*
X214344Y65151D01*
X214337Y65181D01*
X214326Y65273D01*
X214311Y65354D01*
X214300Y65395D01*
X214292Y65424D01*
X214278Y65527D01*
X214267Y65620D01*
X214259Y65686D01*
X214252Y65745D01*
X214245Y65782D01*
X214222Y65915D01*
X214215Y65974D01*
X214208Y66048D01*
X214200Y66129D01*
X214193Y66203D01*
X214178Y66394D01*
X214171Y66468D01*
X214163Y66513D01*
X214156Y66586D01*
X214141Y66778D01*
X214126Y67125D01*
X214119Y67398D01*
X214112Y67745D01*
X214108Y68715D01*
X214115Y68737D01*
X214123Y69696D01*
X214115Y69718D01*
X214108Y69947D01*
X214101Y69999D01*
X214089Y70157D01*
X214086Y70914D01*
X214093Y70936D01*
X214101Y71083D01*
X214108Y71106D01*
X214119Y71272D01*
X214141Y71537D01*
X214156Y71626D01*
X214171Y71700D01*
X214182Y71740D01*
X214193Y71832D01*
X214200Y71862D01*
X214215Y71936D01*
X214230Y71973D01*
X214292Y72102D01*
X214311Y72120D01*
X214363Y72142D01*
X214392Y72150D01*
X214481Y72142D01*
X214517Y72127D01*
X214547Y72120D01*
X214599Y72083D01*
X214647Y72065D01*
X214684Y72050D01*
X214694Y72039D01*
X214709Y72032D01*
X214731Y72009D01*
X214802Y71984D01*
X214835Y71958D01*
X214849Y71950D01*
X214864Y71936D01*
X214912Y71917D01*
X214938Y71899D01*
X214960Y71877D01*
X214975Y71869D01*
X215041Y71832D01*
X215086Y71788D01*
X215100Y71781D01*
X215141Y71747D01*
X215152Y71736D01*
X215167Y71729D01*
X215189Y71707D01*
X215204Y71700D01*
X215255Y71648D01*
X215270Y71640D01*
X215466Y71445D01*
X215473Y71430D01*
X215514Y71390D01*
X215550Y71375D01*
X215617Y71382D01*
X215632Y71397D01*
X215691Y71412D01*
X215827Y71423D01*
X216244Y71426D01*
X216266Y71419D01*
X216417Y71408D01*
X216454Y71393D01*
X216488Y71382D01*
X216532Y71390D01*
X216547Y71404D01*
X216561Y71412D01*
X216602Y71445D01*
X216617Y71460D01*
X216624Y71474D01*
X216642Y71493D01*
X216657Y71500D01*
X216683Y71526D01*
X216690Y71541D01*
X216724Y71574D01*
X216738Y71582D01*
X216757Y71607D01*
X216783Y71633D01*
X216797Y71640D01*
X216871Y71714D01*
X216886Y71722D01*
X216938Y71773D01*
X216952Y71781D01*
X216967Y71795D01*
X216982Y71803D01*
X217026Y71847D01*
X217041Y71855D01*
X217081Y71888D01*
X217107Y71913D01*
X217122Y71921D01*
X217174Y71958D01*
X217189Y71973D01*
X217203Y71980D01*
X217248Y72009D01*
X217262Y72017D01*
X217277Y72032D01*
X217292Y72039D01*
X217402Y72098D01*
X217484Y72135D01*
X217535Y72142D01*
X217565Y72150D01*
X217613Y72161D01*
X217690Y72164D01*
X217742Y72135D01*
D02*
G37*
G36*
X224508Y71582D02*
X224563Y71548D01*
X224571Y71534D01*
X224578Y71511D01*
X224571Y71460D01*
X224523Y71412D01*
X224508Y71404D01*
X224456Y71375D01*
X224405Y71360D01*
X224335Y71334D01*
X224279Y71301D01*
X224198Y71257D01*
X224176Y71235D01*
X224161Y71227D01*
X224110Y71198D01*
X224050Y71139D01*
X224036Y71131D01*
X223980Y71076D01*
X223973Y71061D01*
X223958Y71047D01*
X223951Y71032D01*
X223907Y70987D01*
X223877Y70936D01*
X223848Y70906D01*
X223825Y70855D01*
X223803Y70818D01*
X223774Y70774D01*
X223759Y70737D01*
X223737Y70700D01*
X223722Y70685D01*
X223715Y70670D01*
X223663Y70574D01*
X223641Y70552D01*
X223619Y70500D01*
X223611Y70486D01*
X223578Y70445D01*
X223567Y70434D01*
X223560Y70419D01*
X223527Y70371D01*
X223512Y70364D01*
X223486Y70338D01*
X223479Y70323D01*
X223445Y70283D01*
X223431Y70275D01*
X223379Y70224D01*
X223313Y70187D01*
X223298Y70172D01*
X223261Y70157D01*
X223213Y70146D01*
X223172Y70143D01*
X223121Y70172D01*
X223088Y70227D01*
X223095Y70272D01*
X223128Y70305D01*
X223143Y70312D01*
X223187Y70357D01*
X223202Y70364D01*
X223250Y70397D01*
X223257Y70412D01*
X223290Y70453D01*
X223324Y70486D01*
X223338Y70523D01*
X223368Y70574D01*
X223390Y70596D01*
X223405Y70633D01*
X223431Y70703D01*
X223449Y70722D01*
X223457Y70737D01*
X223486Y70803D01*
X223552Y70943D01*
X223578Y70991D01*
X223593Y70999D01*
X223611Y71032D01*
X223630Y71080D01*
X223667Y71124D01*
X223685Y71143D01*
X223693Y71157D01*
X223729Y71209D01*
X223752Y71231D01*
X223759Y71246D01*
X223774Y71260D01*
X223781Y71275D01*
X223807Y71294D01*
X223866Y71353D01*
X223896Y71368D01*
X223899Y71371D01*
X223940Y71412D01*
X224006Y71449D01*
X224058Y71486D01*
X224150Y71519D01*
X224187Y71534D01*
X224227Y71552D01*
X224279Y71567D01*
X224353Y71574D01*
X224405Y71582D01*
X224434Y71589D01*
X224508Y71582D01*
D02*
G37*
G36*
X224213Y70445D02*
X224264Y70416D01*
X224287Y70394D01*
X224301Y70386D01*
X224353Y70364D01*
X224419Y70357D01*
X224442Y70364D01*
X224482Y70375D01*
X224508Y70394D01*
X224552Y70423D01*
X224582Y70430D01*
X224626D01*
X224630Y70427D01*
X224670Y70401D01*
X224681Y70390D01*
X224696Y70338D01*
X224689Y70250D01*
X224659Y70198D01*
X224626Y70165D01*
X224611Y70157D01*
X224560Y70121D01*
X224545Y70113D01*
X224493Y70091D01*
X224419Y70084D01*
X224301Y70091D01*
X224235Y70128D01*
X224176Y70165D01*
X224161Y70172D01*
X224128Y70205D01*
X224069Y70331D01*
X224076Y70382D01*
X224110Y70423D01*
X224124Y70438D01*
X224161Y70453D01*
X224213Y70445D01*
D02*
G37*
G36*
X216797Y70349D02*
X216856Y70312D01*
X216871Y70305D01*
X216912Y70272D01*
X216941Y70242D01*
X216963Y70191D01*
X216971Y70161D01*
X216982Y70113D01*
X216993Y70073D01*
X216986Y69969D01*
X216978Y69947D01*
X216971Y69918D01*
X216960Y69862D01*
X216934Y69822D01*
X216856Y69744D01*
X216805Y69730D01*
X216742Y69726D01*
X216672Y69737D01*
X216631Y69770D01*
X216565Y69836D01*
X216543Y69888D01*
X216535Y69918D01*
Y69925D01*
X216528Y70021D01*
X216535Y70161D01*
X216572Y70227D01*
X216624Y70294D01*
X216642Y70312D01*
X216738Y70357D01*
X216797Y70349D01*
D02*
G37*
G36*
X215536Y70290D02*
X215547Y70279D01*
X215554Y70264D01*
X215606Y70191D01*
X215613Y70161D01*
X215621Y70109D01*
X215628Y70021D01*
X215621Y69999D01*
X215613Y69903D01*
X215576Y69836D01*
X215554Y69814D01*
X215547Y69800D01*
X215491Y69744D01*
X215440Y69730D01*
X215373Y69722D01*
X215351Y69730D01*
X215311Y69741D01*
X215266Y69777D01*
X215241Y69803D01*
X215226Y69811D01*
X215207Y69829D01*
X215193Y69873D01*
Y69881D01*
X215185Y69903D01*
X215174Y69951D01*
X215167Y69980D01*
X215163Y70095D01*
X215171Y70117D01*
X215181Y70165D01*
X215204Y70224D01*
X215230Y70264D01*
X215255Y70290D01*
X215270Y70298D01*
X215344Y70349D01*
X215410Y70357D01*
X215536Y70290D01*
D02*
G37*
G36*
X223231Y69877D02*
X223265Y69851D01*
X223279Y69814D01*
X223338Y69689D01*
X223346Y69667D01*
Y69659D01*
X223361Y69645D01*
X223368Y69630D01*
X223397Y69586D01*
X223416Y69538D01*
X223471Y69460D01*
X223501Y69409D01*
X223534Y69368D01*
X223545Y69357D01*
X223552Y69342D01*
X223567Y69327D01*
X223574Y69313D01*
X223600Y69294D01*
X223619Y69276D01*
X223626Y69261D01*
X223718Y69169D01*
X223733Y69161D01*
X223774Y69128D01*
X223800Y69102D01*
X223881Y69058D01*
X223903Y69036D01*
X223940Y69021D01*
X224003Y69010D01*
X224039Y68995D01*
X224050Y68984D01*
X224065Y68977D01*
X224124Y68940D01*
X224139Y68933D01*
X224172Y68899D01*
X224180Y68870D01*
X224172Y68804D01*
X224146Y68770D01*
X224132Y68763D01*
X224117Y68748D01*
X224102Y68741D01*
X224087Y68726D01*
X224073Y68719D01*
X224054Y68678D01*
X224047Y68582D01*
X224039Y68553D01*
X224032Y68435D01*
X224025Y68412D01*
X224014Y68342D01*
X224006Y68305D01*
X223988Y68154D01*
X223980Y68103D01*
X223969Y67900D01*
X223962Y67782D01*
X223955Y67649D01*
X223947Y67486D01*
X223940Y67162D01*
X223936Y67143D01*
X223943Y67121D01*
X223951Y66752D01*
X223958Y66730D01*
X223969Y66483D01*
X223977Y66306D01*
X223980Y66199D01*
X223973Y66177D01*
X223955Y66129D01*
X223940Y66114D01*
X223910Y66107D01*
X223859Y66114D01*
X223818Y66147D01*
X223781Y66206D01*
X223766Y66258D01*
X223759Y66310D01*
X223752Y66339D01*
X223737Y66442D01*
X223722Y66494D01*
X223715Y66523D01*
X223707Y66575D01*
X223700Y66649D01*
X223693Y66745D01*
X223685Y66774D01*
X223674Y67044D01*
X223671Y67365D01*
X223678Y67387D01*
X223685Y67741D01*
X223693Y67763D01*
X223704Y67973D01*
X223726Y68151D01*
X223733Y68180D01*
X223741Y68224D01*
X223752Y68324D01*
X223759Y68375D01*
X223770Y68468D01*
X223781Y68567D01*
X223792Y68615D01*
X223822Y68696D01*
X223829Y68726D01*
X223833Y68767D01*
X223811Y68804D01*
X223792Y68822D01*
X223777Y68829D01*
X223726Y68866D01*
X223678Y68885D01*
X223652Y68903D01*
X223630Y68925D01*
X223615Y68933D01*
X223545Y68981D01*
X223538Y68995D01*
X223527Y69006D01*
X223512Y69014D01*
X223405Y69121D01*
X223397Y69135D01*
X223364Y69176D01*
X223346Y69195D01*
X223324Y69231D01*
X223290Y69272D01*
X223279Y69283D01*
X223220Y69394D01*
X223191Y69460D01*
X223172Y69508D01*
X223139Y69564D01*
X223128Y69604D01*
X223113Y69693D01*
X223095Y69755D01*
X223088Y69785D01*
X223099Y69825D01*
X223135Y69870D01*
X223172Y69884D01*
X223231Y69877D01*
D02*
G37*
G36*
X217875Y70519D02*
X217915Y70486D01*
X217945Y70442D01*
X217959Y70382D01*
X217971Y70335D01*
X217978Y70305D01*
X217989Y70264D01*
X218000Y70194D01*
X218007Y70157D01*
X218015Y70113D01*
X218026Y70014D01*
X218033Y69962D01*
X218052Y69796D01*
X218056Y69593D01*
X218048Y69571D01*
X218041Y69475D01*
X218033Y69453D01*
X218026Y69401D01*
X218007Y69316D01*
X217974Y69254D01*
X217959Y69217D01*
X217945Y69158D01*
X217915Y69106D01*
X217886Y69040D01*
X217871Y68951D01*
X217878Y68811D01*
X217886Y68789D01*
X217904Y68741D01*
X217923Y68722D01*
X217930Y68708D01*
X217974Y68626D01*
X218011Y68590D01*
X218019Y68575D01*
X218056Y68523D01*
X218100Y68479D01*
X218107Y68464D01*
X218174Y68398D01*
X218181Y68383D01*
X218207Y68357D01*
X218218Y68353D01*
X218225Y68339D01*
X218247Y68317D01*
X218255Y68302D01*
X218306Y68250D01*
X218314Y68235D01*
X218328Y68221D01*
X218336Y68206D01*
X218402Y68139D01*
X218410Y68125D01*
X218446Y68088D01*
X218469Y68051D01*
X218502Y68010D01*
X218513Y67999D01*
X218520Y67984D01*
X218557Y67933D01*
X218579Y67911D01*
X218616Y67844D01*
X218653Y67807D01*
X218690Y67741D01*
X218727Y67689D01*
X218749Y67652D01*
X218801Y67579D01*
X218808Y67549D01*
X218875Y67453D01*
X218885Y67413D01*
X218911Y67372D01*
X218926Y67357D01*
X218941Y67320D01*
X218959Y67273D01*
X218996Y67213D01*
X219033Y67118D01*
X219081Y67025D01*
X219114Y66933D01*
X219140Y66885D01*
X219162Y66811D01*
X219188Y66741D01*
X219199Y66730D01*
X219214Y66693D01*
X219229Y66642D01*
X219240Y66594D01*
X219247Y66564D01*
X219262Y66527D01*
X219280Y66479D01*
X219295Y66428D01*
X219314Y66343D01*
X219347Y66236D01*
X219358Y66188D01*
X219369Y66147D01*
X219387Y66026D01*
X219395Y65981D01*
X219406Y65941D01*
X219421Y65889D01*
X219428Y65815D01*
X219443Y65712D01*
X219454Y65546D01*
X219461Y65398D01*
X219465Y65151D01*
X219457Y65129D01*
X219450Y64900D01*
X219443Y64878D01*
X219435Y64767D01*
X219428Y64745D01*
X219421Y64649D01*
X219413Y64627D01*
X219398Y64590D01*
X219384Y64539D01*
X219376Y64487D01*
X219369Y64458D01*
X219350Y64410D01*
X219339Y64398D01*
X219332Y64384D01*
X219306Y64358D01*
X219277Y64351D01*
X219247Y64358D01*
X219229Y64376D01*
X219221Y64391D01*
X219188Y64432D01*
X219177Y64443D01*
X219170Y64472D01*
X219181Y64542D01*
X219188Y64587D01*
X219195Y64616D01*
X219203Y64653D01*
X219210Y64742D01*
X219218Y64823D01*
X219221Y65144D01*
X219214Y65166D01*
X219207Y65402D01*
X219199Y65424D01*
X219188Y65494D01*
X219181Y65539D01*
X219144Y65841D01*
X219133Y65911D01*
X219118Y65948D01*
X219096Y66037D01*
X219085Y66107D01*
X219070Y66180D01*
X219044Y66265D01*
X219015Y66369D01*
X218996Y66446D01*
X218967Y66520D01*
X218956Y66560D01*
X218934Y66649D01*
X218882Y66760D01*
X218875Y66789D01*
X218863Y66837D01*
X218815Y66929D01*
X218782Y67022D01*
X218749Y67077D01*
X218731Y67125D01*
X218723Y67154D01*
X218686Y67213D01*
X218653Y67291D01*
X218624Y67343D01*
X218594Y67387D01*
X218576Y67435D01*
X218557Y67461D01*
X218542Y67475D01*
X218535Y67490D01*
X218513Y67542D01*
X218491Y67579D01*
X218469Y67601D01*
X218424Y67682D01*
X218410Y67697D01*
X218402Y67712D01*
X218388Y67726D01*
X218351Y67793D01*
X218314Y67830D01*
X218284Y67881D01*
X218247Y67918D01*
X218240Y67933D01*
X218207Y67973D01*
X218181Y67999D01*
X218174Y68014D01*
X218140Y68055D01*
X218107Y68088D01*
X218100Y68103D01*
X218067Y68151D01*
X218052Y68158D01*
X218026Y68184D01*
X218019Y68199D01*
X217985Y68239D01*
X217945Y68280D01*
X217937Y68294D01*
X217893Y68339D01*
X217871Y68375D01*
X217834Y68412D01*
X217827Y68427D01*
X217779Y68497D01*
X217760Y68516D01*
X217753Y68530D01*
X217709Y68612D01*
X217694Y68626D01*
X217679Y68663D01*
X217664Y68715D01*
X217650Y68774D01*
X217635Y68826D01*
X217628Y68855D01*
X217620Y68973D01*
X217628Y68995D01*
X217639Y69036D01*
X217657Y69099D01*
X217675Y69176D01*
X217698Y69235D01*
X217738Y69327D01*
X217749Y69375D01*
X217757Y69405D01*
X217790Y69490D01*
X217797Y69519D01*
X217805Y69571D01*
X217812Y69711D01*
X217801Y69995D01*
X217793Y70069D01*
X217779Y70157D01*
X217768Y70257D01*
X217760Y70287D01*
X217753Y70360D01*
X217760Y70434D01*
Y70442D01*
X217793Y70504D01*
X217808Y70512D01*
X217845Y70526D01*
X217875Y70519D01*
D02*
G37*
G36*
X225659Y72356D02*
X225729Y72308D01*
X225777Y72260D01*
X225792Y72253D01*
X225810Y72227D01*
X225869Y72168D01*
X225877Y72153D01*
X225917Y72113D01*
X225932Y72105D01*
X225950Y72079D01*
X225984Y72039D01*
X226017Y72006D01*
X226024Y71991D01*
X226076Y71925D01*
X226098Y71902D01*
X226128Y71851D01*
X226150Y71829D01*
X226157Y71814D01*
X226186Y71762D01*
X226201Y71747D01*
X226209Y71733D01*
X226223Y71718D01*
X226238Y71681D01*
X226257Y71633D01*
X226275Y71615D01*
X226283Y71600D01*
X226297Y71585D01*
X226334Y71482D01*
X226371Y71430D01*
X226382Y71382D01*
X226389Y71353D01*
X226412Y71294D01*
X226423Y71283D01*
X226445Y71209D01*
X226467Y71120D01*
X226493Y71050D01*
X226511Y70987D01*
X226519Y70958D01*
X226526Y70906D01*
X226533Y70877D01*
X226544Y70814D01*
X226552Y70785D01*
X226578Y70700D01*
X226585Y70626D01*
X226600Y70500D01*
X226607Y70449D01*
X226618Y70320D01*
X226625Y70283D01*
X226633Y70217D01*
X226640Y70135D01*
X226648Y70047D01*
X226651Y69504D01*
X226644Y69482D01*
X226640Y69368D01*
X226659Y69202D01*
X226677Y69154D01*
X226707Y69110D01*
X226755Y69025D01*
X226792Y68988D01*
X226799Y68973D01*
X226832Y68933D01*
X226887Y68877D01*
X226895Y68862D01*
X226980Y68778D01*
X226994Y68770D01*
X227013Y68744D01*
X227035Y68722D01*
X227042Y68708D01*
X227068Y68682D01*
X227083Y68674D01*
X227094Y68663D01*
X227101Y68648D01*
X227249Y68501D01*
X227256Y68486D01*
X227367Y68375D01*
X227375Y68361D01*
X227408Y68320D01*
X227433Y68302D01*
X227441Y68287D01*
X227456Y68272D01*
X227463Y68257D01*
X227515Y68206D01*
X227522Y68191D01*
X227537Y68176D01*
X227544Y68162D01*
X227566Y68147D01*
X227574Y68132D01*
X227588Y68117D01*
X227611Y68080D01*
X227640Y68051D01*
X227647Y68036D01*
X227684Y67984D01*
X227692Y67970D01*
X227729Y67933D01*
X227758Y67881D01*
X227788Y67852D01*
X227824Y67785D01*
X227858Y67745D01*
X227891Y67682D01*
X227906Y67667D01*
X227913Y67652D01*
X227928Y67638D01*
X227979Y67542D01*
X227994Y67527D01*
X228039Y67446D01*
X228068Y67402D01*
X228101Y67309D01*
X228120Y67291D01*
X228127Y67276D01*
X228157Y67210D01*
X228164Y67180D01*
X228216Y67106D01*
X228227Y67066D01*
X228234Y67036D01*
X228282Y66944D01*
X228289Y66915D01*
X228308Y66867D01*
X228323Y66830D01*
X228341Y66789D01*
X228356Y66752D01*
X228371Y66693D01*
X228396Y66623D01*
X228422Y66560D01*
X228437Y66509D01*
X228448Y66461D01*
X228463Y66402D01*
X228485Y66343D01*
X228496Y66302D01*
X228503Y66273D01*
X228514Y66195D01*
X228522Y66166D01*
X228529Y66129D01*
X228540Y66088D01*
X228555Y66037D01*
X228562Y66007D01*
X228573Y65937D01*
X228581Y65878D01*
X228592Y65778D01*
X228599Y65727D01*
X228610Y65634D01*
X228618Y65598D01*
X228625Y65553D01*
X228632Y65487D01*
X228640Y65369D01*
X228647Y65162D01*
X228651Y64952D01*
X228644Y64930D01*
X228636Y64649D01*
X228629Y64627D01*
X228618Y64550D01*
X228596Y64461D01*
X228573Y64328D01*
X228566Y64292D01*
X228559Y64262D01*
X228537Y64203D01*
X228518Y64162D01*
X228507Y64114D01*
X228500Y64078D01*
X228444Y63971D01*
X228426Y63923D01*
X228415Y63912D01*
X228408Y63897D01*
X228385Y63875D01*
X228341Y63793D01*
X228311Y63764D01*
X228282Y63712D01*
X228230Y63661D01*
X228223Y63646D01*
X228131Y63554D01*
X228116Y63546D01*
X228098Y63528D01*
X228090Y63513D01*
X228064Y63487D01*
X228050Y63480D01*
X228009Y63447D01*
X227998Y63436D01*
X227946Y63406D01*
X227906Y63373D01*
X227895Y63362D01*
X227814Y63318D01*
X227769Y63288D01*
X227721Y63270D01*
X227677Y63240D01*
X227636Y63222D01*
X227607Y63214D01*
X227559Y63196D01*
X227533Y63185D01*
X227489Y63155D01*
X227441Y63144D01*
X227382Y63129D01*
X227319Y63104D01*
X227282Y63089D01*
X227242Y63078D01*
X227212Y63070D01*
X227116Y63056D01*
X227009Y63023D01*
X226958Y63015D01*
X226928Y63008D01*
X226747Y62989D01*
X226666Y62982D01*
X226622Y62975D01*
X226533Y62967D01*
X226467Y62960D01*
X226371Y62952D01*
X225821Y62949D01*
X225799Y62956D01*
X225593Y62963D01*
X225570Y62971D01*
X225412Y62982D01*
X225323Y62989D01*
X225198Y62997D01*
X225124Y63004D01*
X225065Y63011D01*
X224999Y63019D01*
X224969Y63026D01*
X224921Y63045D01*
X224847Y63052D01*
X224818Y63059D01*
X224714Y63074D01*
X224667Y63085D01*
X224637Y63093D01*
X224574Y63118D01*
X224523Y63133D01*
X224493Y63140D01*
X224408Y63159D01*
X224331Y63200D01*
X224301Y63207D01*
X224242Y63229D01*
X224191Y63266D01*
X224139Y63281D01*
X224087Y63310D01*
X224065Y63332D01*
X224050Y63340D01*
X223984Y63377D01*
X223955Y63406D01*
X223888Y63443D01*
X223836Y63495D01*
X223822Y63502D01*
X223807Y63517D01*
X223792Y63524D01*
X223781Y63535D01*
X223774Y63550D01*
X223733Y63591D01*
X223722Y63594D01*
X223715Y63609D01*
X223693Y63631D01*
X223685Y63646D01*
X223663Y63668D01*
X223656Y63683D01*
X223626Y63712D01*
X223597Y63764D01*
X223582Y63779D01*
X223574Y63793D01*
X223516Y63904D01*
X223501Y63919D01*
X223486Y63956D01*
X223475Y63996D01*
X223453Y64055D01*
X223420Y64133D01*
X223397Y64258D01*
X223390Y64288D01*
X223379Y64336D01*
X223368Y64376D01*
X223361Y64428D01*
X223353Y64546D01*
X223346Y64576D01*
X223353Y64849D01*
X223361Y64871D01*
X223383Y64952D01*
X223390Y65004D01*
X223397Y65033D01*
X223405Y65085D01*
X223412Y65114D01*
X223423Y65162D01*
X223431Y65192D01*
X223471Y65277D01*
X223479Y65306D01*
X223497Y65354D01*
X223523Y65395D01*
X223560Y65476D01*
X223567Y65491D01*
X223600Y65531D01*
X223611Y65542D01*
X223656Y65623D01*
X223678Y65645D01*
X223700Y65682D01*
X223715Y65697D01*
X223718Y65708D01*
X223733Y65716D01*
X223752Y65741D01*
X223766Y65756D01*
X223774Y65771D01*
X223925Y65922D01*
X223940Y65930D01*
X223977Y65966D01*
X223991Y65974D01*
X224032Y66007D01*
X224065Y66040D01*
X224080Y66048D01*
X224176Y66114D01*
X224242Y66151D01*
X224287Y66180D01*
X224327Y66192D01*
X224371Y66214D01*
X224427Y66247D01*
X224467Y66258D01*
X224497Y66265D01*
X224556Y66287D01*
X224641Y66313D01*
X224670Y66321D01*
X224774Y66335D01*
X224888Y66347D01*
X225061Y66350D01*
X225083Y66343D01*
X225227Y66324D01*
X225264Y66310D01*
X225342Y66269D01*
X225408Y66232D01*
X225452Y66188D01*
X225467Y66180D01*
X225522Y66125D01*
X225530Y66110D01*
X225567Y66059D01*
X225574Y66044D01*
X225589Y66029D01*
X225604Y65992D01*
X225611Y65963D01*
X225618Y65911D01*
X225626Y65882D01*
X225648Y65808D01*
X225641Y65712D01*
X225633Y65690D01*
X225618Y65631D01*
X225607Y65583D01*
X225600Y65553D01*
X225570Y65509D01*
X225552Y65491D01*
X225515Y65424D01*
X225463Y65373D01*
X225456Y65358D01*
X225445Y65347D01*
X225430Y65339D01*
X225390Y65306D01*
X225349Y65266D01*
X225312Y65243D01*
X225283Y65214D01*
X225268Y65206D01*
X225202Y65170D01*
X225187Y65155D01*
X225172Y65148D01*
X225061Y65088D01*
X225046Y65074D01*
X225032Y65066D01*
X225013Y65055D01*
X225010Y65052D01*
X224973Y65029D01*
X224954Y65004D01*
X224921Y64963D01*
X224903Y64945D01*
X224888Y64885D01*
X224881Y64834D01*
X224888Y64708D01*
X224895Y64686D01*
X224932Y64620D01*
X224947Y64605D01*
X224954Y64590D01*
X224988Y64550D01*
X225002Y64535D01*
X225017Y64528D01*
X225054Y64491D01*
X225106Y64461D01*
X225120Y64447D01*
X225135Y64439D01*
X225187Y64417D01*
X225216Y64410D01*
X225257Y64398D01*
X225320Y64373D01*
X225408Y64358D01*
X225556Y64343D01*
X225714Y64340D01*
X225806Y64343D01*
X225847Y64310D01*
X225862Y64303D01*
X225869Y64288D01*
X225884Y64251D01*
X225877Y64199D01*
X225843Y64159D01*
X225777Y64129D01*
X225615Y64114D01*
X225297Y64122D01*
X225275Y64129D01*
X225213Y64140D01*
X225176Y64148D01*
X225146Y64155D01*
X225120Y64166D01*
X225054Y64196D01*
X225024Y64203D01*
X224973Y64232D01*
X224958Y64247D01*
X224943Y64255D01*
X224892Y64284D01*
X224847Y64328D01*
X224833Y64336D01*
X224818Y64351D01*
X224803Y64358D01*
X224777Y64376D01*
X224770Y64391D01*
X224718Y64458D01*
X224704Y64472D01*
X224696Y64487D01*
X224681Y64524D01*
X224652Y64576D01*
X224630Y64613D01*
X224615Y64672D01*
X224600Y64819D01*
X224607Y64871D01*
X224615Y64945D01*
X224622Y64967D01*
X224641Y65015D01*
X224674Y65070D01*
X224681Y65100D01*
X224714Y65140D01*
X224740Y65166D01*
X224748Y65181D01*
X224788Y65221D01*
X224803Y65229D01*
X224825Y65251D01*
X224840Y65258D01*
X224910Y65306D01*
X224921Y65317D01*
X224973Y65339D01*
X225024Y65369D01*
X225046Y65391D01*
X225128Y65435D01*
X225168Y65468D01*
X225179Y65479D01*
X225194Y65487D01*
X225209Y65502D01*
X225224Y65509D01*
X225242Y65527D01*
X225250Y65542D01*
X225308Y65601D01*
X225367Y65734D01*
X225375Y65764D01*
X225367Y65860D01*
X225308Y65970D01*
X225246Y66033D01*
X225172Y66062D01*
X225098Y66084D01*
X224980Y66092D01*
X224855Y66084D01*
X224833Y66077D01*
X224774Y66062D01*
X224722Y66055D01*
X224692Y66048D01*
X224644Y66037D01*
X224585Y66014D01*
X224541Y65992D01*
X224427Y65952D01*
X224375Y65915D01*
X224338Y65900D01*
X224301Y65878D01*
X224287Y65863D01*
X224272Y65856D01*
X224257Y65841D01*
X224205Y65812D01*
X224168Y65775D01*
X224154Y65767D01*
X224102Y65730D01*
X223966Y65594D01*
X223958Y65579D01*
X223899Y65520D01*
X223892Y65505D01*
X223859Y65465D01*
X223803Y65373D01*
X223788Y65358D01*
X223766Y65306D01*
X223748Y65258D01*
X223711Y65199D01*
X223693Y65136D01*
X223681Y65096D01*
X223674Y65066D01*
X223656Y65026D01*
X223641Y64974D01*
X223634Y64922D01*
X223626Y64893D01*
X223619Y64819D01*
X223611Y64767D01*
X223604Y64576D01*
X223611Y64553D01*
X223619Y64376D01*
X223626Y64354D01*
X223634Y64295D01*
X223678Y64185D01*
X223689Y64137D01*
X223704Y64078D01*
X223733Y64033D01*
X223785Y63930D01*
X223803Y63904D01*
X223833Y63860D01*
X223840Y63845D01*
X223873Y63805D01*
X223907Y63771D01*
X223914Y63757D01*
X223947Y63716D01*
X223962Y63709D01*
X224028Y63642D01*
X224043Y63635D01*
X224087Y63591D01*
X224102Y63583D01*
X224139Y63561D01*
X224191Y63532D01*
X224205Y63517D01*
X224220Y63509D01*
X224257Y63495D01*
X224305Y63476D01*
X224349Y63447D01*
X224390Y63428D01*
X224449Y63414D01*
X224508Y63391D01*
X224574Y63362D01*
X224604Y63354D01*
X224656Y63347D01*
X224685Y63340D01*
X224726Y63329D01*
X224763Y63314D01*
X224803Y63303D01*
X224833Y63296D01*
X224884Y63288D01*
X225036Y63270D01*
X225109Y63262D01*
X225153Y63255D01*
X225227Y63240D01*
X225327Y63229D01*
X225445Y63222D01*
X225629Y63214D01*
X225703Y63207D01*
X226242Y63200D01*
X226264Y63207D01*
X226544Y63214D01*
X226567Y63222D01*
X226707Y63229D01*
X226729Y63236D01*
X226810Y63244D01*
X226832Y63251D01*
X226862Y63259D01*
X226950Y63273D01*
X227072Y63292D01*
X227101Y63299D01*
X227253Y63347D01*
X227282Y63354D01*
X227330Y63366D01*
X227367Y63380D01*
X227459Y63421D01*
X227500Y63432D01*
X227574Y63476D01*
X227622Y63495D01*
X227688Y63532D01*
X227710Y63554D01*
X227747Y63569D01*
X227784Y63591D01*
X227814Y63620D01*
X227828Y63627D01*
X227843Y63642D01*
X227858Y63650D01*
X227902Y63694D01*
X227917Y63701D01*
X227965Y63749D01*
X227972Y63764D01*
X228016Y63801D01*
X228024Y63816D01*
X228075Y63867D01*
X228112Y63934D01*
X228142Y63963D01*
X228157Y64000D01*
X228186Y64052D01*
X228201Y64066D01*
X228216Y64103D01*
X228230Y64155D01*
X228249Y64203D01*
X228267Y64244D01*
X228289Y64317D01*
X228300Y64365D01*
X228308Y64402D01*
X228315Y64432D01*
X228323Y64469D01*
X228337Y64528D01*
X228345Y64565D01*
X228352Y64609D01*
X228360Y64690D01*
X228371Y64908D01*
X228378Y65092D01*
X228360Y65502D01*
X228352Y65590D01*
X228341Y65690D01*
X228334Y65719D01*
X228308Y65848D01*
X228300Y65893D01*
X228293Y65952D01*
X228278Y66040D01*
X228267Y66081D01*
X228253Y66118D01*
X228223Y66236D01*
X228212Y66299D01*
X228204Y66328D01*
X228186Y66369D01*
X228171Y66420D01*
X228149Y66509D01*
X228131Y66557D01*
X228105Y66605D01*
X228090Y66656D01*
X228083Y66686D01*
X228057Y66756D01*
X228046Y66767D01*
X228024Y66819D01*
X228009Y66870D01*
X227943Y67010D01*
X227924Y67058D01*
X227898Y67099D01*
X227861Y67180D01*
X227854Y67195D01*
X227802Y67269D01*
X227784Y67317D01*
X227754Y67361D01*
X227743Y67372D01*
X227721Y67424D01*
X227699Y67461D01*
X227662Y67512D01*
X227633Y67564D01*
X227611Y67586D01*
X227603Y67601D01*
X227574Y67652D01*
X227537Y67704D01*
X227529Y67719D01*
X227478Y67785D01*
X227463Y67800D01*
X227456Y67815D01*
X227415Y67878D01*
X227400Y67885D01*
X227382Y67903D01*
X227352Y67955D01*
X227315Y67992D01*
X227308Y68007D01*
X227286Y68029D01*
X227278Y68044D01*
X227242Y68080D01*
X227234Y68095D01*
X227183Y68147D01*
X227175Y68162D01*
X227161Y68176D01*
X227153Y68191D01*
X227087Y68257D01*
X227079Y68272D01*
X227013Y68339D01*
X227006Y68353D01*
X226932Y68427D01*
X226924Y68442D01*
X226899Y68460D01*
X226887Y68471D01*
X226880Y68486D01*
X226865Y68501D01*
X226858Y68516D01*
X226832Y68534D01*
X226814Y68553D01*
X226806Y68567D01*
X226773Y68601D01*
X226762Y68604D01*
X226755Y68619D01*
X226740Y68634D01*
X226732Y68648D01*
X226692Y68689D01*
X226681Y68693D01*
X226674Y68708D01*
X226659Y68722D01*
X226651Y68737D01*
X226614Y68774D01*
X226607Y68789D01*
X226592Y68804D01*
X226585Y68818D01*
X226552Y68859D01*
X226533Y68877D01*
X226489Y68958D01*
X226460Y69003D01*
X226434Y69073D01*
X226408Y69121D01*
X226393Y69158D01*
X226378Y69283D01*
X226371Y69379D01*
X226378Y69741D01*
X226371Y70316D01*
X226364Y70338D01*
X226353Y70423D01*
X226338Y70497D01*
X226330Y70541D01*
X226319Y70641D01*
X226301Y70755D01*
X226293Y70792D01*
X226264Y70873D01*
X226257Y70903D01*
X226249Y70940D01*
X226242Y70984D01*
X226231Y71024D01*
X226212Y71072D01*
X226186Y71135D01*
X226172Y71194D01*
X226153Y71242D01*
X226105Y71334D01*
X226098Y71364D01*
X226061Y71430D01*
X226009Y71526D01*
X225987Y71548D01*
X225980Y71563D01*
X225936Y71644D01*
X225921Y71659D01*
X225914Y71674D01*
X225899Y71688D01*
X225891Y71703D01*
X225821Y71795D01*
X225796Y71836D01*
X225762Y71877D01*
X225733Y71921D01*
X225692Y71954D01*
X225685Y71969D01*
X225633Y72035D01*
X225622Y72046D01*
X225593Y72054D01*
X225556Y72046D01*
X225545Y72035D01*
X225530Y71998D01*
X225500Y71947D01*
X225486Y71932D01*
X225478Y71917D01*
X225463Y71880D01*
X225438Y71810D01*
X225427Y71799D01*
X225419Y71784D01*
X225390Y71718D01*
X225379Y71655D01*
X225349Y71574D01*
X225331Y71526D01*
X225316Y71438D01*
X225297Y71360D01*
X225279Y71312D01*
X225264Y71260D01*
X225257Y71231D01*
X225231Y71161D01*
X225187Y71117D01*
X225150Y71102D01*
X225120Y71109D01*
X225080Y71150D01*
X225072Y71165D01*
X225058Y71201D01*
X225050Y71231D01*
X225058Y71438D01*
X225065Y71460D01*
X225072Y71563D01*
X225087Y71600D01*
X225098Y71640D01*
X225113Y71729D01*
X225120Y71759D01*
X225143Y71818D01*
X225161Y71866D01*
X225168Y71895D01*
X225183Y71932D01*
X225279Y72116D01*
X225308Y72146D01*
X225316Y72161D01*
X225349Y72201D01*
X225382Y72227D01*
X225390Y72242D01*
X225404Y72257D01*
X225412Y72271D01*
X225456Y72301D01*
X225475Y72319D01*
X225489Y72327D01*
X225556Y72356D01*
X225585Y72364D01*
X225659Y72356D01*
D02*
G37*
G36*
X221254Y66394D02*
X221335Y66387D01*
X221416Y66350D01*
X221453Y66335D01*
X221483Y66328D01*
X221553Y66280D01*
X221564Y66269D01*
X221616Y66240D01*
X221641Y66221D01*
X221645Y66210D01*
X221660Y66203D01*
X221675Y66188D01*
X221689Y66180D01*
X221708Y66162D01*
X221715Y66147D01*
X221748Y66114D01*
X221763Y66107D01*
X221782Y66081D01*
X221815Y66040D01*
X221841Y66014D01*
X221870Y65963D01*
X221892Y65941D01*
X221900Y65926D01*
X221914Y65911D01*
X222003Y65727D01*
X222062Y65601D01*
X222073Y65546D01*
X222080Y65516D01*
X222095Y65479D01*
X222121Y65395D01*
X222136Y65269D01*
X222143Y65173D01*
X222150Y64967D01*
X222143Y64945D01*
X222136Y64775D01*
X222128Y64753D01*
X222110Y64638D01*
X222084Y64576D01*
X222069Y64524D01*
X222051Y64439D01*
X222014Y64380D01*
X221999Y64343D01*
X221992Y64314D01*
X221977Y64277D01*
X221948Y64232D01*
X221896Y64129D01*
X221870Y64103D01*
X221863Y64089D01*
X221826Y64022D01*
X221789Y63985D01*
X221782Y63971D01*
X221748Y63930D01*
X221715Y63897D01*
X221708Y63882D01*
X221682Y63849D01*
X221667Y63841D01*
X221542Y63716D01*
X221527Y63709D01*
X221468Y63650D01*
X221402Y63613D01*
X221365Y63576D01*
X221298Y63539D01*
X221276Y63517D01*
X221261Y63509D01*
X221165Y63458D01*
X221151Y63443D01*
X221099Y63421D01*
X221070Y63414D01*
X221018Y63384D01*
X221003Y63369D01*
X220952Y63354D01*
X220922Y63347D01*
X220874Y63329D01*
X220833Y63310D01*
X220760Y63288D01*
X220730Y63281D01*
X220645Y63262D01*
X220538Y63229D01*
X220464Y63222D01*
X220435Y63214D01*
X220339Y63207D01*
X220199Y63200D01*
X220081Y63192D01*
X219985Y63185D01*
X219564Y63192D01*
X219542Y63200D01*
X218804Y63207D01*
X217838Y63214D01*
X217816Y63222D01*
X217635Y63233D01*
X217554Y63248D01*
X217513Y63259D01*
X217461Y63266D01*
X217388Y63273D01*
X217358Y63281D01*
X217284Y63288D01*
X217218Y63325D01*
X217166Y63347D01*
X217118Y63366D01*
X217074Y63402D01*
X217052Y63425D01*
X217037Y63476D01*
X217048Y63517D01*
X217059Y63528D01*
X217067Y63543D01*
X217107Y63561D01*
X217137Y63569D01*
X217203Y63561D01*
X217270Y63532D01*
X217321Y63517D01*
X217380Y63502D01*
X217432Y63495D01*
X217568Y63476D01*
X217650Y63469D01*
X217816Y63450D01*
X217889Y63443D01*
X218605Y63436D01*
X218627Y63428D01*
X219789Y63410D01*
X219845Y63406D01*
X219867Y63414D01*
X220258Y63421D01*
X220280Y63428D01*
X220409Y63439D01*
X220439Y63447D01*
X220476Y63454D01*
X220505Y63462D01*
X220546Y63473D01*
X220597Y63487D01*
X220649Y63495D01*
X220678Y63502D01*
X220723Y63509D01*
X220833Y63561D01*
X220874Y63572D01*
X220937Y63605D01*
X220988Y63627D01*
X221025Y63642D01*
X221062Y63664D01*
X221084Y63687D01*
X221136Y63709D01*
X221151Y63716D01*
X221191Y63749D01*
X221202Y63760D01*
X221269Y63797D01*
X221313Y63841D01*
X221328Y63849D01*
X221368Y63882D01*
X221402Y63915D01*
X221416Y63923D01*
X221516Y64022D01*
X221523Y64037D01*
X221560Y64066D01*
X221568Y64081D01*
X221601Y64122D01*
X221619Y64140D01*
X221627Y64155D01*
X221700Y64258D01*
X221745Y64340D01*
X221767Y64376D01*
X221800Y64469D01*
X221833Y64524D01*
X221848Y64576D01*
X221859Y64624D01*
X221866Y64653D01*
X221881Y64727D01*
X221896Y64786D01*
X221907Y64841D01*
Y64849D01*
X221914Y65055D01*
X221900Y65203D01*
X221892Y65225D01*
X221885Y65306D01*
X221878Y65328D01*
X221863Y65380D01*
X221855Y65409D01*
X221837Y65494D01*
X221796Y65572D01*
X221763Y65664D01*
X221752Y65690D01*
X221723Y65734D01*
X221678Y65815D01*
X221656Y65837D01*
X221649Y65852D01*
X221597Y65918D01*
X221564Y65959D01*
X221542Y65981D01*
X221527Y65989D01*
X221475Y66040D01*
X221409Y66077D01*
X221387Y66099D01*
X221313Y66121D01*
X221265Y66132D01*
X221228Y66140D01*
X221136Y66144D01*
X221114Y66136D01*
X221084Y66129D01*
X221036Y66118D01*
X220996Y66092D01*
X220977Y66074D01*
X220970Y66059D01*
X220940Y66029D01*
X220918Y65978D01*
X220896Y65904D01*
X220903Y65837D01*
X220911Y65815D01*
X220933Y65727D01*
X220955Y65668D01*
X220992Y65609D01*
X221003Y65561D01*
X221018Y65524D01*
X221059Y65439D01*
X221073Y65380D01*
X221092Y65288D01*
X221106Y65229D01*
X221117Y65129D01*
X221110Y64981D01*
X221103Y64959D01*
X221081Y64871D01*
X221062Y64793D01*
X221000Y64679D01*
X220992Y64649D01*
X220948Y64605D01*
X220940Y64590D01*
X220907Y64550D01*
X220841Y64483D01*
X220826Y64476D01*
X220811Y64461D01*
X220796Y64454D01*
X220767Y64424D01*
X220730Y64410D01*
X220664Y64373D01*
X220612Y64351D01*
X220535Y64332D01*
X220406Y64292D01*
X220258Y64277D01*
X220074Y64269D01*
X219649Y64280D01*
X219612Y64288D01*
X219586Y64306D01*
X219557Y64351D01*
X219538Y64391D01*
X219557Y64439D01*
X219586Y64476D01*
X219646Y64491D01*
X219848Y64487D01*
X220158Y64495D01*
X220232Y64502D01*
X220276Y64509D01*
X220317Y64520D01*
X220346Y64528D01*
X220394Y64539D01*
X220457Y64557D01*
X220487Y64565D01*
X220535Y64583D01*
X220553Y64601D01*
X220568Y64609D01*
X220634Y64646D01*
X220686Y64697D01*
X220701Y64705D01*
X220719Y64723D01*
X220726Y64738D01*
X220760Y64779D01*
X220778Y64812D01*
X220793Y64849D01*
X220811Y64897D01*
X220822Y64908D01*
X220837Y64959D01*
X220845Y64989D01*
X220856Y65074D01*
X220859Y65144D01*
X220852Y65166D01*
X220845Y65269D01*
X220800Y65365D01*
X220767Y65457D01*
X220734Y65520D01*
X220719Y65557D01*
X220712Y65587D01*
X220667Y65697D01*
X220660Y65727D01*
X220653Y65778D01*
X220645Y65867D01*
X220653Y65889D01*
X220660Y66022D01*
X220712Y66132D01*
X220741Y66184D01*
X220771Y66214D01*
X220778Y66228D01*
X220793Y66243D01*
X220800Y66258D01*
X220819Y66276D01*
X220833Y66284D01*
X220870Y66321D01*
X220907Y66335D01*
X221018Y66387D01*
X221092Y66394D01*
X221232Y66402D01*
X221254Y66394D01*
D02*
G37*
G36*
X215775Y65697D02*
X215812Y65675D01*
X215827Y65638D01*
X215834Y65609D01*
X215820Y65077D01*
X215812Y64981D01*
X215805Y64362D01*
X215798Y64340D01*
X215790Y63823D01*
X215783Y63705D01*
Y63484D01*
Y63476D01*
X215775Y63380D01*
X215731Y63299D01*
X215720Y63288D01*
X215669Y63281D01*
X215632Y63296D01*
X215613Y63306D01*
X215606Y63321D01*
X215569Y63373D01*
X215554Y63432D01*
X215547Y63661D01*
X215539Y63712D01*
X215532Y64207D01*
X215539Y64229D01*
X215536Y64321D01*
X215543Y65000D01*
X215550Y65192D01*
X215558Y65266D01*
X215565Y65332D01*
X215580Y65413D01*
X215595Y65472D01*
X215606Y65572D01*
X215613Y65601D01*
X215628Y65638D01*
X215635Y65653D01*
X215676Y65693D01*
X215691Y65701D01*
X215727Y65716D01*
X215775Y65697D01*
D02*
G37*
G36*
X217255Y66749D02*
X217296Y66715D01*
X217325Y66649D01*
X217332Y66597D01*
X217340Y66568D01*
X217347Y66361D01*
X217340Y66125D01*
X217332Y66103D01*
X217325Y65941D01*
X217318Y65918D01*
X217306Y65782D01*
X217299Y65738D01*
X217284Y65664D01*
X217277Y65634D01*
X217266Y65594D01*
X217259Y65564D01*
X217244Y65461D01*
X217225Y65384D01*
X217203Y65324D01*
X217192Y65284D01*
X217174Y65199D01*
X217152Y65111D01*
X217118Y65033D01*
X217096Y64945D01*
X217078Y64897D01*
X217045Y64819D01*
X217037Y64790D01*
X217015Y64716D01*
X216971Y64620D01*
X216956Y64561D01*
X216941Y64524D01*
X216904Y64443D01*
X216890Y64384D01*
X216875Y64347D01*
X216831Y64251D01*
X216809Y64170D01*
X216790Y64122D01*
X216757Y64044D01*
X216750Y64015D01*
X216738Y63967D01*
X216724Y63930D01*
X216705Y63882D01*
X216690Y63830D01*
X216683Y63801D01*
X216657Y63687D01*
X216635Y63627D01*
X216624Y63587D01*
X216617Y63557D01*
X216606Y63487D01*
X216598Y63428D01*
X216583Y63347D01*
X216539Y63273D01*
X216510Y63244D01*
X216480Y63236D01*
X216443Y63244D01*
X216428Y63259D01*
X216414Y63266D01*
X216403Y63277D01*
X216395Y63292D01*
X216381Y63329D01*
X216373Y63358D01*
X216366Y63462D01*
X216373Y63484D01*
X216381Y63535D01*
X216388Y63565D01*
X216395Y63683D01*
X216403Y63705D01*
X216410Y63779D01*
X216417Y63801D01*
X216428Y63841D01*
X216447Y63904D01*
X216462Y63956D01*
X216480Y64063D01*
X216521Y64162D01*
X216535Y64214D01*
X216554Y64299D01*
X216595Y64384D01*
X216609Y64443D01*
X216620Y64483D01*
X216642Y64528D01*
X216661Y64568D01*
X216683Y64642D01*
X216702Y64690D01*
X216716Y64727D01*
X216735Y64767D01*
X216750Y64819D01*
X216757Y64849D01*
X216775Y64897D01*
X216801Y64945D01*
X216816Y64996D01*
X216823Y65026D01*
X216842Y65074D01*
X216856Y65111D01*
X216875Y65158D01*
X216890Y65210D01*
X216897Y65240D01*
X216908Y65288D01*
X216930Y65347D01*
X216941Y65380D01*
X216956Y65431D01*
X216971Y65520D01*
X216974Y65531D01*
X216978Y65535D01*
X216986Y65594D01*
X217008Y65645D01*
X217022Y65734D01*
X217030Y65764D01*
X217037Y65837D01*
X217048Y65922D01*
X217063Y66011D01*
X217070Y66048D01*
X217081Y66147D01*
X217089Y66177D01*
X217096Y66295D01*
X217104Y66369D01*
X217115Y66638D01*
X217126Y66708D01*
X217152Y66741D01*
X217189Y66756D01*
X217255Y66749D01*
D02*
G37*
D11*
X204000Y111499D02*
X204999Y112499D01*
X206999D01*
X207998Y111499D01*
Y107501D01*
X206999Y106501D01*
X204999D01*
X204000Y107501D01*
X202000Y111499D02*
X201001Y112499D01*
X199001D01*
X198002Y111499D01*
Y110500D01*
X199001Y109500D01*
X200001D01*
X199001D01*
X198002Y108500D01*
Y107501D01*
X199001Y106501D01*
X201001D01*
X202000Y107501D01*
X168401Y115898D02*
X169401Y116898D01*
X171400D01*
X172400Y115898D01*
Y111900D01*
X171400Y110900D01*
X169401D01*
X168401Y111900D01*
X166402Y110900D02*
X164403D01*
X165402D01*
Y116898D01*
X166402Y115898D01*
D12*
X216242Y120951D02*
X219392D01*
X216242Y115045D02*
X219392D01*
X169925Y106953D02*
X173075D01*
X169925Y101047D02*
X173075D01*
M02*
