M48
;Layer_Color=9474304
;FILE_FORMAT=2:5
INCH,LZ
;TYPE=PLATED
T1F00S00C0.02800
T2F00S00C0.03000
T3F00S00C0.03150
T4F00S00C0.03346
T5F00S00C0.03543
T6F00S00C0.03937
%
T01
X0245Y00045
X0154Y0006
X0167Y0029
X01755Y00365
X0079Y0035
X0005Y00275
X00055Y0017
Y00045
X0006Y00715
X00065Y00825
X00205Y0106
Y01175
Y0128
Y01415
X0032
X0065Y0144
X00675Y0073
X0056Y00635
X00955Y00735
X0107Y00565
X0171Y0057
Y00655
X01495Y0129
X01485Y01435
X02265
X0213Y0102
T02
X00205Y00715
X00305
X00405
Y00815
X00305
X00205
T03
X0008Y00375
Y00425
Y00475
T04
X0213Y0015
X0223
X02355Y00395
X0191Y00225
Y00125
X01765
X01665
X0138Y0036
X0128
X0097Y0032
X0087
X0062Y0018
X0052
X0036Y00255
Y00355
X0039Y0058
X00435Y0099
Y0109
X0069Y0105
X0079
X00985Y01055
X01085
X01245Y0121
Y0131
X01435Y01155
Y01055
X0137Y009
X0127
X0133Y00685
X0143
X01195Y0065
Y0055
X00725Y00425
X00625
X0049Y0058
X01665Y01315
X01765
X02035
X02135
X0227Y00885
Y00785
X0221Y0056
X0211
X02355Y00495
T05
X0078Y00145
X0088
X011Y001
X012
X013
X014
X00355Y0006
X00255
X001Y01
Y011
Y012
Y013
X0049Y01335
X0059
X0081Y0134
X0091
X024Y013
Y012
Y011
Y01
T06
X01605Y00575
Y00675
Y00775
Y00875
X01905
Y00775
Y00675
Y00575
M30
